<svg version="1.1" id="Layer_1" xmlns="http://www.w3.org/2000/svg" x="0" y="0" viewBox="0 0 320 145.1" xml:space="preserve"><style>.st2{fill:#be1e2d}</style><path fill-rule="evenodd" clip-rule="evenodd" fill="#be1e2d" d="M85.3.1h13.5v144.8H85.3z"/><linearGradient id="SVGID_1_" gradientUnits="userSpaceOnUse" x1="0" y1="72.573" x2="59.667" y2="72.573"><stop offset="0" stop-color="#fff"/><stop offset="0" stop-color="#be1e2d"/><stop offset="0" stop-color="#fff"/><stop offset="1" stop-color="#bcbec0"/></linearGradient><path fill="url(#SVGID_1_)" d="M59.3.1l-43.1 145H0L43.1.1h16.6"/><path class="st2" d="M66.9 0h14.8v144.8H68.3V78H41.6L64.3.1 81.7 0"/><linearGradient id="SVGID_2_" gradientUnits="userSpaceOnUse" x1="137.748" y1="90.957" x2="137.748" y2="28.397"><stop offset="0" stop-color="#fff"/><stop offset="0" stop-color="#be1e2d"/><stop offset="0" stop-color="#fff"/><stop offset="1" stop-color="#bcbec0"/></linearGradient><path d="M155 91h-10l-1.7-11.3h-12.1L129.6 91h-9l10-62.6H145L155 91zm-22.5-19.9h9.5l-4.7-31.6-4.8 31.6z" fill="url(#SVGID_2_)"/><linearGradient id="SVGID_3_" gradientUnits="userSpaceOnUse" x1="164.872" y1="64.147" x2="164.872" y2="55.209"><stop offset="0" stop-color="#fff"/><stop offset="0" stop-color="#be1e2d"/><stop offset="0" stop-color="#fff"/><stop offset="1" stop-color="#bcbec0"/></linearGradient><path d="M155.9 55.2h17.9v8.9h-17.9v-8.9z" fill="url(#SVGID_3_)"/><linearGradient id="SVGID_4_" gradientUnits="userSpaceOnUse" x1="187.749" y1="90.957" x2="187.749" y2="28.397"><stop offset="0" stop-color="#fff"/><stop offset="0" stop-color="#be1e2d"/><stop offset="0" stop-color="#fff"/><stop offset="1" stop-color="#bcbec0"/></linearGradient><path d="M172.6 28.4H203v8.9h-10.3V91h-9.8V37.3h-10.3v-8.9z" fill="url(#SVGID_4_)"/><linearGradient id="SVGID_5_" gradientUnits="userSpaceOnUse" x1="219.117" y1="91.672" x2="219.117" y2="27.683"><stop offset="0" stop-color="#fff"/><stop offset="0" stop-color="#be1e2d"/><stop offset="0" stop-color="#fff"/><stop offset="1" stop-color="#bcbec0"/></linearGradient><path d="M204.2 43.4c0-10 5.3-15.7 14.9-15.7 9.7 0 14.9 5.7 14.9 15.7v32.5c0 10-5.3 15.7-14.9 15.7-9.7 0-14.9-5.7-14.9-15.7V43.4zm9.8 33.2c0 4.5 2 6.2 5.1 6.2 3.1 0 5.1-1.7 5.1-6.2V42.8c0-4.5-2-6.2-5.1-6.2-3.1 0-5.1 1.7-5.1 6.2v33.8z" fill="url(#SVGID_5_)"/><linearGradient id="SVGID_6_" gradientUnits="userSpaceOnUse" x1="261.076" y1="90.957" x2="261.076" y2="28.397"><stop offset="0" stop-color="#fff"/><stop offset="0" stop-color="#be1e2d"/><stop offset="0" stop-color="#fff"/><stop offset="1" stop-color="#bcbec0"/></linearGradient><path d="M261.3 57.6L257.7 91h-13.5l-7-62.6h9.6l5.3 49.3 4.7-49.3h9.5l4.9 49.7 5.1-49.7h8.6l-7 62.6h-13l-3.6-33.4z" fill="url(#SVGID_6_)"/><linearGradient id="SVGID_7_" gradientUnits="userSpaceOnUse" x1="304.419" y1="90.957" x2="304.419" y2="28.397"><stop offset="0" stop-color="#fff"/><stop offset="0" stop-color="#be1e2d"/><stop offset="0" stop-color="#fff"/><stop offset="1" stop-color="#bcbec0"/></linearGradient><path d="M297.7 45.6V91h-8.8V28.4h12.3l10.1 37.4V28.4h8.8V91H310l-12.3-45.4z" fill="url(#SVGID_7_)"/><path class="st2" d="M152.5 112.1c0 .8-.1 1.5-.4 2.2-.3.7-.7 1.3-1.2 1.7-.5.5-1.1.9-1.8 1.1-.7.3-1.4.4-2.1.4-.9 0-1.6-.2-2.2-.5-.6-.3-1.1-.8-1.5-1.3-.7.7-1.3 1.3-1.6 1.8h-.9v-13.4c0-.5-.1-.8-.2-1-.1-.2-.3-.4-.5-.4-.3-.1-.6-.1-1.2-.1v-1.1l5-1.1v7.8c.4-.4.9-.7 1.4-1 .5-.3 1.3-.4 2.1-.4s1.6.1 2.2.4c.6.3 1.2.7 1.6 1.2.4.5.7 1.1 1 1.7.2.7.3 1.3.3 2zm-3.3-.1c0-1-.2-1.9-.5-2.7-.3-.8-1-1.2-2-1.2-.4 0-.7.1-1 .2-.3.1-.7.3-1 .6-.3.2-.6.5-.8.8v4.9c.5.6 1 1 1.4 1.2.5.2.9.3 1.3.3.7 0 1.2-.2 1.6-.7.4-.4.6-1 .8-1.6.1-.5.2-1.1.2-1.8zm22.7 2.6c0 .6-.1 1.1-.4 1.6-.2.4-.6.8-1 1-.4.2-.9.3-1.4.3-.7 0-1.2-.2-1.7-.5s-.7-.7-.8-1.1c-1.3 1.1-2.7 1.6-4.1 1.6-.9 0-1.6-.2-2.1-.6-.6-.4-.8-1-.8-1.7 0-.6.1-1.1.4-1.6.3-.5.7-.9 1.3-1.2.6-.4 1.3-.7 2.1-1 .8-.3 1.8-.6 3-.9v-.7c0-.6-.1-1-.4-1.3-.3-.3-.8-.5-1.5-.5-.6 0-1.1.1-1.3.4-.3.3-.5.7-.5 1.2-.1.4-.2.7-.4.9-.2.2-.5.4-1.1.4-.3 0-.6-.1-.9-.3-.3-.2-.4-.5-.4-.9 0-.8.4-1.4 1.2-2 .8-.6 2.1-.8 3.8-.8 1.8 0 3 .3 3.7.9.7.6 1 1.4 1 2.4v4.9c0 .2.1.4.2.5.1.1.3.2.5.2s.4-.1.6-.3c.2-.2.2-.5.2-.8h.8zm-5.6.1v-3c-1.5.5-2.5 1-2.9 1.4-.4.5-.6.9-.6 1.4 0 .4.1.7.3.9.2.2.5.3 1 .3.4 0 .8-.1 1.2-.3.3-.2.6-.4 1-.7zm21.5-6c0 .5-.1.8-.4 1.1-.3.3-.6.4-1 .4-.5 0-.9-.2-1.2-.7l-.4-.4c-.1-.1-.3-.1-.4-.1-.6 0-1.1.3-1.5 1-.4.7-.5 1.4-.5 2.1v2.1c0 .7.1 1.1.3 1.4.2.2.6.4 1.4.4h.6v1.1H177V116h.6c.7 0 1.1-.1 1.2-.4.2-.3.2-.7.2-1.4v-3.5c0-.5-.1-.9-.2-1.2-.1-.2-.3-.4-.6-.5-.3-.1-.7-.1-1.4-.1v-1.1l4.7-1c.1.4.2 1.3.3 2.6.2-.5.5-.9.9-1.3s.8-.7 1.2-1c.5-.2.9-.4 1.4-.4.7 0 1.2.2 1.6.6.7.5.9.9.9 1.4zm33.9 4.7c0 .6-.2 1.3-.4 1.9-.2.6-.6 1.1-1.1 1.5-.5.4-1.1.6-1.9.6-.4 0-.8-.1-1.1-.2-.4-.1-.8-.3-1.2-.6-.4-.3-1-.8-1.6-1.4-.8.8-1.6 1.3-2.5 1.7-.8.4-1.6.6-2.4.6-.9 0-1.7-.2-2.4-.6-.7-.4-1.2-1-1.6-1.6-.4-.7-.6-1.4-.6-2.2 0-.5.1-.9.2-1.5.1-.5.5-1.1 1.1-1.8.6-.7 1.4-1.3 2.5-1.9-.4-.7-.7-1.3-.9-1.9-.2-.5-.3-1.1-.3-1.8 0-.6.1-1.2.4-1.7.2-.5.5-.9.9-1.2.4-.3.8-.5 1.3-.7.5-.2.9-.2 1.4-.2.7 0 1.3.2 1.8.5s.9.7 1.2 1.2c.3.5.4 1 .4 1.5 0 .7-.2 1.4-.8 2.1-.5.7-1.2 1.3-2.2 1.8l3.7 4.9c.5-.6.8-1.1 1.2-1.7.3-.6.5-1.1.5-1.7 0-.2-.1-.4-.2-.7-.2-.3-.5-.4-1-.4v-1.1h5v1.1c-.4.1-.8.2-1.1.4-.3.2-.5.4-.7.7-.2.3-.6.8-1.1 1.6l-.5.8c-.4.7-.9 1.3-1.3 1.8.4.6.8 1.1 1.4 1.5.5.5 1 .7 1.5.7.2 0 .4-.1.6-.2.2-.1.4-.3.5-.6.2-.3.3-.7.3-1.2h1zm-8.1 1l-4.3-5.5c-1.2.7-1.8 1.6-1.8 2.7 0 .6.2 1.2.5 1.8.3.6.8 1.1 1.3 1.5.5.4 1.1.6 1.7.6.5 0 1-.1 1.3-.3.5-.3.9-.5 1.3-.8zm-.5-10.9c0-.3-.1-.6-.2-.9s-.3-.5-.6-.7c-.3-.2-.6-.3-.9-.3-.5 0-.9.2-1.2.5-.3.3-.4.7-.4 1.1 0 .9.5 2 1.4 3.3.6-.4 1.1-.9 1.4-1.3.3-.4.5-1 .5-1.7zm38.8 4.4c0 .3-.1.5-.2.7-.2.2-.3.3-.5.3s-.5-.1-.8-.3l-.2-.2c-.1-.1-.2-.1-.2-.2-.1 0-.1-.1-.2-.1-.2 0-.4.1-.6.2.3.3.5.7.6 1 .1.3.2.7.2 1.2 0 .7-.1 1.2-.4 1.6-.3.4-.7.8-1.2 1-.5.2-1 .4-1.5.5-.5.1-1.1.2-1.9.3-1.9.2-2.9.6-2.9 1.2 0 .2.1.4.4.5.3.1.7.1 1.3.1h1.8c.6 0 1.2 0 1.7.1s1.1.2 1.7.4c.6.2 1 .6 1.4 1.1.4.5.6 1.1.6 1.9 0 .6-.2 1.2-.5 1.8-.4.6-1 1.1-1.9 1.5-.9.4-2.2.6-3.7.6-1.2 0-2.4-.2-3.6-.5-1.2-.3-1.8-1-1.8-2.2 0-.4.1-.7.3-1.1.2-.3.6-.5 1-.5s.7.1.9.2c-.2.3-.3.6-.3.9 0 .5.3 1 .9 1.4.6.4 1.5.6 2.8.6 1.2 0 2.2-.2 3-.5.7-.4 1.1-.8 1.1-1.4 0-.4-.2-.7-.5-.9-.3-.2-.8-.3-1.3-.4-.6-.1-1.5-.1-2.7-.1-1.5 0-2.6-.2-3.5-.5-.8-.3-1.3-1-1.3-1.9 0-.8.3-1.4.9-1.8.6-.4 1.4-.7 2.3-.9-2.2-.4-3.2-1.4-3.2-3 0-.5.1-1.1.4-1.6.3-.6.8-1 1.5-1.4.7-.4 1.7-.6 3-.6 1.6 0 2.8.4 3.7 1.1.5-.7 1.2-1.1 1.9-1.1.4 0 .7.1 1 .3.4.2.5.4.5.7zm-5 2.5c0-.7-.2-1.3-.5-1.8s-.8-.8-1.4-.8c-.7 0-1.2.2-1.5.7-.3.5-.4 1-.4 1.7s.1 1.3.4 1.8c.3.6.8.8 1.5.8.6 0 1-.2 1.4-.6.4-.4.5-1 .5-1.8zm21.4-1.7c0 .5-.1.8-.4 1.1-.3.3-.6.4-1 .4-.5 0-.9-.2-1.2-.7l-.4-.4c-.1-.1-.3-.1-.4-.1-.6 0-1.1.3-1.5 1-.4.7-.5 1.4-.5 2.1v2.1c0 .7.1 1.1.3 1.4.2.2.6.4 1.4.4h.6v1.1h-7.5V116h.6c.7 0 1.1-.1 1.2-.4.2-.3.2-.7.2-1.4v-3.5c0-.5-.1-.9-.2-1.2-.1-.2-.3-.4-.6-.5-.3-.1-.7-.1-1.4-.1v-1.1l4.7-1c.1.4.2 1.3.3 2.6.2-.5.5-.9.9-1.3s.8-.7 1.2-1c.5-.2.9-.4 1.4-.4.7 0 1.2.2 1.6.6.5.5.7.9.7 1.4zm12 8.4h-6.6V116h.4c.5 0 .8-.1 1-.2.2-.1.3-.3.4-.5 0-.2.1-.6.1-1v-3.6c0-.5 0-.9-.1-1.1-.1-.2-.2-.4-.5-.5-.3-.1-.7-.1-1.3-.2v-1.1l5-1v7.4c0 .7.1 1.1.3 1.4.2.2.6.4 1.4.4v1.1zm-1.4-15c0 .5-.2.9-.5 1.2-.3.3-.8.5-1.2.5-.5 0-.9-.2-1.2-.5-.4-.4-.5-.8-.5-1.2 0-.5.2-.9.5-1.2.3-.3.8-.5 1.2-.5.5 0 .9.2 1.2.5.4.3.5.7.5 1.2zm14.2 15h-7V116h.5c.5 0 .8-.1 1-.2.2-.1.3-.3.4-.5 0-.2.1-.6.1-1V104c0-.6-.1-1-.4-1.1-.3-.2-.8-.2-1.6-.2v-1.1l5.1-1v13.8c0 .5 0 .8.1 1 0 .2.2.4.4.5.2.1.6.2 1 .2h.4v1zm12.8 0h-7V116h.5c.5 0 .8-.1 1-.2.2-.1.3-.3.4-.5 0-.2.1-.6.1-1V104c0-.6-.1-1-.4-1.1-.3-.2-.8-.2-1.6-.2v-1.1l5.1-1v13.8c0 .5 0 .8.1 1 0 .2.2.4.4.5.2.1.6.2 1 .2h.4v1z"/><path fill="none" d="M81.7 0v142.3"/></svg>