<svg xmlns="http://www.w3.org/2000/svg" viewBox="0 0 557.5 148.9"><g fill="#010101"><path d="M56.6.8c-7.1.1-14.3 1-21.2 2.5C19.2 6.8 6.8 15 2.2 32c-.9 3-1.5 6-2.2 9.1V62c.3 1.3.8 2.5 1 3.8C3.5 80.2 11 91 24.2 97.4c1.3.6 2.5 1.3 4 2.1-8.9 16.4-17.6 32.6-26.7 49.4 14.8 0 28.8.1 42.7-.1 1.3 0 3.1-1.6 3.8-2.9 6.9-12.3 13.5-24.8 20.3-37.2.8-1.5 2.3-3.6 3.5-3.6 8.2-.4 16.5-.2 25.3-.2v43.7h40.3V1c-1.3-.1-2.3-.3-3.3-.3-25.8 0-51.7-.2-77.5.1zM53 69c-6.3-.2-9.2-4.1-10.2-10.4-.2-1.5-.4-3-.4-4.5-.2-12.4 3-16.6 15.2-17.3 12.9-.7 25.8-.2 39.2-.2 0 11.4 0 22.2.1 32.6-14.8 0-29.4.3-43.9-.2zm92-68h41.4v147.7H145zm48.6 147.9h41.5V97.4h69.8V60h-69.4V38.4h69.4V1.1H193.6zM489.5.1c-18 0-35.7.2-53.3-.1-4.8-.1-5.7 1.6-5.7 6 .1 46 .1 91.9.1 137.9 0 1.6.2 3.2.3 4.8h42V42.2h16.7c0-14.4 0-28.1-.1-42.1zM312.2 38.6h69.4v21.6h-69.2v37.4h69.8v51.1h41.3V1H312.2zM497.3.5v41.7h18.6v106.6h41.6V.5z"/><path d="M479.5 60.3h29.4v36.5h-29.4z"/></g></svg>