<svg xmlns="http://www.w3.org/2000/svg" viewBox="0 0 410.1 154.2"><defs><clipPath id="a"><path fill="none" d="M0 0h400v147.81H0z"/></clipPath></defs><g clip-path="url(#a)"><text transform="translate(296.7 147.3)" font-size="34.04" fill="#634883" font-family="BentonSans-Regular, BentonSans" letter-spacing=".25em">2<tspan x="28.7" y="0" letter-spacing=".26em">018</tspan></text><path fill="#7773b5" d="M349.1 0l-51 112h51V0z"/><path fill="#6d4890" d="M349.1 0v112H400L349.1 0z"/><path fill="#68cbda" d="M8.3 93.7h85.2L50.9 0 8.3 93.7z"/><path fill="#616db3" d="M0 112h101.9l-8.4-18.3H8.3L0 112zm119.7-18.3h85.2L162.3 0l-42.6 93.7z"/><path fill="#68cbda" d="M111.3 112h101.9l-8.3-18.3h-85.2l-8.4 18.3z"/><path fill="#7773b5" d="M222.1 0h42.8v93.69h-42.8z"/><path fill="#68cbda" d="M222.1 93.7h42.8v18.36h-42.8z"/><path d="M265 0v93.7A46.9 46.9 0 0 0 265 0z" fill="#6d4890"/></g></svg>