<svg id="Layer_1" xmlns="http://www.w3.org/2000/svg" viewBox="0 0 334.4 135.8"><style>.st0{fill:#ec8523}.st1,.st2{stroke:#ec8523;stroke-width:5;stroke-miterlimit:10}.st1{stroke-linejoin:round;fill:none}.st2{fill:#ec8523}</style><path class="st0" d="M28.9 61v50.2h28.2V77.5h26.7V57.1H57.1L33 56.6m9.3-38.9h78.4l2.9 2.6 2.2 2.2.1 12.6-4.5 4.4-64.3-.1M97.7 61h28.1v53.7H97.7V61zm28.2 58.1s29.6.4 45 .4c8.8 0 15.9-.4 21.6-3.2 5.8-2.8 10.3-7 13.5-12.4 3.2-5.5 4.8-11.5 4.8-17.9 0-5.5.2-7.6-2.2-12-2.4-4.5-7.8-9-13.1-12.1-5.3-3-14.3-5.6-26.6-8.5-5-1.1-7.1-1.2-8.4-2.5-1.4-1.3-2.5-2.9-2.5-4.5 0-2.2-.2-4.2 1.5-5.8 1.7-1.5 4.9-1.4 8.1-1.4l75-.4V17h-72.8c-9.5 0-16.3.2-21.7 2.9-5.4 2.6-9.5 6.3-12.2 10.9s-4.1 9.5-4.1 14.7c0 7.9 2.6 14.4 7.9 19.5 5.2 5.1 14 9.2 26.3 12.3 7.5 1.8 12.3 3.8 14.4 5.9 2.1 2.1 3.1 4.4 3.1 7 0 2.8-1.1 5.2-3.2 7.3-2.2 2.1-5.3 3.1-9.3 3.1-5.4 0-8.3.2-13.4 0-4-.1-14.2-.4-27.6-.4"/><path class="st0" d="M223.6 53.2h54.3l.4-31.4 4.3-4.8 19.1.4 4.4 4.4v92.7l-23.9 4.5-4.3-4.7V78h-30.7l.2 36.5-4.4 4.5h-19.4l-4.4-4.5.1-56.9m3.6-23.7h-5V18.2h5"/><circle class="st0" cx="33.3" cy="111.2" r="4.4"/><circle class="st0" cx="52.6" cy="111.2" r="4.4"/><path class="st0" d="M33.3 104.8h19.3v10.9H33.3v-10.9z"/><circle class="st0" cx="102.1" cy="114.7" r="4.4"/><path class="st0" d="M102.1 108.2h23.8v10.9h-23.8v-10.9z"/><circle class="st0" cx="301.6" cy="114.5" r="4.4"/><path class="st0" d="M282.1 108.1h19.5V119h-19.5v-10.9z"/><ellipse class="st0" cx="222.9" cy="114.5" rx="3.7" ry="4.4"/><path class="st0" d="M222.9 108.1H243V119h-20.1v-10.9z"/><ellipse class="st0" cx="301.7" cy="21.8" rx="4.4" ry="4.4"/><ellipse class="st0" cx="282.6" cy="21.4" rx="4.4" ry="4.4"/><ellipse class="st0" cx="223.6" cy="57.6" rx="4.4" ry="4.4"/><ellipse class="st0" cx="243" cy="114.5" rx="4.4" ry="4.4"/><ellipse class="st0" cx="282.2" cy="114.5" rx="4.4" ry="4.4"/><ellipse class="st0" cx="243" cy="114.5" rx="4.4" ry="4.4"/><path class="st0" d="M288.4 17.4h13.2v10.9h-13.2V17.4z"/><ellipse class="st0" cx="242.7" cy="21.4" rx="4.4" ry="4.4"/><ellipse class="st0" cx="242.7" cy="34.2" rx="4.4" ry="4.4"/><path class="st0" d="M219.2 17.4h23.5v10.9h-23.5V17.4z"/><circle class="st0" cx="33.3" cy="22.1" r="4.4"/><circle class="st0" cx="33.3" cy="35.1" r="4.4"/><circle class="st0" cx="33.3" cy="61" r="4.4"/><path class="st0" d="M28.9 22.1h8.8V35h-8.8V22.1z"/><path class="st0" d="M33.3 17.7h23.8v10.9H33.3V17.7z"/><circle class="st0" cx="121.4" cy="22.1" r="4.4"/><circle class="st0" cx="121.4" cy="35.1" r="4.4"/><circle class="st0" cx="102.1" cy="61" r="4.4"/><circle class="st0" cx="121.4" cy="61" r="4.4"/><path class="st0" d="M97.7 17.7h23.8v10.9H97.7V17.7zm23.9 77.9h9.1v9.4h-9.1v-9.4z"/><circle class="st0" cx="130.3" cy="95.8" r="4.4"/><path class="st0" d="M273.5 48.7h9.4v9.1h-9.4v-9.1z"/><circle class="st0" cx="273.5" cy="48.7" r="4.4"/><circle class="st0" cx="251.6" cy="48.7" r="4.4"/><path class="st0" d="M102.1 56.6h19.3v4.9h-19.3v-4.9z"/><circle class="st0" cx="83.8" cy="61.5" r="4.4"/><circle class="st0" cx="83.8" cy="73.1" r="4.4"/><path class="st0" d="M83.3 73.8V63.6l4.9-1.8v12h-4.9zm163.9 9s.4-4.8 4.7-4.8v-2.4h-8.5v7.6l3.8-.4zm30.8 0s-.4-4.8-4.7-4.8v-2.4h8.5v7.6l-3.8-.4zm-220.9-.6s.4-4.8 4.7-4.8V75h-8.5v7.6l3.8-.4zm74.8 20l-10.2.1 4.2 16.8M33.3 17.7h23.8v21.8H33.3V17.7zm204.1 3.7h9.7v13.3h-9.7V21.4z"/><path class="st1" d="M323.7 78v55.3h-312V95.8"/><path class="st2" d="M11.7 113.2h-8l8-20.4v20.4z"/><path class="st1" d="M10.7 56.6V2.5h311.9V40"/><path class="st2" d="M322.6 20.6h8.1L322.6 41V20.6z"/><circle class="st1" cx="10.5" cy="64.4" r="5.8"/><circle class="st1" cx="323.7" cy="72.2" r="5.8"/></svg>