<svg xmlns="http://www.w3.org/2000/svg" viewBox="0 0 422.5 210.3"><path fill="#153E69" d="M46.5 146.4c-3.1-2.1-6.1-4.2-9.2-6.1l-5.6 5.6c2.9 2 5.9 4.1 8.9 6.3l5.9-5.8zM96.7 173c-8.6-2.7-16.9-6.2-24.7-10.6l-6.6 6.6c7.2 4.4 14.8 8.2 22.6 11.3 12.9 4.9 22.4 5 26.9.4 1.5-1.5 2.4-3.4 2.9-5.4-5.9 1-13 .1-21.1-2.3m20.6-97.5c-9.2-6.5-18.8-12.2-28.9-17.2 4.8 10.2 10.5 20 16.9 29.2l12-12zm49.9 26.5c-8.5-2.7-16.6-6.2-24.4-10.5L127 107.4c7.1 4.4 14.6 8.1 22.3 11.2 12.8 4.9 22.2 5 26.7.4 2.9-2.9 3.9-7.9 2.9-14.6-3.9-.4-7.9-1.2-11.7-2.4M59.9 61.2c-1.6-4-2.7-8.1-3.5-12.4-6.6-.2-11.8 1.4-15.1 4.8-1.8 1.8-3.2 4.1-3.9 6.6 5.3-.3 11.9 1.1 19.4 3.9 1.7.6 3.4 1.3 5.2 2.1-.8-1.6-1.5-3.3-2.1-5M113 9.7C99.3 5.6 88.8 6.3 83.2 12c-3.7 3.6-5.2 9.3-4.8 16.6 3.7.8 7.4 1.8 11 3.2 10.2 3.8 22.2 10.4 35.1 19.2l24.2-24.2c-13.1-8.1-25.3-14-35.7-17.1m-25.3 98.8l-27.3 27.3L0 196.2c3.8 2.5 7.8 5.1 11.8 8 3 2.1 6 4.2 8.9 6.1l61.1-61.1 20-20c-4-6.5-8.8-13.5-14.1-20.7"/><path fill="#153E69" d="M116.6 153c-5-13.1-14.4-29.3-27.4-46.6s-22.2-33.2-27-46-5-22.4-.4-26.9L77.2 18c-2 6.4-1.3 14.8 1.5 24.3 4.1 14 12.9 30.7 25.4 48.5s21.1 34.3 25.2 47.9 3.4 24.1-2.3 29.7l-7.1 7.1c1.4-5.7.1-13.4-3.3-22.5m74.1-112.7l22.9-22.9L196.2 0l-19 19c4.9 6.9 9.4 14 13.5 21.3"/><path fill="#153E69" d="M149.3 46.9l-42.9 42.9c4.9 6.9 9.4 14 13.5 21.3l43.5-43.5c-4.1-6.5-8.8-13.5-14.1-20.7"/><path fill="#153E69" d="M178 91.3c3.4 9 4.8 16.8 3.4 22.6l16.4-16.4c5.7-5.6 6.4-16.1 2.3-29.7S187.4 37.6 175 19.9c-1.3-1.8-2.5-3.6-3.7-5.4l-24.7 24.7c1.3 1.8 2.6 3.7 4 5.5 13 17.4 22.4 33.5 27.4 46.6M36.8 84.1c-2.8-9.6-3.5-17.9-1.5-24.3l-6.1 6.1c-4.6 4.4-4.5 14 .4 26.9 3.9 10.2 10.6 22.5 19.7 35.8l6.2-6.2c-9-14-15.3-27.1-18.7-38.3m-5.3 122.2c0-2.2 1.8-3.9 3.9-3.9 2.2 0 3.9 1.8 3.9 3.9 0 2.2-1.8 3.9-3.9 3.9s-3.9-1.7-3.9-3.9m.4 0c0 1.9 1.6 3.5 3.5 3.4s3.5-1.6 3.4-3.5c0-1.9-1.6-3.4-3.5-3.4-1.8 0-3.4 1.6-3.4 3.5m3.6.4h-.9v1.8H34v-4.4h1.6c1.1 0 1.6.5 1.6 1.3 0 .5-.3 1-.9 1.2l.9 1.9h-.8l-.9-1.8zm-.8-1.9v1.3h.8c.6 0 .9-.2.9-.7s-.3-.6-.9-.6h-.8zm350.7-43l7.5-21.7h.1l7.3 21.7h-14.9zm-21.3 24.4H377l4.9-14.2h21.7l4.7 14.2h14.2L400 122.3h-13.3l-22.6 63.9zm-32.2-33.5V134h9.5c8.8 0 12 3.4 12 9.3 0 6.1-3.3 9.5-12 9.5l-9.5-.1zm-14 33.5h13.9v-22.6h9c12.7 0 26.2-3.5 26.2-20.6 0-16.8-12.4-20.4-26-20.4h-23.1v63.6zm-45.1-24.4l7.5-21.7h.2l7.3 21.7h-15zm-21.3 24.4h12.9l4.9-14.2H291l4.7 14.2h14.2l-22.5-63.9h-13.3l-22.6 63.9zm-40.1-24.4l7.5-21.7h.2l7.3 21.7h-15zm-21.2 24.4h12.9L208 172h21.7l4.7 14.2h14.2l-22.5-63.9h-13.3l-22.6 63.9z"/></svg>