<?xml version="1.0" encoding="utf-8"?>
<!-- Generator: Adobe Illustrator 21.1.0, SVG Export Plug-In . SVG Version: 6.00 Build 0)  -->
<svg version="1.1" id="Layer_1" xmlns="http://www.w3.org/2000/svg" xmlns:xlink="http://www.w3.org/1999/xlink" x="0px" y="0px"
	 viewBox="0 0 419.9 267.4" style="enable-background:new 0 0 419.9 267.4;" xml:space="preserve">
<style type="text/css">
	.st0{fill:#2980B9;}
</style>
<g id="I">
	<path class="st0" d="M336.4,52.5c-8.9,0-16.7-4.1-21-10.3v161.3h42V42.2C353.1,48.4,345.3,52.5,336.4,52.5z"/>
	<circle class="st0" cx="336.4" cy="22.1" r="21.4"/>
</g>
<g id="a">
	<circle class="st0" cx="220.6" cy="121.5" r="21.4"/>
	<path class="st0" d="M220.6,48.4l-67,155.1h-22l86-201.7h6l86,201.7h-21.9L220.6,48.4z"/>
</g>
<path id="k" class="st0" d="M0,0h42v203.5H0V0z M69.2,76.8L126.6,0h-20.5L47,76.8v3.3l57.7,123.4h21.9L69.2,80.1"/>
<path class="st0" d="M218.8,259.3c0-5.9-0.4-11.5,0.2-17.1c0.2-1.8,2.6-4.2,4.6-4.9c14.8-5.3,29.4-5.2,43.4,2.7
	c17.6,9.9,34.9,9.7,52.6-0.1c14.3-8,29.3-8.3,43.9-0.8c11,5.6,22.1,9.7,34.8,8.2c8-0.9,15.1-3.4,21.4-10.2c0,6.7,0.8,12.4-0.2,17.8
	s-6,8.3-11.1,9.8c-13.8,4.2-27.4,3.9-40-3.4c-13.7-7.9-27.8-9.4-42.7-4.5c-2.3,0.8-4.6,1.9-6.8,3.1c-17,9.9-34.1,9.9-51.2,0.4
	c-12.1-6.7-24.8-7.9-38.1-5.1C226.1,256,222.8,257.7,218.8,259.3L218.8,259.3z"/>
</svg>
