<svg xmlns="http://www.w3.org/2000/svg" viewBox="0 0 358 225.8"><radialGradient id="a" cx="227.25" cy="114.65" r="82.481" gradientTransform="matrix(1 0 0 -1 0 226)" gradientUnits="userSpaceOnUse"><stop offset="0" stop-color="#e3cd00"/><stop offset="1" stop-color="#f39d00"/></radialGradient><path fill="url(#a)" d="M262 0v116.3l-1.5.9c-19.2-22-38.4-44-58.5-67.1v172.6h-9.5V27.5c.4-.3.9-.6 1.3-.9C213.2 49 232.6 71.3 253 94.8V0h9z"/><path d="M311.1 132.6c-26.2-.1-46.4 20.4-46.4 47.1 0 26 20.4 46.1 46.8 46.1 26.1 0 46.5-20.4 46.5-46.6 0-26.4-20.2-46.5-46.9-46.6zm.3 84.3c-21.4.1-37.5-16.1-37.5-37.6 0-21.2 16.5-38.1 37.4-38.2 20.9.1 37.6 16.9 37.6 37.9 0 21.4-16.4 37.9-37.5 37.9zm-50.6-81.8h-47.9v8.6h19.5v79.6h8.8v-79.6h19.6zm-82.1 0h-47.9v8.6h19.6v79.6h8.8v-79.6h19.5zM129.2 33.7c20.9 0 37.9 17 37.9 37.9s-17 37.8-37.9 37.8-37.8-17-37.8-37.8 17-37.9 37.8-37.9m0-8.7c-25.7 0-46.6 20.9-46.6 46.6s20.9 46.6 46.6 46.6 46.6-20.9 46.6-46.6S155 25 129.2 25z"/><path d="M311.3 141.3c20.9 0 37.9 17 37.9 37.9s-17 37.8-37.9 37.8-37.9-17-37.9-37.8 17-37.9 37.9-37.9m0-8.7c-25.7 0-46.6 20.9-46.6 46.6s20.9 46.6 46.6 46.6 46.6-20.9 46.6-46.6-20.8-46.6-46.6-46.6zM34.9 27.8c-11.5-1-23.2-.6-34.9-.9v51c2.7-.3 5.5-.5 8.8-.8V35.2c10.2.7 20 .6 29.4 2.2 14 2.3 22.9 11.1 25.9 25 1.1 5.1 1.2 10.6.8 15.8-1.2 14.9-11.4 25.7-26.2 27.8-7.7 1.1-15.6 1.2-23.3 1.7v8.6c9.2-.6 18.1-.4 26.8-1.7 18.3-2.7 29.8-16.5 32.2-37.4 3.1-26.7-13-47.1-39.5-49.4z"/></svg>