<svg xmlns="http://www.w3.org/2000/svg" viewBox="0 0 412.2 75"><path fill="#010101" d="M215.1 32.4l-2.2 1.1c-.9.3-1.7.8-2.6 1.2s-1.8.9-2.6 1.4c-.8.6-1.4 1.2-2 1.9-.6.7-.8 1.4-.9 2.3.4-.4 1-.7 1.7-.9.7-.2 1.3-.3 2.1-.6.8-.1 1.4-.3 2.2-.6.8-.2 1.4-.7 2.2-1.1.7-.6 1.3-1.2 1.9-2.2.6-.9 1.1-2.2 1.4-3.8-.2.5-.6.8-1.2 1.3zm-33.7-1.8c-.7 3.7 3.2 4 8.7.3 5.5-3.7 10-8.2 14.6-11.6 0 0-2.9.2-5.5 1.6-2.4 1.3-10.9 9-13.8 10.6-2.9 1.4-4-.9-4-.9zm46.9 10.2c.7-3.7-3.2-4-8.7-.3-5.5 3.7-10 8.2-14.6 11.6 0 0 2.9-.2 5.5-1.6 2.4-1.3 10.9-9 13.8-10.6 3-1.4 4 .9 4 .9z"/><path fill="#010101" d="M230.3 37.9c-1-3.7-5.2-3.9-8.7-2.6-2.8 1.1-5.6 3.2-8 5.3-.3.2-.6.4-.9.7-.2.2-.4.4-.8.7v-.3c.1-.8-.1-1.3-.6-1.8s-1.1-.7-2.1-.7-2.2.3-3.7.9c.2 0 .4.1.7.4.2.3.2.7.3 1.1v1.6l-.3 1.7c-.2.6-.4 1-.7 1.4-.3.4-.7.7-1 .8-.6.2-1 .1-1.3-.1-.3-.3-.6-.8-.7-1.4-.1-.7 0-1.4.1-2.3.2-.9.4-1.8.9-2.8.4-.9 1-1.9 1.7-2.8s1.4-1.7 2.4-2.3c.4-.3.8-.7.8-.9 0-.2-.2-.2-.8 0-.9.4-1.6.4-2 .1-.4-.3-.7-.9-.8-1.7-.1-.8-.1-1.7.1-2.8.2-1 .4-2.1.9-3.1.4-1 .9-1.9 1.4-2.7.6-.8 1.2-1.3 1.8-1.6.4-.1.7 0 .8.3.1.3.2.8.1 1.4 0 .7-.2 1.3-.3 2.1l-.7 2.3c-.2.8-.6 1.4-.9 2-.3.7-.7 1-.9 1.3.6 0 1.1 0 1.7-.1 1.8 0 6.5-2.9 7.2-6.7.2-.9.1-2-.1-2.8-1.1-4.1-5.8-4.3-9.7-2.9-3.1 1.2-6.2 3.7-8.9 6-.3.2-.7.6-1 .8-4 3.2-7.1 6.5-10.8 7.3-3.8 1-6.5-.7-5.9-3.7.7-3.3 3.1-4.3 4.9-4.5-.6.3-.9.9-.9 1.6 0 .8.7 1.3 1.4 1.2.8-.2 1.4-1 1.4-1.8 0-.1 0-.3-.1-.4v-.2c-.2-.3-.7-.9-2.1-1-1.8 0-5.2 1.6-6.1 5.2-.2.9-.1 2 .1 2.8 1.1 4.1 5.8 4.3 9.7 2.9 3.1-1.2 6.2-3.7 8.9-6 .3-.2.7-.6 1-.8 1-.9 2-1.7 3-2.6-.6.7-1 1.3-1.3 2-.6 1-.9 1.9-1 2.8-.2.9-.2 1.7 0 2.4.1.8.4 1.3 1 1.8.3.2.7.4 1 .6.3.1.7.1.9.1.3 0 .6-.1.9-.1-.2.2-.4.3-.7.4-.2.1-.6.2-.8.4-.3.1-.6.3-1 .6-.3.2-.7.4-1 .8-.7.7-1.2 1.4-1.7 2.3-.4.9-.7 1.8-.8 2.7-.1.6-.1 1 0 1.4-.1.7 0 1.4.1 2.1 1 3.7 5.2 3.9 8.7 2.6 2.8-1.1 5.6-3.2 8-5.3.3-.2.6-.4.9-.7 3.6-2.9 6.3-5.8 9.7-6.6 3.4-.9 5.8.6 5.2 3.2-.7 3.1-3 4-4.6 4 .6-.2 1-.9 1-1.4 0-.8-.6-1.2-1.3-1-.8.1-1.3.9-1.3 1.6 0 .1.1.4.1.4 0 .2.4 1 2 1.1 1.6 0 4.7-1.3 5.5-4.7.3-.3.3-1.3 0-2z"/><path fill="#010101" d="M280.2 14.6l11.5 57.6h-10.3l-2-12.5h-9.6l-2.4 12.5h-10.6l13-57.6h10.4zm-1.3 46l.2 1.2h-6.9l-2.4 12.5h-10.6l.2-1.3h8.8l2.4-12.5h8.2l.1.1zm-6.6-11h5l-2.4-11.1-2.6 11.1zm2.6-6.3l.8 3.7-.4 1.9h-1.7l1.3-5.6zm7.7-26.5l11.5 57.6h-10.3l-.2-1.3h9.2l-11.1-56.3h.9zm56.9-2.3v57.8h-9.8V40.7L322.5 62l.1.2h-9.2l.1-.2-7.2-21.3v31.5h-9.8V14.5h9.8L318 48.9l11.8-34.4h9.7zm-32.2 33.1c.2.7.4 1.2.7 1.9.2.6.4 1.2.7 1.9v23.1h-9.8v-1.3h8.5l-.1-25.6zm10.3-2.1l-9.8-28.8h.9l9.3 27.6-.4 1.2zm7.3 18.7l.1.1h-9.1l.1-.1-.3-1.1h8l-.1-.1 5.1-14.9v5.2l-3.8 10.9zM342 16.7v57.8h-10v-1.3h8.5V16.7h1.5zm33.6 55.5h-28V14.6h28v9.9h-18.2v16.7h11.4v7.9h-11.4v13.6h18.1v9.6h.1zm1.1-7.2h1.3v9.5h-28v-1.3h26.6V65h.1zm1.3-48.2v9.9h-18.1v13h-1.3V25.5h18.1v-8.7h1.3zm-6.9 26.6v7.9h-11.2v10.6h-1.3V50.1h11.2v-6.7h1.3zM240.5 72.2h5.3c1.8 0 3-.4 3.3-1.2.4-.9.7-1.8.7-2.8V14.5H240v45.8c0 .7-.1 1.1-.3 1.4s-.7.4-1.4.4h-4.9c-.8 0-1.3-.1-1.6-.4-.2-.3-.3-.8-.3-1.4v-7.6l-9.8 2.7v12.8c0 1 .2 2 .7 2.8.4.9 1.6 1.2 3.3 1.2h14.8z"/><path fill="#010101" d="M232.7 54.6h1.3v5.9h-1.3v-5.9z"/><path fill="#010101" d="M250.9 16.7V69c0 .6 0 1-.1 1.6-.1.4-.2.9-.6 1.3-.3.3-.7.7-1.2.9-.6.2-1.2.3-2.1.3h-20.1c-1 0-1.7-.1-2.1-.3.3.4.7.9 1.2 1.2.6.3 1.3.4 2.4.4h19.9c.9 0 1.7-.1 2.2-.3.6-.2.9-.6 1.2-.9.2-.4.4-.9.6-1.3.1-.4.1-1 .1-1.6V16.7h-1.4zm159.8 2.8V29l1.3-.3v-7.9c0-.8-.1-1.6-.3-2.2-.2-.7-.7-1.2-1.6-1.4.2.3.3.8.3 1.2.3.3.3.7.3 1.1zM393 25.7c-.2.3-.3.8-.3 1.4v9h1.3v-7.8c0-.7.1-1.1.3-1.4.2-.3.7-.4 1.6-.4h2.9v-1.2h-4.3c-.8.1-1.4.2-1.5.4zm5.8 22.6H387c-.8 0-1.6-.1-2.2-.4.3.4.7.9 1.2 1.2.6.3 1.3.4 2.3.4h10.5v-1.2zm11.5-8.2c.2.3.3.8.3 1.2.1.4.1.9.1 1.2v26c0 .6 0 1-.1 1.4-.1.4-.2.9-.6 1.3-.2.4-.7.7-1.2.9-.6.2-1.2.3-2.1.3H387c-.8 0-1.6-.1-2.2-.4.3.4.7.9 1.2 1.2.6.3 1.3.4 2.3.4h19.8c1.8 0 2.9-.4 3.3-1.2.4-.9.7-1.8.7-2.8v-26c0-.8-.1-1.6-.3-2.2-.2-.6-.7-1-1.5-1.3z"/><path fill="#010101" d="M392.7 55.9h1.3v4.7h-1.3v-4.7z"/><path fill="#010101" d="M409.7 29.3V18.6c0-.6 0-1-.1-1.4-.1-.4-.2-.9-.6-1.3-.2-.4-.7-.7-1.1-.9-.6-.2-1.2-.3-2.1-.3h-19.9c-.9 0-1.7.1-2.1.3-.6.2-.9.6-1.1.9-.2.4-.4.8-.6 1.3-.1.4-.1 1-.1 1.4v24.7c0 .6 0 1 .1 1.6.1.4.2.9.6 1.3.2.3.7.7 1.1.9.6.2 1.2.3 2.1.3h12.4c.8 0 1.3.1 1.4.4.2.3.3.8.3 1.4V60c0 .7-.1 1.1-.3 1.4-.2.3-.7.4-1.4.4h-4.8c-.8 0-1.2-.1-1.4-.4-.2-.3-.3-.8-.3-1.4v-5.7L382 57v10.8c0 .6 0 1 .1 1.6.1.4.2.9.6 1.3.2.3.7.7 1.1.9.6.2 1.2.3 2.1.3h19.8c.9 0 1.7-.1 2.1-.3.6-.2.9-.6 1.1-.9s.4-.8.6-1.3c.1-.4.1-1 .1-1.6V41.5c0-.6 0-1-.1-1.4-.1-.4-.2-.9-.6-1.3-.3-.4-.7-.7-1.1-.9-.6-.2-1.2-.3-2.1-.3h-12.4c-.8 0-1.3-.1-1.4-.4-.2-.3-.3-.8-.3-1.3v-9.5c0-.7.1-1.1.3-1.4.2-.3.7-.4 1.4-.4h4.7c.8 0 1.2.1 1.4.4.2.3.3.8.3 1.4V32l10-2.7zM124 4c-1.7-2.6-5.7-4-10.5-4-5.1 0-10.6 1.3-14.9 3.1-4.2 1.7-9.1 4.3-14.5 8.1-1.8-.3-3.8-.4-5.9-.4-15.6 0-36.4 5.9-53.5 18.4C6.9 42.3 0 54.9 0 63.5 0 71.8 6.6 75 15.9 75c17.5 0 33.8-15.8 47.6-34.6C71.3 30 76.7 22.8 82.2 17.2c1-1.2 2.2-2.2 3.4-3.4 3.4 2.1 4.6 5.9 3.3 10.7-1.7 6.9-8.5 12.8-14.9 13.7-1.3-.1-2.6-.4-4.6-.4-1.4 0-3.9.1-4 1.2-.1.9 1.7 1.2 3.6 1.2 1.7 0 2.6-.1 4.3-.4 2.9-.3 9.1 2.1 8.7 9.5-.6 12.4-11.9 23-21.7 23-2.7 0-6.1-1-5.7-3.6.3-1.7 2.1-2.4 3.6-3 1.8-.8 3.9-2 3.9-4.3 0-2.4-2.1-3.6-4.7-3.6-4.6 0-9.3 3.6-9.3 8.5 0 5.7 6.5 7.3 12.1 7.3 15.1 0 28.8-8.9 29.5-21.5.6-6.3-3.8-11.7-13-13.1v-.1c7.2-1.1 17.8-6.1 19.1-14.4 1.2-6.1-2.7-10.2-8.2-12.4 4.2-3.4 8.5-6.1 11.9-7.7 4.6-2.1 9.8-3.3 14.1-3.3 4.6 0 8.1 1.4 9.8 3.4.4.4.6.9.9.8.3-.1.1-.5-.3-1.3zM78.4 15.5c-7 5.7-18 16.4-27.8 29.2-11.6 15.2-21 29-34.8 29-6.6 0-9.8-4-9.8-9.9 0-7.8 5-20.9 21.4-33.5 15.9-12.1 35.6-18 50.1-18 1.8 0 3.4.1 4.8.4-1.3.9-2.6 1.8-3.9 2.8zM212.5 1.2c-10.5.2-23.7 8.7-31.6 15-9.7 7.8-17 14.7-25.8 25-3.1 3.7-8.2 10.2-10 12.5-2.8 2.7-5.8 5.5-7.3 6.8-1.8 1.7-4 3.6-6.3 5.3-1.8 1.3-3.9 2.8-5 3.4s-3 1.3-3.9.8c-.9-.8-.3-2.1.1-3.4.6-1.2 1.6-2.9 2.2-4 3.8-5.6 9.1-13.5 17.6-23.7 5.3-6.5 15-18 21.4-21-.1-.6-.7-1-1.9-.9-1.7.1-3.8.9-7.7 3.9-4.1 3.1-10.1 9-14.4 13.9-7.5 8.6-13.8 16.7-15.6 18.9-3.1 2.7-7.6 6.6-8.1 7.1l-.1.1c-2 1.8-5.3 4.5-7.7 6.1-5.6 3.8-9.9 4.7-11.5 4.7h-.1c-1.8 0-2.8-1-2.8-2.9 0-.8.2-1.9.8-2.9 2.9-.8 7.2-2.2 10.9-4 3.8-1.9 7.8-4.5 8.1-7.7.1-1.7-.9-3.4-3.7-3.4-4.7 0-11.6 3.4-15.8 6.8-3.1 2.4-6.7 6.7-6.8 10.9-.1 3.3 2.2 5.2 6.8 5.2 4.3 0 9.5-1.9 14.8-5.5 2.2-1.6 5.8-4.6 7.5-6 .3-.2.6-.4.7-.7 1.3-1.2 3.2-2.9 5-4.5h.1c-1.8 2.1-3.4 4.6-4.7 6.7-1.3 2.2-2.2 4.5-2.4 6.2-.1 2.2 1.3 3.4 3.8 3.4h.1c4.1 0 8.7-3 11.4-5 2.8-2.1 6.1-5 7.6-6.5 1.2-1.1 3.3-3 5.3-4.8l.1.1c-3.8 4.8-7.1 9.7-7.2 12.8-.1 2.2 1.3 3.4 3.9 3.4 4.1 0 8.8-3.1 11.4-5 2.7-2 5.5-4.5 7.1-6 .7-.7 1.4-1.3 1.8-1.6l.1.1c-2.6 3-3.7 5.3-3.8 7.8-.1 3.3 2 5 6.7 5 4.3 0 9-1.7 14.2-5.2 2.2-1.6 6.3-4.8 8-6.3.8-.7 1.2-1.2 1-1.7-.2-.2-.7-.1-1.3.6-2.4 2.1-5.3 4.5-7.7 6.1-5.6 3.8-9.9 4.7-11.5 4.7-1.9 0-2.9-1-2.9-2.9 0-.8.2-1.9.8-2.9 2.9-.8 7.2-2.2 10.9-4 3.8-1.9 7.8-4.5 8.1-7.7.1-1.7-.9-3.4-3.7-3.4h-.3c-3.4 0-7.2 1.7-10.9 3.6-2.4 1.2-4.8 2.8-6.2 3.8-1.9 1.3-3 2.2-4.7 3.8l-.3.3c-1.2 1.1-2.7 2.2-4.3 3.6-1.8 1.3-3.6 2.7-5.2 3.6-1.1.7-3 1.3-3.9.8-.8-.6-.3-2 .2-3.4.6-1.1 1.3-2.8 2.1-4 3.4-5.6 10.8-16.1 15.5-22 7.2-9.1 15.6-17.9 21-23.1 6.3-5.9 16.9-13.1 28.7-13.4 10.5-.2 15.8 3.8 15.8 9.7 0 2-.6 4.1-1.9 5.8-.7.8-1.1 1-1 1.2s.8-.1 1.6-.9c1.3-1.6 2.9-4 2.9-7.3-.2-6.8-7-12-16.1-11.8zM102.2 56.1c2.6-2.4 4.5-3.7 5.6-3.7s1.7.7 1.6 1.8c-.1 1.8-2 4.5-5.2 6.6-2.7 1.8-6.1 3.1-8.6 3.8 1.4-2.6 4.5-6.6 6.6-8.5zm69.3 0c2.6-2.4 4.5-3.7 5.6-3.7 1.1 0 1.7.7 1.6 1.8-.1 1.8-2 4.5-5.2 6.6-2.7 1.8-6.1 3.1-8.6 3.8 1.3-2.6 4.6-6.6 6.6-8.5z"/></svg>