<svg xmlns="http://www.w3.org/2000/svg" viewBox="0 0 960 960"><path d="M0 0h960v960H0V0zm916.8 480.5c0-144 0-288 .1-431.9 0-4-.8-5.4-5.1-5.4-287.8.1-575.6.1-863.4 0-4.3 0-5.2 1.4-5.2 5.4.1 287.6.1 575.3 0 862.9 0 4 .8 5.4 5.1 5.4 287.8-.1 575.6-.1 863.4 0 4.3 0 5.2-1.4 5.2-5.4-.1-143.7-.1-287.3-.1-431z"/><path d="M605.4 480.8c-11-22-21.6-43.4-32.7-65.7-10.9 22.4-21.4 43.9-32.4 66.3-4.4-9-8.4-17.1-12.5-25.3-21.4-43.6-42.9-87.2-64.2-130.9-1.6-3.4-3.5-4.8-7.2-4.3-5.1.6-11.3-2.2-14.3 4.6 3.4 6.6 7.2 13.1 10.1 19.9 15.8 38.1 3.2 83.2-29.9 107.9-34 25.4-80.2 24.8-112.7-1.5-16.4-13.2-27-30.1-32.1-50.5-.9-3.5-2.1-4.6-5.6-4.4-5.3.3-11.8-1.7-15.6.8-3.4 2.1-3.7 9-5.5 13.7-14.3 37.5-47.7 60.5-88 60.5h-54.4V288c1.7-.1 3.4-.3 5.2-.3h51c42.7 0 79.8 29.5 89.3 71.2.9 3.8 2.1 5.4 6.1 5 5-.4 11.2 1.6 14.6-.7 3.2-2.2 3.6-8.7 5.1-13.3 18.4-54.1 81-78.4 131.2-51 2 1.1 4.1 2.2 6.4 3.6 3.9-4.1 7.6-8.3 11.8-12.2 1.5-1.4 4-2.5 6-2.6 14-.2 28 0 42-.2 3.9-.1 5.8 1.3 7.5 4.8 17.8 36.5 35.8 72.9 53.7 109.4.4.9.9 1.7 1.9 3.4 4.6-9.4 9.1-18 13.1-26.8.6-1.3-.6-3.8-1.5-5.5-12.6-25.9-25.3-51.7-37.9-77.6-1.1-2.2-2.1-4.5-3.4-7.4 11.9 0 23.2-.1 34.4.2 1.3 0 2.9 1.9 3.6 3.3 7.9 15.8 15.7 31.6 23.9 48.3 1-1.9 1.8-3.2 2.5-4.6 7.2-14.6 14.4-29.3 21.8-43.8.7-1.4 2.7-3.2 4.1-3.2 11.1-.3 22.3-.1 34.3-.1-3.6 7.5-7 14.5-10.4 21.4-10.6 21.5-21.1 43-31.8 64.5-1.4 2.8-1.5 5 0 7.9 4 7.8 7.7 15.7 12 24.4 1-1.8 1.6-2.9 2.1-4 18-36.6 36.1-73.1 54-109.8 1.7-3.5 3.7-4.7 7.6-4.6 13.5.2 27 .2 40.5 0 3.8-.1 6.5 1.1 9.2 3.8 32 32.3 64.2 64.5 96.3 96.7 1.1 1.1 2.3 2.2 4.3 4v-104h32.6v183.1c-34.3-34.7-68.3-69.1-102.4-103.6-.7.5-1.3.9-2 1.4v102.7h-32.8v-6.2c0-41.5-.1-83 .1-124.5 0-4.2-.8-7.5-4.2-10-.9-.7-1.9-1.5-2.5-2.5-5-8.1-12.9-8.5-21-7.4-1.6.2-3.6 2.1-4.4 3.7-11.9 23.8-23.6 47.8-35.3 71.7-13 26.4-26 52.9-39 79.3-.6 1.3-1.4 2.7-2.6 4.9zM393.9 327.6c-15.8-10.2-49.4-12.3-71.7 13.2-16.6 18.9-19.6 52.7-5.8 68.6 25.8-27.2 51.5-54.4 77.5-81.8zm24.1 22.8c-26.1 27.5-51.7 54.6-77.5 81.9 17.5 10.4 47.4 9.7 67.4-9.9 19.6-19.1 24.1-49.2 10.1-72zm-197.3 13.2c-.6-5.7-4.8-14.2-10.1-20.8-18.2-22.8-43.3-23.9-69.4-21.8v42.7c26.8-.1 53.1-.1 79.5-.1zm-79.3 33.6v41.6c53.1 5.3 72.7-19.1 79.1-41.6h-79.1zM563.7 85.8c17.3 35.1 34.1 69.4 51.2 104.1 1.6-.7 3.1-1.3 4.5-2.1 16.1-8.7 32.2-17.5 48.4-26 2.8-1.5 6.3-2.3 9.4-2.3 14-.2 28-.1 42-.1h5.7v-40.5h-56.8V86.2h147v32.5h-56.8v40.7h18c11.7 0 23.3.1 35 0 2.8 0 4 .9 4 3.6v29.5h-57.1v77.2h-32.7v-76.6c-2.1-.1-3.7-.3-5.3-.3-7.2 0-14.4.6-21.5-.1-13-1.3-24.3 2.2-35.3 9.2-10.7 6.8-22 12.3-33.5 18.6 8 16.5 15.9 32.7 24.2 49.6-10.6 0-20.3.1-30.1-.2-1.3 0-2.9-1.9-3.6-3.3-4.4-8.4-8.5-17-12.7-25.5-1.1-2.2-2.4-4.3-3.8-6.9-10.9 5.9-21.8 11.3-32 17.7-6.1 3.9-10.7 3.5-16.6-.1-10.2-6.2-20.9-11.6-32.2-17.7l-13.9 27.8c-.2.4-.4.9-.6 1.4-1.6 5.4-4.8 7.4-10.6 6.9-7.9-.6-16-.2-25-.2 8.3-16.9 16.2-33.1 24.4-49.8-7.3-4-14.3-7.8-21.3-11.6-9.7-5.2-18.8-12.4-29.2-15.1-10.2-2.6-21.5-.8-32.3-.8h-42.7V237h82.2v32.7H338.4v-76.6h-27.3c1.1 4.5 2.5 8.9 3.2 13.4 5.4 32-19.3 62.7-51.7 63.3-31.8.6-63.7.1-95.5.1-.6 0-1.3-.2-2.1-.3V86c1.5-.1 3.1-.2 4.7-.2 26.5 0 53-.1 79.5.1 37.4.2 63.1 35.3 52.2 71.2-.1.5-.2 1-.3 1.8h37V86.1h116.1v32.7H372v40.5h5.7c24.2 0 48.3-.1 72.5.1 2.5 0 5.3.7 7.5 1.9 17.9 9.5 35.7 19.2 54.2 29.2 17.4-34.8 34.4-69.3 51.8-104.7zm-366 150.9c21.4 0 42.2.1 63-.1 2.7 0 5.6-.9 8.2-2 9.5-4.3 14.3-14.4 12.1-24.9-1.9-9.4-10.8-16.9-20.8-16.9-20.2-.2-40.3-.1-60.5 0-.6 0-1.2.3-2 .4v43.5zm.1-118V159c1.5.1 2.6.3 3.8.3 17.1 0 34.3.1 51.4 0 12.4-.1 21.1-8.6 21.1-20.4 0-11.7-8.9-20.1-21.3-20.2-14.5-.1-29 0-43.4 0h-11.6zm339.8 85.5c8.5 4.6 16.6 9 24.8 13.4.6.3 1.7.4 2.3.1 8.3-4.5 16.5-9 24.9-13.6-8.7-17.7-17.1-34.9-25.8-52.8-9 18-17.5 35.2-26.2 52.9zM415.9 672.8v-74.6h-75.7v74.5h-32.8V598h-57.2v-33.1h56.7V522h-56.8v-32.7h147.1v32.4h-56.9v42.8h75.3v-75.1h33.1v5.7c0 21.3.1 42.7-.1 64 0 3.9.9 6.3 4.6 8.2 11 5.6 21.7 11.6 32.5 17.5 2.6 1.4 4.7 1.6 7.4.1 10.7-6.1 21.5-12 32.4-17.8 3.2-1.7 4.4-3.6 4.4-7.4-.2-21.7-.1-43.3-.1-65v-5.3h32.7v75h31.3v-75.1h115.8V522c-1.6.1-3.4.2-5.1.2-24 0-48 .1-72-.1-4 0-5.6.8-5.4 5.2.3 10.8.1 21.7.1 32.5 0 1.5.2 2.9.3 4.9h82.2V598h-82.3v42.3h82.3v32.6H594.1v-74.6h-31.4v74.5h-32.9v-70.6c-9.3 5.1-18.2 8.9-25.9 14.5-10.1 7.4-18.8 7.3-29 .1-7.8-5.5-16.8-9.4-26.1-14.5v70.5h-32.9zm-120.4 18h32.4v75.3c3.1-3.6 5.3-5.9 7.3-8.4 17.8-21.3 35.6-42.7 53.5-64 1.2-1.4 3.1-3 4.7-3.1 13.1-.2 26.2-.1 40.8-.1-26.2 31.2-51.6 61.5-77.2 92.1 8.4 10 16.7 19.9 25 29.9 7.2 8.6 14.2 17.2 21.5 25.7 1.2 1.4 3.1 3 4.7 3.1 14.5.2 28.9.1 44 .1V690.8c2.1-.1 3.7-.3 5.3-.3h114c46 0 83 30.3 92.1 75.4 10.4 51.8-28.7 104.4-81.5 108.1-21.4 1.5-42.9.2-65.1.2V724.1h-31.5v150.7h-6.3c-27.5 0-55-.1-82.5.1-4 0-6.4-1.3-8.8-4.3-18.6-22.4-37.4-44.8-56.1-67.1-.9-1.1-1.9-2.1-3.7-4v75h-32.6V690.8zM550 841.1c10.9 0 21.7 1.2 32.1-.3 22.8-3.2 38.9-16.3 46.7-38 7.7-21.4 3.9-41.4-10.8-58.9-18.1-21.6-42.5-22.1-67.9-20.2-.1 39.3-.1 78.5-.1 117.4z"/></svg>