<?xml version="1.0" encoding="utf-8"?>
<!-- Generator: Adobe Illustrator 21.1.0, SVG Export Plug-In . SVG Version: 6.00 Build 0)  -->
<svg version="1.1" id="Layer_1" xmlns="http://www.w3.org/2000/svg" xmlns:xlink="http://www.w3.org/1999/xlink" x="0px" y="0px"
	 viewBox="0 0 334.4 135.8" style="enable-background:new 0 0 334.4 135.8;" xml:space="preserve">
<style type="text/css">
	.st0{fill:#EC8523;}
	.st1{fill:none;stroke:#EC8523;stroke-width:5;stroke-linejoin:round;stroke-miterlimit:10;}
	.st2{fill:#EC8523;stroke:#EC8523;stroke-width:5;stroke-miterlimit:10;}
</style>
<path class="st0" d="M28.9,61v50.2h28.2V77.5h26.7V57.1H57.1L33,56.6 M42.3,17.7h78.4l2.9,2.6l2.2,2.2l0.1,12.6l-4.5,4.4l-64.3-0.1
	 M97.7,61h28.1v53.7H97.7V61z M125.9,119.1c0,0,29.6,0.4,45,0.4c8.8,0,15.9-0.4,21.6-3.2c5.8-2.8,10.3-7,13.5-12.4
	c3.2-5.5,4.8-11.5,4.8-17.9c0-5.5,0.2-7.6-2.2-12c-2.4-4.5-7.8-9-13.1-12.1c-5.3-3-14.3-5.6-26.6-8.5c-5-1.1-7.1-1.2-8.4-2.5
	c-1.4-1.3-2.5-2.9-2.5-4.5c0-2.2-0.2-4.2,1.5-5.8c1.7-1.5,4.9-1.4,8.1-1.4l75-0.4V17h-72.8c-9.5,0-16.3,0.2-21.7,2.9
	c-5.4,2.6-9.5,6.3-12.2,10.9s-4.1,9.5-4.1,14.7c0,7.9,2.6,14.4,7.9,19.5c5.2,5.1,14,9.2,26.3,12.3c7.5,1.8,12.3,3.8,14.4,5.9
	c2.1,2.1,3.1,4.4,3.1,7c0,2.8-1.1,5.2-3.2,7.3c-2.2,2.1-5.3,3.1-9.3,3.1c-5.4,0-8.3,0.2-13.4,0c-4-0.1-14.2-0.4-27.6-0.4"/>
<path class="st0" d="M223.6,53.2h54.3l0.4-31.4l4.3-4.8l19.1,0.4l4.4,4.4v92.7l-23.9,4.5l-4.3-4.7V78h-30.7l0.2,36.5L243,119h-19.4
	l-4.4-4.5l0.1-56.9 M222.9,33.9h-5V18.2h5"/>
<circle class="st0" cx="33.3" cy="111.2" r="4.4"/>
<circle class="st0" cx="52.6" cy="111.2" r="4.4"/>
<path class="st0" d="M33.3,104.8h19.3v10.9H33.3V104.8z"/>
<circle class="st0" cx="102.1" cy="114.7" r="4.4"/>
<path class="st0" d="M102.1,108.2h23.8v10.9h-23.8L102.1,108.2z"/>
<circle class="st0" cx="301.6" cy="114.5" r="4.4"/>
<path class="st0" d="M282.1,108.1h19.5V119h-19.5V108.1z"/>
<ellipse class="st0" cx="222.9" cy="114.5" rx="3.7" ry="4.4"/>
<path class="st0" d="M222.9,108.1H243V119h-20.1V108.1z"/>
<ellipse class="st0" cx="301.7" cy="21.8" rx="4.4" ry="4.4"/>
<ellipse class="st0" cx="282.6" cy="21.4" rx="4.4" ry="4.4"/>
<ellipse class="st0" cx="223.6" cy="57.6" rx="4.4" ry="4.4"/>
<ellipse class="st0" cx="243" cy="114.5" rx="4.4" ry="4.4"/>
<ellipse class="st0" cx="282.2" cy="114.5" rx="4.4" ry="4.4"/>
<ellipse class="st0" cx="243" cy="114.5" rx="4.4" ry="4.4"/>
<path class="st0" d="M288.4,17.4h13.2v10.9h-13.2V17.4z"/>
<ellipse class="st0" cx="242.7" cy="21.4" rx="4.4" ry="4.4"/>
<ellipse class="st0" cx="242.7" cy="34.2" rx="4.4" ry="4.4"/>
<path class="st0" d="M219.2,17.4h23.5v10.9h-23.5V17.4z"/>
<circle class="st0" cx="33.3" cy="22.1" r="4.4"/>
<circle class="st0" cx="33.3" cy="35.1" r="4.4"/>
<circle class="st0" cx="33.3" cy="61" r="4.4"/>
<path class="st0" d="M28.9,22.1h8.8V35h-8.8L28.9,22.1z"/>
<path class="st0" d="M33.3,17.7h23.8v10.9H33.3V17.7z"/>
<circle class="st0" cx="121.4" cy="22.1" r="4.4"/>
<circle class="st0" cx="121.4" cy="35.1" r="4.4"/>
<circle class="st0" cx="102.1" cy="61" r="4.4"/>
<circle class="st0" cx="121.4" cy="61" r="4.4"/>
<path class="st0" d="M97.7,17.7h23.8v10.9H97.7V17.7z M121.6,95.6h9.1v9.4h-9.1V95.6z"/>
<circle class="st0" cx="130.3" cy="95.8" r="4.4"/>
<path class="st0" d="M273.5,48.7h9.4v9.1h-9.4V48.7z"/>
<circle class="st0" cx="273.5" cy="48.7" r="4.4"/>
<circle class="st0" cx="251.6" cy="48.7" r="4.4"/>
<path class="st0" d="M102.1,56.6h19.3v4.9h-19.3L102.1,56.6z"/>
<circle class="st0" cx="83.8" cy="61.5" r="4.4"/>
<circle class="st0" cx="83.8" cy="73.1" r="4.4"/>
<path class="st0" d="M83.3,73.8V63.6l4.9-1.8v12H83.3z M247.2,82.8c0,0,0.4-4.8,4.7-4.8v-2.4h-8.5v7.6
	C243.4,83.2,247.2,82.8,247.2,82.8z M278,82.8c0,0-0.4-4.8-4.7-4.8v-2.4h8.5v7.6C281.8,83.2,278,82.8,278,82.8z M57.1,82.2
	c0,0,0.4-4.8,4.7-4.8V75h-8.5v7.6C53.3,82.6,57.1,82.2,57.1,82.2z M131.9,102.2l-10.2,0.1l4.2,16.8 M33.3,17.7h23.8v21.8H33.3V17.7z
	 M237.4,21.4h9.7v13.3h-9.7V21.4z"/>
<path class="st1" d="M323.7,78v55.3h-312V95.8"/>
<path class="st2" d="M11.7,113.2h-8l8-20.4V113.2z"/>
<path class="st1" d="M10.7,56.6V2.5h311.9V40"/>
<path class="st2" d="M322.6,20.6h8.1L322.6,41V20.6z"/>
<circle class="st1" cx="10.5" cy="64.4" r="5.8"/>
<circle class="st1" cx="323.7" cy="72.2" r="5.8"/>
</svg>
