<svg xmlns="http://www.w3.org/2000/svg" xmlns:xlink="http://www.w3.org/1999/xlink" viewBox="0 0 320.1 145.1"><defs><style>.a{fill:#be1e2d}</style><linearGradient id="a" y1="73.4" x2="59.7" y2="73.4" gradientTransform="matrix(1 0 0 -1 0 146)" gradientUnits="userSpaceOnUse"><stop offset="0" stop-color="#fff"/><stop offset="0" stop-color="#be1e2d"/><stop offset="0" stop-color="#fff"/><stop offset="1" stop-color="#bcbec0"/></linearGradient><linearGradient id="b" x1="137.8" y1="55" x2="137.8" y2="117.6" xlink:href="#a"/><linearGradient id="c" x1="164.85" y1="81.85" x2="164.85" y2="90.79" xlink:href="#a"/><linearGradient id="d" x1="187.8" y1="55" x2="187.8" y2="117.6" xlink:href="#a"/><linearGradient id="e" x1="219.1" y1="54.33" x2="219.1" y2="118.32" xlink:href="#a"/><linearGradient id="f" x1="261.05" y1="55" x2="261.05" y2="117.6" xlink:href="#a"/><linearGradient id="g" x1="304.5" y1="55" x2="304.5" y2="117.6" xlink:href="#a"/></defs><path class="a" d="M85.3.1h13.5v144.8H85.3z"/><path fill="url(#a)" d="M59.3.1l-43.1 145H0L43.1.1h16.6"/><path class="a" d="M66.9 0h14.8v144.8H68.3V78H41.6L64.3.1 81.7 0"/><path d="M155 91h-10l-1.7-11.3h-12.1L129.6 91h-9l10-62.6H145zm-22.5-19.9h9.5l-4.7-31.6z" fill="url(#b)"/><path d="M155.9 55.2h17.9v8.9h-17.9z" fill="url(#c)"/><path d="M172.6 28.4H203v8.9h-10.3V91h-9.8V37.3h-10.3v-8.9z" fill="url(#d)"/><path d="M204.2 43.4c0-10 5.3-15.7 14.9-15.7S234 33.4 234 43.4v32.5c0 10-5.3 15.7-14.9 15.7s-14.9-5.7-14.9-15.7zm9.8 33.2c0 4.5 2 6.2 5.1 6.2s5.1-1.7 5.1-6.2V42.8c0-4.5-2-6.2-5.1-6.2s-5.1 1.7-5.1 6.2z" fill="url(#e)"/><path d="M261.3 57.6L257.7 91h-13.5l-7-62.6h9.6l5.3 49.3 4.7-49.3h9.5l4.9 49.7 5.1-49.7h8.6l-7 62.6h-13z" fill="url(#f)"/><path d="M297.7 45.6V91h-8.8V28.4h12.3l10.1 37.4V28.4h8.8V91H310z" fill="url(#g)"/><path class="a" d="M152.5 112.1a5.4 5.4 0 0 1-.4 2.2 4.3 4.3 0 0 1-1.2 1.7 4.2 4.2 0 0 1-1.8 1.1 5.2 5.2 0 0 1-2.1.4 4.8 4.8 0 0 1-2.2-.5 4.7 4.7 0 0 1-1.5-1.3 11.5 11.5 0 0 0-1.6 1.8h-.9v-13.4a2.2 2.2 0 0 0-.2-1 .7.7 0 0 0-.5-.4h-1.2v-1.1l5-1.1v7.8a7.1 7.1 0 0 1 1.4-1 4.4 4.4 0 0 1 2.1-.4 5.1 5.1 0 0 1 2.2.4 4.8 4.8 0 0 1 1.6 1.2 9.5 9.5 0 0 1 1 1.7 6.9 6.9 0 0 1 .3 1.9zm-3.3-.1a7.6 7.6 0 0 0-.5-2.7 1.9 1.9 0 0 0-2-1.2l-1 .2a2.7 2.7 0 0 0-1 .6 3 3 0 0 0-.8.8v4.9a4.7 4.7 0 0 0 1.4 1.2l1.3.3a1.9 1.9 0 0 0 1.6-.7 4 4 0 0 0 .8-1.6 9 9 0 0 0 .2-1.8zm22.7 2.6a2.9 2.9 0 0 1-.4 1.6 2.4 2.4 0 0 1-1 1 3.2 3.2 0 0 1-1.4.3 3.1 3.1 0 0 1-1.7-.5 1.7 1.7 0 0 1-.8-1.1 6.3 6.3 0 0 1-4.1 1.6 3.3 3.3 0 0 1-2.1-.6 1.9 1.9 0 0 1-.8-1.7 2.9 2.9 0 0 1 .4-1.6 3 3 0 0 1 1.3-1.2 10.2 10.2 0 0 1 2.1-1l3-.9v-.7a1.7 1.7 0 0 0-.4-1.3 2.1 2.1 0 0 0-1.5-.5c-.6 0-1.1.1-1.3.4a1.7 1.7 0 0 0-.5 1.2 1.9 1.9 0 0 1-.4.9 1.4 1.4 0 0 1-1.1.4 1.6 1.6 0 0 1-.9-.3 1 1 0 0 1-.4-.9 2.4 2.4 0 0 1 1.2-2 6.5 6.5 0 0 1 3.8-.8 5.7 5.7 0 0 1 3.7.9 3 3 0 0 1 1 2.4v4.9a.8.8 0 0 0 .2.5l.5.2.6-.3a1.1 1.1 0 0 0 .2-.8h.8zm-5.6.1v-3a8.5 8.5 0 0 0-2.9 1.4 2.2 2.2 0 0 0-.6 1.4 1.2 1.2 0 0 0 .3.9 1.3 1.3 0 0 0 1 .3 2.7 2.7 0 0 0 1.2-.3zm21.5-6a1.4 1.4 0 0 1-.4 1.1 1.3 1.3 0 0 1-1 .4 1.3 1.3 0 0 1-1.2-.7l-.4-.4h-.4a1.7 1.7 0 0 0-1.5 1 4.1 4.1 0 0 0-.5 2.1v2.1a2.4 2.4 0 0 0 .3 1.4 1.9 1.9 0 0 0 1.4.4h.6v1.1H177V116h.6c.7 0 1.1-.1 1.2-.4a2.6 2.6 0 0 0 .2-1.4v-3.5a3.7 3.7 0 0 0-.2-1.2 1 1 0 0 0-.6-.5h-1.4v-1.1l4.7-1a20.7 20.7 0 0 1 .3 2.6 3.8 3.8 0 0 1 .9-1.3l1.2-1a3.7 3.7 0 0 1 1.4-.4 2.1 2.1 0 0 1 1.6.6c.7.4.9.8.9 1.3zm33.9 4.7a6.5 6.5 0 0 1-.4 1.9 3.3 3.3 0 0 1-1.1 1.5 2.9 2.9 0 0 1-1.9.6l-1.1-.2-1.2-.6-1.6-1.4a7.9 7.9 0 0 1-2.5 1.7 5.3 5.3 0 0 1-2.4.6 4.8 4.8 0 0 1-2.4-.6 4.9 4.9 0 0 1-1.6-1.6 4.3 4.3 0 0 1-.6-2.2 8.9 8.9 0 0 1 .2-1.5 4.6 4.6 0 0 1 1.1-1.8 8.6 8.6 0 0 1 2.5-1.9 10.7 10.7 0 0 1-.9-1.9 4.8 4.8 0 0 1-.3-1.8 3.3 3.3 0 0 1 .4-1.7 2.7 2.7 0 0 1 .9-1.2l1.3-.7a3.4 3.4 0 0 1 1.4-.2 3.5 3.5 0 0 1 3 1.7 2.8 2.8 0 0 1 .4 1.5 3.1 3.1 0 0 1-.8 2.1 5.8 5.8 0 0 1-2.2 1.8l3.7 4.9a17.7 17.7 0 0 0 1.2-1.7 3.7 3.7 0 0 0 .5-1.7 2.5 2.5 0 0 0-.2-.7 1.1 1.1 0 0 0-1-.4v-1.1h5v1.1l-1.1.4a2.3 2.3 0 0 0-.7.7l-1.1 1.6-.5.8a14 14 0 0 1-1.3 1.8 5 5 0 0 0 1.4 1.5 2.1 2.1 0 0 0 1.5.7l.6-.2a1 1 0 0 0 .5-.6 2.1 2.1 0 0 0 .3-1.2h1zm-8.1 1l-4.3-5.5a3.1 3.1 0 0 0-1.8 2.7 4.1 4.1 0 0 0 .5 1.8 4.7 4.7 0 0 0 1.3 1.5 2.7 2.7 0 0 0 1.7.6 2.5 2.5 0 0 0 1.3-.3zm-.5-10.9a2.9 2.9 0 0 0-.2-.9 1.3 1.3 0 0 0-.6-.7l-.9-.3a1.7 1.7 0 0 0-1.2.5 1.5 1.5 0 0 0-.4 1.1 6.4 6.4 0 0 0 1.4 3.3 6 6 0 0 0 1.4-1.3 2.9 2.9 0 0 0 .5-1.7zm38.8 4.4a1.4 1.4 0 0 1-.2.7c-.2.2-.3.3-.5.3l-.8-.3-.2-.2-.2-.2h-.2l-.6.2a2.7 2.7 0 0 1 .6 1 3.7 3.7 0 0 1 .2 1.2 2.5 2.5 0 0 1-.4 1.6 2.9 2.9 0 0 1-1.2 1l-1.5.5-1.9.3c-1.9.2-2.9.6-2.9 1.2a.5.5 0 0 0 .4.5h4.8l1.7.4a3 3 0 0 1 1.4 1.1 2.9 2.9 0 0 1 .6 1.9 4.1 4.1 0 0 1-.5 1.8 4.2 4.2 0 0 1-1.9 1.5 9.5 9.5 0 0 1-3.7.6 14.9 14.9 0 0 1-3.6-.5 2.1 2.1 0 0 1-1.8-2.2 2.3 2.3 0 0 1 .3-1.1 1.2 1.2 0 0 1 1-.5l.9.2a1.6 1.6 0 0 0-.3.9 1.7 1.7 0 0 0 .9 1.4 5.1 5.1 0 0 0 2.8.6 8.5 8.5 0 0 0 3-.5c.7-.4 1.1-.8 1.1-1.4a1.1 1.1 0 0 0-.5-.9 4 4 0 0 0-1.3-.4h-2.7a10.8 10.8 0 0 1-3.5-.5 2 2 0 0 1-1.3-1.9 2 2 0 0 1 .9-1.8 6.9 6.9 0 0 1 2.3-.9c-2.2-.4-3.2-1.4-3.2-3a3.2 3.2 0 0 1 .4-1.6 3.4 3.4 0 0 1 1.5-1.4 6.1 6.1 0 0 1 3-.6 5.8 5.8 0 0 1 3.7 1.1 2.4 2.4 0 0 1 1.9-1.1 1.7 1.7 0 0 1 1 .3c.4.2.5.4.5.7zm-5 2.5a3.5 3.5 0 0 0-.5-1.8 1.6 1.6 0 0 0-1.4-.8 1.6 1.6 0 0 0-1.5.7 3.1 3.1 0 0 0-.4 1.7 3.4 3.4 0 0 0 .4 1.8 1.5 1.5 0 0 0 1.5.8 1.8 1.8 0 0 0 1.4-.6 2.4 2.4 0 0 0 .5-1.8zm21.4-1.7a1.4 1.4 0 0 1-.4 1.1 1.3 1.3 0 0 1-1 .4 1.3 1.3 0 0 1-1.2-.7l-.4-.4h-.4a1.7 1.7 0 0 0-1.5 1 4.1 4.1 0 0 0-.5 2.1v2.1a2.4 2.4 0 0 0 .3 1.4 1.9 1.9 0 0 0 1.4.4h.6v1.1h-7.5V116h.6c.7 0 1.1-.1 1.2-.4a2.6 2.6 0 0 0 .2-1.4v-3.5a3.7 3.7 0 0 0-.2-1.2 1 1 0 0 0-.6-.5h-1.4v-1.1l4.7-1a20.7 20.7 0 0 1 .3 2.6 3.8 3.8 0 0 1 .9-1.3l1.2-1a3.7 3.7 0 0 1 1.4-.4 2.1 2.1 0 0 1 1.6.6 1.9 1.9 0 0 1 .7 1.3zm12 8.4h-6.6V116h.4l1-.2a1 1 0 0 0 .4-.5c0-.2.1-.6.1-1v-3.6a3.1 3.1 0 0 0-.1-1.1.8.8 0 0 0-.5-.5l-1.3-.2v-1.1l5-1v7.4a2.4 2.4 0 0 0 .3 1.4 1.9 1.9 0 0 0 1.4.4v1.1zm-1.4-15a1.7 1.7 0 0 1-.5 1.2 1.8 1.8 0 0 1-1.2.5 1.7 1.7 0 0 1-1.2-.5 1.6 1.6 0 0 1-.5-1.2 1.7 1.7 0 0 1 .5-1.2 1.8 1.8 0 0 1 1.2-.5 1.7 1.7 0 0 1 1.2.5 1.3 1.3 0 0 1 .5 1.2zm14.2 15h-7V116h.5l1-.2a1 1 0 0 0 .4-.5c0-.2.1-.6.1-1V104c0-.6-.1-1-.4-1.1a3.2 3.2 0 0 0-1.6-.2v-1.1l5.1-1v13.8a2.5 2.5 0 0 0 .1 1 .7.7 0 0 0 .4.5l1 .2h.4zm12.8 0h-7V116h.5l1-.2a1 1 0 0 0 .4-.5c0-.2.1-.6.1-1V104c0-.6-.1-1-.4-1.1a3.2 3.2 0 0 0-1.6-.2v-1.1l5.1-1v13.8a2.5 2.5 0 0 0 .1 1 .7.7 0 0 0 .4.5l1 .2h.4z"/></svg>