<?xml version="1.0" encoding="utf-8"?>
<!-- Generator: Adobe Illustrator 21.1.0, SVG Export Plug-In . SVG Version: 6.00 Build 0)  -->
<svg version="1.1" id="Layer_1" xmlns="http://www.w3.org/2000/svg" xmlns:xlink="http://www.w3.org/1999/xlink" x="0px" y="0px"
	 viewBox="0 0 422.5 210.3" enable-background="new 0 0 422.5 210.3" xml:space="preserve">
<path fill="#153E69" d="M46.5,146.4c-3.1-2.1-6.1-4.2-9.2-6.1l-5.6,5.6c2.9,2,5.9,4.1,8.9,6.3L46.5,146.4z M96.7,173
	c-8.6-2.7-16.9-6.2-24.7-10.6l-6.6,6.6c7.2,4.4,14.8,8.2,22.6,11.3c12.9,4.9,22.4,5,26.9,0.4c1.5-1.5,2.4-3.4,2.9-5.4
	C111.9,176.3,104.8,175.4,96.7,173 M117.3,75.5c-9.2-6.5-18.8-12.2-28.9-17.2c4.8,10.2,10.5,20,16.9,29.2L117.3,75.5z M167.2,102
	c-8.5-2.7-16.6-6.2-24.4-10.5L127,107.4c7.1,4.4,14.6,8.1,22.3,11.2c12.8,4.9,22.2,5,26.7,0.4c2.9-2.9,3.9-7.9,2.9-14.6
	C175,104,171,103.2,167.2,102 M59.9,61.2c-1.6-4-2.7-8.1-3.5-12.4c-6.6-0.2-11.8,1.4-15.1,4.8c-1.8,1.8-3.2,4.1-3.9,6.6
	c5.3-0.3,11.9,1.1,19.4,3.9c1.7,0.6,3.4,1.3,5.2,2.1C61.2,64.6,60.5,62.9,59.9,61.2 M113,9.7C99.3,5.6,88.8,6.3,83.2,12
	c-3.7,3.6-5.2,9.3-4.8,16.6c3.7,0.8,7.4,1.8,11,3.2c10.2,3.8,22.2,10.4,35.1,19.2l24.2-24.2C135.6,18.7,123.4,12.8,113,9.7
	 M87.7,108.5l-27.3,27.3L0,196.2c3.8,2.5,7.8,5.1,11.8,8c3,2.1,6,4.2,8.9,6.1l61.1-61.1l20-20C97.8,122.7,93,115.7,87.7,108.5"/>
<path fill="#153E69" d="M116.6,153c-5-13.1-14.4-29.3-27.4-46.6s-22.2-33.2-27-46s-5-22.4-0.4-26.9L77.2,18
	c-2,6.4-1.3,14.8,1.5,24.3c4.1,14,12.9,30.7,25.4,48.5s21.1,34.3,25.2,47.9s3.4,24.1-2.3,29.7l-7.1,7.1
	C121.3,169.8,120,162.1,116.6,153 M190.7,40.3l22.9-22.9L196.2,0l-19,19C182.1,25.9,186.6,33,190.7,40.3"/>
<path fill="#153E69" d="M149.3,46.9l-42.9,42.9c4.9,6.9,9.4,14,13.5,21.3l43.5-43.5C159.3,61.1,154.6,54.1,149.3,46.9"/>
<path fill="#153E69" d="M178,91.3c3.4,9,4.8,16.8,3.4,22.6l16.4-16.4c5.7-5.6,6.4-16.1,2.3-29.7S187.4,37.6,175,19.9
	c-1.3-1.8-2.5-3.6-3.7-5.4l-24.7,24.7c1.3,1.8,2.6,3.7,4,5.5C163.6,62.1,173,78.2,178,91.3 M36.8,84.1c-2.8-9.6-3.5-17.9-1.5-24.3
	l-6.1,6.1c-4.6,4.4-4.5,14,0.4,26.9c3.9,10.2,10.6,22.5,19.7,35.8l6.2-6.2C46.5,108.4,40.2,95.3,36.8,84.1 M31.5,206.3
	c0-2.2,1.8-3.9,3.9-3.9c2.2,0,3.9,1.8,3.9,3.9c0,2.2-1.8,3.9-3.9,3.9S31.5,208.5,31.5,206.3 M31.9,206.3c0,1.9,1.6,3.5,3.5,3.4
	s3.5-1.6,3.4-3.5c0-1.9-1.6-3.4-3.5-3.4C33.5,202.8,31.9,204.4,31.9,206.3 M35.5,206.7h-0.9v1.8H34v-4.4h1.6c1.1,0,1.6,0.5,1.6,1.3
	c0,0.5-0.3,1-0.9,1.2l0.9,1.9h-0.8C36.4,208.5,35.5,206.7,35.5,206.7z M34.7,204.8v1.3h0.8c0.6,0,0.9-0.2,0.9-0.7s-0.3-0.6-0.9-0.6
	H34.7z M385.4,161.8l7.5-21.7h0.1l7.3,21.7H385.4z M364.1,186.2H377l4.9-14.2h21.7l4.7,14.2h14.2L400,122.3h-13.3L364.1,186.2
	L364.1,186.2z M331.9,152.7V134h9.5c8.8,0,12,3.4,12,9.3c0,6.1-3.3,9.5-12,9.5L331.9,152.7z M317.9,186.2h13.9v-22.6h9
	c12.7,0,26.2-3.5,26.2-20.6c0-16.8-12.4-20.4-26-20.4h-23.1V186.2L317.9,186.2z M272.8,161.8l7.5-21.7h0.2l7.3,21.7H272.8z
	 M251.5,186.2h12.9l4.9-14.2H291l4.7,14.2h14.2l-22.5-63.9h-13.3L251.5,186.2L251.5,186.2z M211.4,161.8l7.5-21.7h0.2l7.3,21.7
	H211.4z M190.2,186.2h12.9L208,172h21.7l4.7,14.2h14.2l-22.5-63.9h-13.3L190.2,186.2L190.2,186.2z"/>
</svg>
