<svg xmlns="http://www.w3.org/2000/svg" viewBox="0 0 170.2 37.8"><path fill="#9662A9" d="M78.1 9l-1 .3-2.1 1.1-1.8.7-1.7.1-.5.6-.3 2.3-.2 1.6-.1 1.4.1 1.4-.3 2.1v1.5L69 23.6l-.1 1.7v2.3l.5 1.9 1.7.6 1.9-.8 1.6-.4 2.7-1.6.5-1.2 3.4-.8 1.4-2.6 2.2-1.5.7-1.3.6-1.7 1.5-1.3.6-2.1-.3-2.1-1.7-1.8L78.1 9z"/><path fill="#55B948" d="M79.3 4.5l3.8-3.3 3-.9 1.6.8 1.7 2 .6 1.3 1.2 1.4 2.3 3-1.4 1.4-1.9 1.3-.5 1.4-2-1-.3.8-2-.8-1.2 1h-1l-1-1-1.3-.2-1.4.2-.7-.5-.1-2.6-.4-2.4.5-1.8.5-.1zm-2.8 1.6h-3.2l-2.4.7.8.9.2 1-1.5.9-.2.8.9.5-.1.4 1.4.3 1.7-.1 1.5-1.1 1.3-1.1 1.4-.2-.2-2.2-.4-1.1-1.2.3z"/><path fill="none" stroke="#010101" stroke-width=".978" d="M77.4 6.2c-3.3-.2-6.7.7-6.6 1 0 .1 1.5 1.2 1.5 1.4-.1.2-1.6.9-2 1.6-.4.7 1 1 1 1s-1.6 2.2-.5 3.3c.6.6-1.2 1.8-.2 3.7.5 1.3-1.3 2.2-.2 3.9-3.6 2.8-.6 4.5-1.1 4.9s-.8 1.8.2 2.7c.9.9 3 .6 3.9-.9 1.9.6 4.2-.8 4.4-2.7 1.6.4 5-.2 4.7-3.8 3.2 0 2.9-1.8 3.4-4 .5-.1 3.9-1.9 1.8-5.8 0 0 0-.5.5-.1.3.3 3.3 1.4 2-1.3.6 0 3.4-.6 3.4-2.2-.2-.6-.9-2.2-2.3-2.9.5-1.5-.4-1.1-1.1-1.5v-1c-.1-.2-1.7-.9-2.5-1.4 0 0 .9-.2.6-.9-.6-1.1-4.7-1.4-8.1 2.4 0 0-1.1-.1-1.4-2.4-.4-.5-.7.1-.4 1.6.2 1.4-.2 1.9-.3 2.5-.3.6-.7.9-.7.9z"/><path fill="none" stroke="#010101" stroke-width=".57" stroke-linecap="round" d="M90.9 6.1s-2 1.2-2.1 2.3m1.4-3.7s-3.1 1.1-4.4 2.7c0 0 1 3.3 2.2 4.7"/><path fill="none" stroke="#010101" stroke-width=".57" stroke-linecap="round" d="M89.6 3.8s-4.8.4-6.2 2.6c0 0 .4 2.7 1.6 5.1"/><path fill="none" stroke="#010101" stroke-width=".57" stroke-linecap="round" d="M87.1 2s-4.2.7-5.6 3.4c0 0 1.7 3.9-.2 6m8.7-.1s-1.8-2.2-1.8-2.7m-8.1-4.4c.1.9 4.8 4.4 12.8 4.9"/><path fill="none" stroke="#010101" stroke-width=".978" stroke-linecap="square" stroke-linejoin="bevel" d="M78 5.8c.1.5.8 4.3.7 6.1 0 .4 2 .2 2.5-.3.3-.2 2.6 2 2.6 2 .7-1.1.7-1.4 1-1.7.4-.5 1.5 1 2.7.5"/><path fill="#010101" stroke="#010101" stroke-width=".57" d="M79.9 4l-1.6-2.3s-.1 5.2.1 4.7c.2-.6.7-.7 1.1-1 .3-.3.5-.7.9-.8l-.5-.6z"/><path fill="none" stroke="#010101" stroke-width=".489" d="M78.7 8.9c-.5.4-1.7.3-1.9.6-.7.7-1 1-2 1.9-.6.5-2.5-.1-3.3 0m6.5-5c-1.9.9-4.2 4.8-7 4.5m3.1-1.3c.6.3.6.9.7 1.7m2.1-1.9c0-.3-.2-1.8-.5-1.8"/><path fill="none" stroke="#010101" stroke-width=".489" stroke-linecap="round" d="M75.3 8.4c-1.4 0-1.4.1-2.1.2m1.2 3.1c0 1.3 0 .7.1 1.4s0 .6.7 1.3c.6.7 1.9.6 2.5.3.7-.2 1.5-1.6 1.5-2.1m-4.6.5c-.7-.2-1.7.3-3.5 1.6m-.1 3.7c2 .8 5.1-1.8 5.2-3.5m2.6-1c.7 4.6 5.4 2.7 5.2.1"/><path fill="none" stroke="#010101" stroke-width=".489" stroke-linecap="round" d="M86.1 18s-1.6.5-2.2-.3-.7-1.2-.8-1.8m.8 2c-.7.6-.6.3-1 1.4s-.8 2-.7 2.8"/><path fill="none" stroke="#010101" stroke-width=".489" stroke-linecap="round" d="M83.1 18.6c-2.1-1.4-3.3-.2-3.3-.2-.8 1-1.6 1.2-1.7 1.4-.9 1-.3 1.9-.1 2.1.7 1 2.9 1.6 4.2-.1m-4.2-2c-1.4.4-3.7-.3-3.9-2"/><path fill="none" stroke="#010101" stroke-width=".489" stroke-linecap="round" d="M74.6 19c-1 1.1-1.9 1.3-2.2 2.9-.3 1.1.8 2.3 1.3 2.5 0 0 2 1.1 3.4-.1 1-.9.9-1.1 1.4-1.9m-.9 3.5c-.1-.8-.6-1.3-.6-1.6m-3.8 4.2s-.9-.6-.7-1.5c.1-.4 1.1-1.4 1.1-2.6M72.5 27c-1.1.4-2.1.4-2.9-.2m1-4.6c.5 0 1.4-.1 1.6.1"/><path fill="#010101" stroke="#010101" stroke-width=".489" stroke-linecap="round" d="M80.5 16.9l-.6-.2c.2.6.5.8.2 1.4s-.1-.2.4-.2.5.1.8.1c.3.1-.6-.4.1-1-.4 0-.6-.1-.9-.1z"/><path fill="#010101" d="M5.7 10.6c0-1.2 0-2.3-.1-2.7-1.2 0-3.8.2-5.6.4.1-.5.2-.9.2-1.4C.2 6.5.1 6 0 5.6c2.8.1 4.2.2 8 .2s5.2-.1 7.8-.2c-.1.5-.2.9-.2 1.4s.1.9.2 1.4c-1.7-.2-4.3-.4-5.5-.4-.1.4-.1 1.5-.1 2.7v7.7c0 3.5.1 5.8.2 8.5-.5-.1-1.4-.2-2.4-.2s-1.8.1-2.5.2c.2-2.7.2-5.1.2-8.5v-7.8zm16.3.9c4.7 0 7.6 2.9 7.6 7.6 0 5-3.1 8.2-7.6 8.2-3.7 0-7.6-2-7.6-7.5 0-5.6 3.7-8.3 7.6-8.3zm0 1.4c-1.9 0-3.1 2.2-3.1 6.9 0 3.5.7 6.1 3 6.1 1.9 0 3-2.5 3-7.2.1-3.6-.8-5.8-2.9-5.8zm18.3-.8c-.1.3-.1.6-.1.8s0 .5.1.8l-2.7-.1c-.1 1.9-.2 5.2-.2 6.9 0 4.3.3 5 1.7 5 .8 0 1-.1 1.4-.3v1.3c-.8.5-2.2.8-3.4.8-2.6 0-3.9-1.7-3.9-4.8 0-2.4.2-6.2.2-8.8h-2.2c.1-.2.1-.5.1-.8s0-.5-.1-.8l2.2.1c0-1.3 0-2.2-.1-3.8 1.4-.6 2.8-1.2 4.2-1.9l.3.2c-.2 1.3-.3 3.6-.3 5.5l2.8-.1zm2.3 1.6c1.7-1.4 3.8-2.2 5.8-2.2 3.3 0 5.6 1.4 5.6 5 0 2.6-.1 4.8-.1 7 0 1.9.6 2.1 1.8 2.1v.7c-1.2.6-1.9.8-2.8.8-1.5 0-2.4-.9-2.9-2.3-1 1.3-2.1 2.3-4 2.3-3.1 0-4.4-2.1-4.4-4 0-2.7 1.8-3.8 4.6-4.5 3.5-.8 3.8-1.1 3.8-2.2 0-1.5-1.1-2.7-3-2.7-1.4 0-3.1.8-3.7 1.7H43l-.4-1.7zm7.3 5.1c-1.8 1-4.1.8-4.1 3.9 0 1.5.7 2.3 1.8 2.3 1.4 0 2.3-1 2.3-3.1v-3.1zm8.5-4.6c0-4-.1-7.2-.2-10.7.5.1 1.4.2 2.3.2.9 0 1.8-.1 2.3-.2-.2 3.5-.2 6.6-.2 10.7v2c0 4 .1 7.2.2 10.7-.5-.1-1.4-.2-2.3-.2-.9 0-1.8.1-2.3.2.2-3.5.2-6.6.2-10.7v-2zm51.2-2.5c-1.4 4.2-4 10.8-5.3 15.1-.5-.1-1-.2-1.6-.2-.5 0-1.1.1-1.6.2-1.3-5.4-5.7-19.9-6.2-21.3.9.1 1.8.2 2.6.2s1.7-.1 2.5-.2c1.3 5.3 2.9 11.3 4 15.6h.1c1.8-5.2 4.4-12.7 5.3-15.6.5.1 1 .2 1.5.2s1-.1 1.5-.2c.6 2.7 3.8 11.5 4.9 15.6h.1C119 16 121.5 8 122 5.6c.4.1.9.2 1.3.2.5 0 .9-.1 1.4-.2-.8 2.4-5.1 14.5-7 21.3-.5-.1-1-.2-1.6-.2-.5 0-1.1.1-1.6.2-1.3-5.1-3-10.1-4.9-15.2zm19.1-6.5c1.4 0 2.4 1.1 2.4 2.4 0 1.4-1.1 2.4-2.4 2.4-1.4 0-2.4-1.1-2.4-2.4-.1-1.4 1-2.4 2.4-2.4zm-2.1 13.6c0-2.5-.1-4.7-.2-6.8.6.1 1.4.2 2.3.2 1 0 1.8-.1 2.3-.2-.2 2.2-.2 4.3-.2 6.8V20c0 2.5.1 4.7.2 6.8-.5-.1-1.4-.2-2.3-.2-1 0-1.8.1-2.3.2.2-2.2.2-4.3.2-6.8v-1.2zm12.3-4.6c1.2-1.7 2.8-2.7 4.7-2.7 3.1 0 4.8 1.7 4.8 5.7 0 2.1-.1 3.6-.1 5.2 0 1.3.1 2.9.2 4.5-.5-.1-1.4-.2-2.3-.2-.9 0-1.8.1-2.3.2.3-2.2.3-5.2.3-8.8 0-2.6-.9-3.8-2.5-3.8-1.8 0-2.7 1.7-2.7 4.5V20c0 2.5.1 4.7.2 6.8-.5-.1-1.4-.2-2.3-.2-1 0-1.8.1-2.3.2.2-2.2.2-4.3.2-6.8v-1.2c0-2.5-.1-4.7-.2-6.8.7.1 1.4.2 2.2.2.7 0 1.4-.1 2.2-.2l-.1 2.2zm16.8 5.2c0 3.3 1.3 5.9 4.1 5.9 1.4 0 2.7-.5 3.8-1.4l.4.3-.7 1.7c-1 .8-2.4 1.4-4.7 1.4-4 0-7.5-2.4-7.5-7.8 0-5.3 3-7.9 7.2-7.9 4 0 6.3 2.6 6.3 6.8v1h-8.9zm4.7-1.4c-.1-3.1-.7-5.1-2.3-5.1-1.8 0-2.4 2.7-2.5 5.1h4.8z"/><path fill="#EB2F30" d="M6.7 9.9c0-1.2 0-2.3-.1-2.7-1.2 0-3.8.2-5.6.4.1-.5.2-.9.2-1.4s-.1-.9-.2-1.4c2.8.2 4.2.3 8 .3s5.2-.1 7.8-.2c-.1.5-.2.9-.2 1.4s.1.9.2 1.4c-1.7-.2-4.3-.4-5.5-.4-.1.4-.1 1.5-.1 2.7v7.7c0 3.5.1 5.8.2 8.5-.5-.1-1.4-.2-2.4-.2s-1.8.1-2.5.2c.2-2.7.2-5.1.2-8.5V9.9zm16.3 1c4.7 0 7.6 2.9 7.6 7.6 0 5-3.1 8.2-7.6 8.2-3.7 0-7.6-2-7.6-7.5 0-5.6 3.7-8.3 7.6-8.3zm0 1.3c-1.9 0-3.1 2.2-3.1 6.9 0 3.5.7 6.1 3 6.1 1.9 0 3-2.5 3-7.2.1-3.6-.8-5.8-2.9-5.8zm18.3-.8c-.1.3-.1.6-.1.8s0 .5.1.8h-2.7c-.1 1.9-.2 5.2-.2 6.9 0 4.3.3 5 1.7 5 .8 0 1-.1 1.4-.3v1.3c-.8.5-2.2.8-3.4.8-2.6 0-3.9-1.7-3.9-4.8 0-2.4.2-6.2.2-8.8h-2.2c.1-.2.1-.5.1-.8s0-.5-.1-.8l2.2.1c0-1.3 0-2.2-.1-3.8 1.4-.6 2.8-1.2 4.2-1.9l.3.1c-.2 1.3-.3 3.6-.3 5.5l2.8-.1zm2.3 1.6c1.7-1.4 3.8-2.2 5.8-2.2 3.3 0 5.6 1.4 5.6 5 0 2.6-.1 4.8-.1 7 0 1.9.6 2.1 1.8 2.1v.7c-1.2.6-1.9.8-2.8.8-1.5 0-2.4-.9-2.9-2.2-1 1.3-2.1 2.2-4 2.2-3.1 0-4.4-2.1-4.4-4 0-2.7 1.8-3.8 4.6-4.5 3.5-.8 3.8-1.1 3.8-2.2 0-1.5-1.1-2.7-3-2.7-1.4 0-3.1.8-3.7 1.7H44l-.4-1.7zm7.3 5.2c-1.8 1-4.1.8-4.1 3.9 0 1.5.7 2.3 1.8 2.3 1.4 0 2.3-1 2.3-3.1v-3.1zm8.5-4.7c0-4-.1-7.2-.2-10.7.5.1 1.4.2 2.3.2.9 0 1.8-.1 2.3-.2-.2 3.5-.2 6.6-.2 10.7v2c0 4 .1 7.2.2 10.7-.5-.1-1.4-.2-2.3-.2-.9 0-1.8.1-2.3.2.2-3.5.2-6.6.2-10.7v-2zm51.2-2.4c-1.4 4.2-4 10.8-5.3 15.1-.5-.1-1-.2-1.6-.2s-1.1.1-1.6.2c-1.3-5.4-5.7-19.9-6.2-21.3.9.1 1.8.2 2.6.2s1.7-.1 2.5-.2c1.3 5.3 2.9 11.2 4 15.6h.1c1.8-5.2 4.4-12.7 5.3-15.6.5.1 1 .2 1.5.2s1-.1 1.5-.2c.6 2.7 3.8 11.5 4.9 15.6h.1c1.6-5.2 4-13.1 4.6-15.6.4.1.9.2 1.3.2.5 0 .9-.1 1.4-.2-.8 2.4-5.1 14.5-7 21.3-.5-.1-1-.2-1.6-.2-.5 0-1.1.1-1.6.2-1.3-5.1-3-10.1-4.9-15.1zm19-6.6c1.4 0 2.4 1.1 2.4 2.4 0 1.4-1.1 2.4-2.4 2.4-1.4 0-2.4-1.1-2.4-2.4s1.1-2.4 2.4-2.4zm-2 13.6c0-2.5-.1-4.7-.2-6.8.6.1 1.4.2 2.3.2 1 0 1.8-.1 2.3-.2-.2 2.2-.2 4.3-.2 6.8v1.2c0 2.5.1 4.7.2 6.8-.5-.1-1.4-.2-2.3-.2-1 0-1.8.1-2.3.2.2-2.2.2-4.3.2-6.8v-1.2zm12.3-4.5c1.2-1.7 2.8-2.7 4.7-2.7 3.1 0 4.8 1.7 4.8 5.7 0 2.1-.1 3.6-.1 5.2 0 1.3.1 2.9.2 4.5-.5-.1-1.4-.2-2.3-.2-.9 0-1.8.1-2.3.2.3-2.2.3-5.2.3-8.8 0-2.6-.9-3.8-2.5-3.8-1.8 0-2.7 1.7-2.7 4.5v1.2c0 2.5.1 4.7.2 6.8-.5-.1-1.4-.2-2.3-.2s-1.8.1-2.3.2c.2-2.2.2-4.3.2-6.8v-1.2c0-2.5-.1-4.7-.2-6.8.7.1 1.4.2 2.2.2.7 0 1.4-.1 2.2-.2l-.1 2.2zm16.7 5.1c0 3.3 1.3 5.9 4.1 5.9 1.4 0 2.7-.5 3.8-1.4l.4.3-.7 1.7c-1 .8-2.4 1.4-4.7 1.4-4 0-7.5-2.4-7.5-7.8 0-5.3 3-7.9 7.2-7.9 4 0 6.3 2.6 6.3 6.8v1h-8.9zm4.8-1.4c-.1-3.1-.7-5.1-2.3-5.1-1.8 0-2.4 2.7-2.5 5.1h4.8z"/><path fill="#046D68" d="M97.5 34.6c-.3.4-.5.7-.9 1.1l.7.7-1.3 1.3c-.2-.1-.4-.3-.7-.6l-.2-.2c-.5.3-1 .5-1.4.6s-.9.2-1.5.2c-1.2 0-2.1-.2-2.6-.7-.6-.5-.8-1.1-.8-1.7 0-1.3.8-2.2 2.5-2.8-.3-.6-.5-1.1-.5-1.6 0-.7.3-1.3.8-1.6.6-.4 1.2-.6 2.1-.6.8 0 1.5.2 2 .6s.8.8.8 1.4c0 .3-.1.6-.3.9-.2.3-.4.5-.7.7-.3.2-.6.4-1.1.6 0 0-.1.1-.3.1l1.1 1.3c.2-.2.4-.4.6-.7.1-.1.1-.1.1-.2l1.6 1.2zm-3.8 1c-.6-.7-1.1-1.2-1.5-1.8-.7.4-1.1.8-1.1 1.3 0 .2 0 .3.1.5s.2.3.4.4c.2.1.4.2.6.2.5 0 1-.2 1.5-.6zm-.4-4c.4-.2.7-.4.9-.6.2-.2.3-.4.3-.6 0-.1-.1-.3-.2-.4h-.5c-.3 0-.5.1-.6.2-.2.2-.2.4-.2.6s.1.5.3.8zm21-2.8l-1.9 8.8h-2.3l1.6-6.7-3.3 6.7h-2l-.4-6.7-1.3 6.7h-2.3l1.9-8.8h3.3l.3 5.6 2.8-5.6h3.6zm5.7-.1c1.3 0 2.3.4 2.9 1.1s.9 1.6.9 2.6c0 .4-.1.9-.2 1.4s-.3 1.1-.7 1.6c-.3.6-.8 1-1.3 1.4s-1 .6-1.5.8c-.5.1-1 .2-1.6.2-1.3 0-2.2-.3-2.9-1-.7-.6-1.1-1.5-1.1-2.7 0-.6.1-1.2.3-1.8.2-.6.4-1.1.8-1.6.3-.5.8-.9 1.3-1.3.5-.3 1-.6 1.5-.7h1.6zm-1.1 7c.5 0 1-.2 1.3-.6.4-.4.6-.9.8-1.5.2-.6.2-1 .2-1.3 0-.6-.1-1-.4-1.3s-.6-.4-1.1-.4-.9.2-1.3.5c-.4.4-.6.8-.8 1.4-.2.6-.3 1.1-.3 1.5s.1.8.4 1.1c.3.5.7.6 1.2.6zm7.3-6.9h5c.9 0 1.5.2 1.9.7s.6 1 .6 1.6c0 .7-.2 1.3-.6 1.8-.4.5-1.1.8-2 1 .6.5 1.2 1.7 2 3.7h-2.9c-.2-.6-.5-1.3-.8-2.1s-.6-1.2-.7-1.3c-.2-.1-.4-.2-.6-.2h-.1l-.8 3.6h-2.7l1.7-8.8zm1.9 3.6h.5c.9 0 1.4 0 1.7-.1s.4-.2.6-.4c.1-.2.2-.4.2-.5 0-.2-.1-.4-.2-.5-.1-.1-.5-.2-1-.2h-1.4l-.4 1.7zm14.7-3.6l-.4 1.9H138l-.3 1.4h4.3l-.4 1.8h-4.3l-.4 1.7h4.8l-.4 2h-7.5l1.9-8.8h7.1z"/><path fill="#010101" d="M168.4 10.8c1 0 1.8.8 1.8 1.9 0 1-.8 1.9-1.8 1.9s-1.9-.8-1.9-1.9c0-1 .8-1.9 1.9-1.9zm0 .4c-.8 0-1.4.7-1.4 1.5s.6 1.5 1.4 1.5c.8 0 1.4-.7 1.4-1.5s-.6-1.5-1.4-1.5zm-.4 2.6h-.4v-2.1c.2 0 .3-.1.7-.1s.6.1.7.2c.1.1.2.2.2.4s-.2.4-.4.5c.2 0 .3.2.3.5s.1.4.1.5h-.5c0-.1-.1-.3-.1-.5s-.2-.3-.4-.3h-.2v.9zm0-1.2h.2c.3 0 .5-.1.5-.3s-.1-.3-.4-.3h-.2v.6h-.1z"/></svg>