<?xml version="1.0" encoding="utf-8"?>
<!-- Generator: Adobe Illustrator 21.1.0, SVG Export Plug-In . SVG Version: 6.00 Build 0)  -->
<svg version="1.1" id="Layer_1" xmlns="http://www.w3.org/2000/svg" xmlns:xlink="http://www.w3.org/1999/xlink" x="0px" y="0px"
	 viewBox="0 0 358 225.8" enable-background="new 0 0 358 225.8" xml:space="preserve">
<radialGradient id="SVGID_1_" cx="227.25" cy="114.65" r="82.4815" gradientTransform="matrix(1 0 0 -1 0 226)" gradientUnits="userSpaceOnUse">
	<stop  offset="0" style="stop-color:#E3CD00"/>
	<stop  offset="1" style="stop-color:#F39D00"/>
</radialGradient>
<path fill="url(#SVGID_1_)" d="M262,0v116.3l-1.5,0.9c-19.2-22-38.4-44-58.5-67.1v172.6h-9.5V27.5c0.4-0.3,0.9-0.6,1.3-0.9
	C213.2,49,232.6,71.3,253,94.8V0H262z"/>
<g>
	<path d="M311.1,132.6c-26.2-0.1-46.4,20.4-46.4,47.1c0,26,20.4,46.1,46.8,46.1c26.1,0,46.5-20.4,46.5-46.6
		C358,152.8,337.8,132.7,311.1,132.6z M311.4,216.9c-21.4,0.1-37.5-16.1-37.5-37.6c0-21.2,16.5-38.1,37.4-38.2
		c20.9,0.1,37.6,16.9,37.6,37.9C348.9,200.4,332.5,216.9,311.4,216.9z"/>
	<polygon points="260.8,135.1 212.9,135.1 212.9,143.7 232.4,143.7 232.4,223.3 241.2,223.3 241.2,143.7 260.8,143.7 	"/>
	<polygon points="178.7,135.1 130.8,135.1 130.8,143.7 150.4,143.7 150.4,223.3 159.2,223.3 159.2,143.7 178.7,143.7 	"/>
	<g>
		<path d="M129.2,33.7c20.9,0,37.9,17,37.9,37.9s-17,37.8-37.9,37.8s-37.8-17-37.8-37.8S108.4,33.7,129.2,33.7 M129.2,25
			c-25.7,0-46.6,20.9-46.6,46.6s20.9,46.6,46.6,46.6s46.6-20.9,46.6-46.6S155,25,129.2,25L129.2,25z"/>
	</g>
	<g>
		<path d="M311.3,141.3c20.9,0,37.9,17,37.9,37.9s-17,37.8-37.9,37.8s-37.9-17-37.9-37.8S290.4,141.3,311.3,141.3 M311.3,132.6
			c-25.7,0-46.6,20.9-46.6,46.6s20.9,46.6,46.6,46.6s46.6-20.9,46.6-46.6S337.1,132.6,311.3,132.6L311.3,132.6z"/>
	</g>
	<path d="M34.9,27.8c-11.5-1-23.2-0.6-34.9-0.9v51c2.7-0.3,5.5-0.5,8.8-0.8V35.2c10.2,0.7,20,0.6,29.4,2.2c14,2.3,22.9,11.1,25.9,25
		c1.1,5.1,1.2,10.6,0.8,15.8c-1.2,14.9-11.4,25.7-26.2,27.8c-7.7,1.1-15.6,1.2-23.3,1.7v8.6c9.2-0.6,18.1-0.4,26.8-1.7
		c18.3-2.7,29.8-16.5,32.2-37.4C77.5,50.5,61.4,30.1,34.9,27.8z"/>
</g>
</svg>
