<svg xmlns="http://www.w3.org/2000/svg" xmlns:xlink="http://www.w3.org/1999/xlink" viewBox="0 0 410.1 154.2"><defs><clipPath id="a"><rect width="400" height="147.81" fill="none"/></clipPath></defs><title>logo__aapa-2018</title><g clip-path="url(#a)"><text transform="translate(296.7 147.3)" font-size="34.04" fill="#634883" font-family="BentonSans-Regular, BentonSans" letter-spacing="0.25em">2<tspan x="28.7" y="0" letter-spacing="0.26em">018</tspan></text><polygon points="349.1 0 298.1 112 349.1 112 349.1 0" fill="#7773b5"/><polygon points="349.1 0 349.1 112 400 112 349.1 0" fill="#6d4890"/><polygon points="8.3 93.7 93.5 93.7 50.9 0 8.3 93.7" fill="#68cbda"/><polygon points="0 112 101.9 112 93.5 93.7 8.3 93.7 0 112" fill="#616db3"/><polygon points="119.7 93.7 204.9 93.7 162.3 0 119.7 93.7" fill="#616db3"/><polygon points="111.3 112 213.2 112 204.9 93.7 119.7 93.7 111.3 112" fill="#68cbda"/><rect x="222.1" width="42.8" height="93.69" fill="#7773b5"/><rect x="222.1" y="93.7" width="42.8" height="18.36" fill="#68cbda"/><path d="M265,0V93.7A46.9,46.9,0,0,0,265,0Z" fill="#6d4890"/></g></svg>