<svg xmlns="http://www.w3.org/2000/svg" viewBox="0 0 490.78 490.78"><path d="M.001 418.576l9.741 10.589c5.383 5.852 53.842 57.289 96.964 61.265 2.53.233 5.169.351 7.851.351 57.813-.005 150.329-55.167 235.693-140.53 42.922-42.922 78.975-88.442 104.262-131.64 18.221-31.127 39.244-75.81 35.917-111.906-3.974-43.122-55.412-91.581-61.264-96.964L418.577 0 287.048 131.528l44.169 44.169-155.519 155.519-44.168-44.169L.001 418.576zm41.975.451l89.553-89.553 44.168 44.169 197.946-197.945-44.169-44.169 89.573-89.573c16.152 17.034 39.522 45.947 41.509 67.503 2.025 21.976-9.316 55.358-31.935 93.997-24.011 41.019-58.447 84.445-99.584 125.582-77.565 77.563-165.764 131.738-214.487 131.742-1.76 0-3.472-.075-5.09-.224-21.377-1.971-50.612-25.616-67.484-41.529z"/></svg>