<svg id="Layer_1" xmlns="http://www.w3.org/2000/svg" viewBox="0 0 32 32"><style>.st0{fill:#040305}</style><path class="st0" d="M6.5 19.7l11 10.8c1 .9 2.2 1.5 3.6 1.5s2.6-.5 3.6-1.5l.9-.9c1-.9 1.5-2.2 1.5-3.5 0-1.3-.5-2.6-1.5-3.5L18.9 16l6.6-6.5c1-.9 1.5-2.2 1.5-3.5s-.5-2.6-1.5-3.5l-.9-.9C23.6.5 22.4 0 21 0s-2.6.5-3.6 1.5l-11 10.8c-1 1-1.5 2.3-1.5 3.7.1 1.4.6 2.7 1.6 3.7zm1.7-5.6l11-10.8c.5-.5 1.2-.7 1.8-.7.7 0 1.3.2 1.8.7l.9.9c1 1 1 2.6 0 3.6L15.4 16l8.4 8.3c1 1 1 2.6 0 3.6l-.9.9c-.5.5-1.2.7-1.8.7-.7 0-1.3-.2-1.8-.7L8.2 18c-.5-.5-.8-1.2-.7-2-.1-.7.2-1.4.7-1.9z"/></svg>