<?xml version="1.0" encoding="utf-8"?>
<!-- Generator: Adobe Illustrator 21.1.0, SVG Export Plug-In . SVG Version: 6.00 Build 0)  -->
<svg version="1.1" id="Layer_1" xmlns="http://www.w3.org/2000/svg" xmlns:xlink="http://www.w3.org/1999/xlink" x="0px" y="0px"
	 viewBox="0 0 32 32" style="enable-background:new 0 0 32 32;" xml:space="preserve">
<style type="text/css">
	.st0{fill:#040305;}
</style>
<g>
	<path class="st0" d="M25.5,12.3l-11-10.8C13.6,0.5,12.3,0,11,0C9.6,0,8.4,0.5,7.4,1.5L6.5,2.4C5.5,3.3,5,4.6,5,5.9s0.5,2.6,1.5,3.5
		l6.6,6.5l-6.6,6.5c-1,0.9-1.5,2.2-1.5,3.5c0,1.3,0.5,2.6,1.5,3.5l0.9,0.9c1,0.9,2.2,1.5,3.6,1.5s2.6-0.5,3.6-1.5l11-10.8
		c1-1,1.5-2.3,1.5-3.7C27,14.6,26.5,13.3,25.5,12.3z M23.8,17.9l-11,10.8c-0.5,0.5-1.2,0.7-1.8,0.7c-0.7,0-1.3-0.2-1.8-0.7l-0.9-0.9
		c-1-1-1-2.6,0-3.6l8.4-8.3L8.2,7.7c-1-1-1-2.6,0-3.6l0.9-0.9c0.5-0.5,1.2-0.7,1.8-0.7c0.7,0,1.3,0.2,1.8,0.7l11,10.8
		c0.5,0.5,0.8,1.2,0.7,2C24.6,16.7,24.3,17.4,23.8,17.9z"/>
</g>
</svg>
