<?xml version="1.0" encoding="utf-8"?>
<!-- Generator: Adobe Illustrator 21.1.0, SVG Export Plug-In . SVG Version: 6.00 Build 0)  -->
<svg version="1.1" id="Layer_1" xmlns="http://www.w3.org/2000/svg" xmlns:xlink="http://www.w3.org/1999/xlink" x="0px" y="0px"
	 viewBox="0 0 412.2 75" enable-background="new 0 0 412.2 75" xml:space="preserve">
<path fill="#010101" d="M215.1,32.4l-2.2,1.1c-0.9,0.3-1.7,0.8-2.6,1.2s-1.8,0.9-2.6,1.4c-0.8,0.6-1.4,1.2-2,1.9
	c-0.6,0.7-0.8,1.4-0.9,2.3c0.4-0.4,1-0.7,1.7-0.9c0.7-0.2,1.3-0.3,2.1-0.6c0.8-0.1,1.4-0.3,2.2-0.6c0.8-0.2,1.4-0.7,2.2-1.1
	c0.7-0.6,1.3-1.2,1.9-2.2c0.6-0.9,1.1-2.2,1.4-3.8C216.1,31.6,215.7,31.9,215.1,32.4L215.1,32.4z M181.4,30.6
	c-0.7,3.7,3.2,4,8.7,0.3c5.5-3.7,10-8.2,14.6-11.6c0,0-2.9,0.2-5.5,1.6c-2.4,1.3-10.9,9-13.8,10.6C182.5,32.9,181.4,30.6,181.4,30.6
	L181.4,30.6z M228.3,40.8c0.7-3.7-3.2-4-8.7-0.3c-5.5,3.7-10,8.2-14.6,11.6c0,0,2.9-0.2,5.5-1.6c2.4-1.3,10.9-9,13.8-10.6
	C227.3,38.5,228.3,40.8,228.3,40.8L228.3,40.8z"/>
<path fill="#010101" d="M230.3,37.9c-1-3.7-5.2-3.9-8.7-2.6c-2.8,1.1-5.6,3.2-8,5.3c-0.3,0.2-0.6,0.4-0.9,0.7
	c-0.2,0.2-0.4,0.4-0.8,0.7v-0.3c0.1-0.8-0.1-1.3-0.6-1.8s-1.1-0.7-2.1-0.7s-2.2,0.3-3.7,0.9c0.2,0,0.4,0.1,0.7,0.4
	c0.2,0.3,0.2,0.7,0.3,1.1v1.6l-0.3,1.7c-0.2,0.6-0.4,1-0.7,1.4c-0.3,0.4-0.7,0.7-1,0.8c-0.6,0.2-1,0.1-1.3-0.1
	c-0.3-0.3-0.6-0.8-0.7-1.4c-0.1-0.7,0-1.4,0.1-2.3c0.2-0.9,0.4-1.8,0.9-2.8c0.4-0.9,1-1.9,1.7-2.8s1.4-1.7,2.4-2.3
	c0.4-0.3,0.8-0.7,0.8-0.9c0-0.2-0.2-0.2-0.8,0c-0.9,0.4-1.6,0.4-2,0.1c-0.4-0.3-0.7-0.9-0.8-1.7c-0.1-0.8-0.1-1.7,0.1-2.8
	c0.2-1,0.4-2.1,0.9-3.1c0.4-1,0.9-1.9,1.4-2.7c0.6-0.8,1.2-1.3,1.8-1.6c0.4-0.1,0.7,0,0.8,0.3c0.1,0.3,0.2,0.8,0.1,1.4
	c0,0.7-0.2,1.3-0.3,2.1l-0.7,2.3c-0.2,0.8-0.6,1.4-0.9,2c-0.3,0.7-0.7,1-0.9,1.3c0.6,0,1.1,0,1.7-0.1c1.8,0,6.5-2.9,7.2-6.7
	c0.2-0.9,0.1-2-0.1-2.8c-1.1-4.1-5.8-4.3-9.7-2.9c-3.1,1.2-6.2,3.7-8.9,6c-0.3,0.2-0.7,0.6-1,0.8c-4,3.2-7.1,6.5-10.8,7.3
	c-3.8,1-6.5-0.7-5.9-3.7c0.7-3.3,3.1-4.3,4.9-4.5c-0.6,0.3-0.9,0.9-0.9,1.6c0,0.8,0.7,1.3,1.4,1.2c0.8-0.2,1.4-1,1.4-1.8
	c0-0.1,0-0.3-0.1-0.4v-0.2c-0.2-0.3-0.7-0.9-2.1-1c-1.8,0-5.2,1.6-6.1,5.2c-0.2,0.9-0.1,2,0.1,2.8c1.1,4.1,5.8,4.3,9.7,2.9
	c3.1-1.2,6.2-3.7,8.9-6c0.3-0.2,0.7-0.6,1-0.8c1-0.9,2-1.7,3-2.6c-0.6,0.7-1,1.3-1.3,2c-0.6,1-0.9,1.9-1,2.8c-0.2,0.9-0.2,1.7,0,2.4
	c0.1,0.8,0.4,1.3,1,1.8c0.3,0.2,0.7,0.4,1,0.6c0.3,0.1,0.7,0.1,0.9,0.1c0.3,0,0.6-0.1,0.9-0.1c-0.2,0.2-0.4,0.3-0.7,0.4
	c-0.2,0.1-0.6,0.2-0.8,0.4c-0.3,0.1-0.6,0.3-1,0.6c-0.3,0.2-0.7,0.4-1,0.8c-0.7,0.7-1.2,1.4-1.7,2.3c-0.4,0.9-0.7,1.8-0.8,2.7
	c-0.1,0.6-0.1,1,0,1.4c-0.1,0.7,0,1.4,0.1,2.1c1,3.7,5.2,3.9,8.7,2.6c2.8-1.1,5.6-3.2,8-5.3c0.3-0.2,0.6-0.4,0.9-0.7
	c3.6-2.9,6.3-5.8,9.7-6.6c3.4-0.9,5.8,0.6,5.2,3.2c-0.7,3.1-3,4-4.6,4c0.6-0.2,1-0.9,1-1.4c0-0.8-0.6-1.2-1.3-1
	c-0.8,0.1-1.3,0.9-1.3,1.6c0,0.1,0.1,0.4,0.1,0.4c0,0.2,0.4,1,2,1.1c1.6,0,4.7-1.3,5.5-4.7C230.6,39.6,230.6,38.6,230.3,37.9
	L230.3,37.9z"/>
<path fill="#010101" d="M280.2,14.6l11.5,57.6h-10.3l-2-12.5h-9.6l-2.4,12.5h-10.6l13-57.6L280.2,14.6L280.2,14.6z M278.9,60.6
	l0.2,1.2h-6.9l-2.4,12.5h-10.6l0.2-1.3h8.8l2.4-12.5h8.2L278.9,60.6z M272.3,49.6h5l-2.4-11.1L272.3,49.6z M274.9,43.3l0.8,3.7
	l-0.4,1.9h-1.7L274.9,43.3z M282.6,16.8l11.5,57.6h-10.3l-0.2-1.3h9.2l-11.1-56.3H282.6L282.6,16.8z M339.5,14.5v57.8h-9.8V40.7
	L322.5,62l0.1,0.2h-9.2l0.1-0.2l-7.2-21.3v31.5h-9.8V14.5h9.8l11.7,34.4l11.8-34.4L339.5,14.5L339.5,14.5z M307.3,47.6
	c0.2,0.7,0.4,1.2,0.7,1.9c0.2,0.6,0.4,1.2,0.7,1.9v23.1h-9.8v-1.3h8.5L307.3,47.6L307.3,47.6z M317.6,45.5l-9.8-28.8h0.9l9.3,27.6
	L317.6,45.5L317.6,45.5z M324.9,64.2l0.1,0.1h-9.1l0.1-0.1l-0.3-1.1h8l-0.1-0.1l5.1-14.9v5.2L324.9,64.2L324.9,64.2z M342,16.7v57.8
	H332v-1.3h8.5V16.7H342z M375.6,72.2h-28V14.6h28v9.9h-18.2v16.7h11.4v7.9h-11.4v13.6h18.1v9.6H375.6z M376.7,65h1.3v9.5h-28v-1.3
	h26.6V65L376.7,65z M378,16.8v9.9h-18.1v13h-1.3V25.5h18.1v-8.7C376.7,16.8,378,16.8,378,16.8z M371.1,43.4v7.9h-11.2v10.6h-1.3
	V50.1h11.2v-6.7H371.1z M240.5,72.2h5.3c1.8,0,3-0.4,3.3-1.2c0.4-0.9,0.7-1.8,0.7-2.8V14.5H240v45.8c0,0.7-0.1,1.1-0.3,1.4
	s-0.7,0.4-1.4,0.4h-4.9c-0.8,0-1.3-0.1-1.6-0.4c-0.2-0.3-0.3-0.8-0.3-1.4v-7.6l-9.8,2.7v12.8c0,1,0.2,2,0.7,2.8
	c0.4,0.9,1.6,1.2,3.3,1.2H240.5L240.5,72.2z"/>
<path fill="#010101" d="M232.7,54.6h1.3v5.9h-1.3V54.6z"/>
<path fill="#010101" d="M250.9,16.7V69c0,0.6,0,1-0.1,1.6c-0.1,0.4-0.2,0.9-0.6,1.3c-0.3,0.3-0.7,0.7-1.2,0.9
	c-0.6,0.2-1.2,0.3-2.1,0.3h-20.1c-1,0-1.7-0.1-2.1-0.3c0.3,0.4,0.7,0.9,1.2,1.2c0.6,0.3,1.3,0.4,2.4,0.4h19.9c0.9,0,1.7-0.1,2.2-0.3
	c0.6-0.2,0.9-0.6,1.2-0.9c0.2-0.4,0.4-0.9,0.6-1.3c0.1-0.4,0.1-1,0.1-1.6V16.7H250.9z M410.7,19.5v9.5l1.3-0.3v-7.9
	c0-0.8-0.1-1.6-0.3-2.2c-0.2-0.7-0.7-1.2-1.6-1.4c0.2,0.3,0.3,0.8,0.3,1.2C410.7,18.7,410.7,19.1,410.7,19.5L410.7,19.5z M393,25.7
	c-0.2,0.3-0.3,0.8-0.3,1.4v9h1.3v-7.8c0-0.7,0.1-1.1,0.3-1.4c0.2-0.3,0.7-0.4,1.6-0.4h2.9v-1.2h-4.3C393.7,25.4,393.1,25.5,393,25.7
	L393,25.7z M398.8,48.3H387c-0.8,0-1.6-0.1-2.2-0.4c0.3,0.4,0.7,0.9,1.2,1.2c0.6,0.3,1.3,0.4,2.3,0.4h10.5V48.3z M410.3,40.1
	c0.2,0.3,0.3,0.8,0.3,1.2c0.1,0.4,0.1,0.9,0.1,1.2v26c0,0.6,0,1-0.1,1.4c-0.1,0.4-0.2,0.9-0.6,1.3c-0.2,0.4-0.7,0.7-1.2,0.9
	c-0.6,0.2-1.2,0.3-2.1,0.3H387c-0.8,0-1.6-0.1-2.2-0.4c0.3,0.4,0.7,0.9,1.2,1.2c0.6,0.3,1.3,0.4,2.3,0.4h19.8c1.8,0,2.9-0.4,3.3-1.2
	c0.4-0.9,0.7-1.8,0.7-2.8v-26c0-0.8-0.1-1.6-0.3-2.2C411.6,40.8,411.1,40.4,410.3,40.1z"/>
<path fill="#010101" d="M392.7,55.9h1.3v4.7h-1.3V55.9z"/>
<path fill="#010101" d="M409.7,29.3V18.6c0-0.6,0-1-0.1-1.4c-0.1-0.4-0.2-0.9-0.6-1.3c-0.2-0.4-0.7-0.7-1.1-0.9
	c-0.6-0.2-1.2-0.3-2.1-0.3h-19.9c-0.9,0-1.7,0.1-2.1,0.3c-0.6,0.2-0.9,0.6-1.1,0.9c-0.2,0.4-0.4,0.8-0.6,1.3c-0.1,0.4-0.1,1-0.1,1.4
	v24.7c0,0.6,0,1,0.1,1.6c0.1,0.4,0.2,0.9,0.6,1.3c0.2,0.3,0.7,0.7,1.1,0.9c0.6,0.2,1.2,0.3,2.1,0.3h12.4c0.8,0,1.3,0.1,1.4,0.4
	c0.2,0.3,0.3,0.8,0.3,1.4V60c0,0.7-0.1,1.1-0.3,1.4c-0.2,0.3-0.7,0.4-1.4,0.4h-4.8c-0.8,0-1.2-0.1-1.4-0.4c-0.2-0.3-0.3-0.8-0.3-1.4
	v-5.7l-9.8,2.7v10.8c0,0.6,0,1,0.1,1.6c0.1,0.4,0.2,0.9,0.6,1.3c0.2,0.3,0.7,0.7,1.1,0.9c0.6,0.2,1.2,0.3,2.1,0.3h19.8
	c0.9,0,1.7-0.1,2.1-0.3c0.6-0.2,0.9-0.6,1.1-0.9s0.4-0.8,0.6-1.3c0.1-0.4,0.1-1,0.1-1.6V41.5c0-0.6,0-1-0.1-1.4
	c-0.1-0.4-0.2-0.9-0.6-1.3c-0.3-0.4-0.7-0.7-1.1-0.9c-0.6-0.2-1.2-0.3-2.1-0.3h-12.4c-0.8,0-1.3-0.1-1.4-0.4
	c-0.2-0.3-0.3-0.8-0.3-1.3v-9.5c0-0.7,0.1-1.1,0.3-1.4c0.2-0.3,0.7-0.4,1.4-0.4h4.7c0.8,0,1.2,0.1,1.4,0.4c0.2,0.3,0.3,0.8,0.3,1.4
	v5.6L409.7,29.3L409.7,29.3z M124,4c-1.7-2.6-5.7-4-10.5-4c-5.1,0-10.6,1.3-14.9,3.1c-4.2,1.7-9.1,4.3-14.5,8.1
	c-1.8-0.3-3.8-0.4-5.9-0.4c-15.6,0-36.4,5.9-53.5,18.4C6.9,42.3,0,54.9,0,63.5C0,71.8,6.6,75,15.9,75c17.5,0,33.8-15.8,47.6-34.6
	C71.3,30,76.7,22.8,82.2,17.2c1-1.2,2.2-2.2,3.4-3.4c3.4,2.1,4.6,5.9,3.3,10.7c-1.7,6.9-8.5,12.8-14.9,13.7
	c-1.3-0.1-2.6-0.4-4.6-0.4c-1.4,0-3.9,0.1-4,1.2c-0.1,0.9,1.7,1.2,3.6,1.2c1.7,0,2.6-0.1,4.3-0.4c2.9-0.3,9.1,2.1,8.7,9.5
	c-0.6,12.4-11.9,23-21.7,23c-2.7,0-6.1-1-5.7-3.6c0.3-1.7,2.1-2.4,3.6-3c1.8-0.8,3.9-2,3.9-4.3c0-2.4-2.1-3.6-4.7-3.6
	c-4.6,0-9.3,3.6-9.3,8.5c0,5.7,6.5,7.3,12.1,7.3c15.1,0,28.8-8.9,29.5-21.5c0.6-6.3-3.8-11.7-13-13.1v-0.1
	c7.2-1.1,17.8-6.1,19.1-14.4c1.2-6.1-2.7-10.2-8.2-12.4c4.2-3.4,8.5-6.1,11.9-7.7c4.6-2.1,9.8-3.3,14.1-3.3c4.6,0,8.1,1.4,9.8,3.4
	c0.4,0.4,0.6,0.9,0.9,0.8C124.6,5.2,124.4,4.8,124,4z M78.4,15.5c-7,5.7-18,16.4-27.8,29.2c-11.6,15.2-21,29-34.8,29
	c-6.6,0-9.8-4-9.8-9.9c0-7.8,5-20.9,21.4-33.5c15.9-12.1,35.6-18,50.1-18c1.8,0,3.4,0.1,4.8,0.4C81,13.6,79.7,14.5,78.4,15.5z
	 M212.5,1.2c-10.5,0.2-23.7,8.7-31.6,15c-9.7,7.8-17,14.7-25.8,25c-3.1,3.7-8.2,10.2-10,12.5c-2.8,2.7-5.8,5.5-7.3,6.8
	c-1.8,1.7-4,3.6-6.3,5.3c-1.8,1.3-3.9,2.8-5,3.4s-3,1.3-3.9,0.8c-0.9-0.8-0.3-2.1,0.1-3.4c0.6-1.2,1.6-2.9,2.2-4
	c3.8-5.6,9.1-13.5,17.6-23.7c5.3-6.5,15-18,21.4-21c-0.1-0.6-0.7-1-1.9-0.9c-1.7,0.1-3.8,0.9-7.7,3.9c-4.1,3.1-10.1,9-14.4,13.9
	c-7.5,8.6-13.8,16.7-15.6,18.9c-3.1,2.7-7.6,6.6-8.1,7.1l-0.1,0.1c-2,1.8-5.3,4.5-7.7,6.1c-5.6,3.8-9.9,4.7-11.5,4.7h-0.1
	c-1.8,0-2.8-1-2.8-2.9c0-0.8,0.2-1.9,0.8-2.9c2.9-0.8,7.2-2.2,10.9-4c3.8-1.9,7.8-4.5,8.1-7.7c0.1-1.7-0.9-3.4-3.7-3.4
	c-4.7,0-11.6,3.4-15.8,6.8c-3.1,2.4-6.7,6.7-6.8,10.9c-0.1,3.3,2.2,5.2,6.8,5.2c4.3,0,9.5-1.9,14.8-5.5c2.2-1.6,5.8-4.6,7.5-6
	c0.3-0.2,0.6-0.4,0.7-0.7c1.3-1.2,3.2-2.9,5-4.5h0.1c-1.8,2.1-3.4,4.6-4.7,6.7c-1.3,2.2-2.2,4.5-2.4,6.2c-0.1,2.2,1.3,3.4,3.8,3.4
	h0.1c4.1,0,8.7-3,11.4-5c2.8-2.1,6.1-5,7.6-6.5c1.2-1.1,3.3-3,5.3-4.8l0.1,0.1c-3.8,4.8-7.1,9.7-7.2,12.8c-0.1,2.2,1.3,3.4,3.9,3.4
	c4.1,0,8.8-3.1,11.4-5c2.7-2,5.5-4.5,7.1-6c0.7-0.7,1.4-1.3,1.8-1.6l0.1,0.1c-2.6,3-3.7,5.3-3.8,7.8c-0.1,3.3,2,5,6.7,5
	c4.3,0,9-1.7,14.2-5.2c2.2-1.6,6.3-4.8,8-6.3c0.8-0.7,1.2-1.2,1-1.7c-0.2-0.2-0.7-0.1-1.3,0.6c-2.4,2.1-5.3,4.5-7.7,6.1
	c-5.6,3.8-9.9,4.7-11.5,4.7c-1.9,0-2.9-1-2.9-2.9c0-0.8,0.2-1.9,0.8-2.9c2.9-0.8,7.2-2.2,10.9-4c3.8-1.9,7.8-4.5,8.1-7.7
	c0.1-1.7-0.9-3.4-3.7-3.4h-0.3c-3.4,0-7.2,1.7-10.9,3.6c-2.4,1.2-4.8,2.8-6.2,3.8c-1.9,1.3-3,2.2-4.7,3.8l-0.3,0.3
	c-1.2,1.1-2.7,2.2-4.3,3.6c-1.8,1.3-3.6,2.7-5.2,3.6c-1.1,0.7-3,1.3-3.9,0.8c-0.8-0.6-0.3-2,0.2-3.4c0.6-1.1,1.3-2.8,2.1-4
	c3.4-5.6,10.8-16.1,15.5-22c7.2-9.1,15.6-17.9,21-23.1c6.3-5.9,16.9-13.1,28.7-13.4c10.5-0.2,15.8,3.8,15.8,9.7c0,2-0.6,4.1-1.9,5.8
	c-0.7,0.8-1.1,1-1,1.2s0.8-0.1,1.6-0.9c1.3-1.6,2.9-4,2.9-7.3C228.4,6.2,221.6,1,212.5,1.2z M102.2,56.1c2.6-2.4,4.5-3.7,5.6-3.7
	s1.7,0.7,1.6,1.8c-0.1,1.8-2,4.5-5.2,6.6c-2.7,1.8-6.1,3.1-8.6,3.8C97,62,100.1,58,102.2,56.1z M171.5,56.1c2.6-2.4,4.5-3.7,5.6-3.7
	c1.1,0,1.7,0.7,1.6,1.8c-0.1,1.8-2,4.5-5.2,6.6c-2.7,1.8-6.1,3.1-8.6,3.8C166.2,62,169.5,58,171.5,56.1z"/>
</svg>
