<svg xmlns="http://www.w3.org/2000/svg" viewBox="0 0 345.8 175.3"><defs><style>.a{fill:#010101}</style></defs><title>mail-send</title><path class="a" d="M339.8 175.2h1.4l.3-.2.3-.2.3-.2.3-.2.3-.2.3-.2.5-.4h.2l.4-.5.2-.3.2-.3.2-.3.2-.3.2-.4v-2.4a7.5 7.5 0 0 0 0-.7V7.5a7.5 7.5 0 0 0-6.8-7.5H99l-.4.2-.3.2-.3.2-.3.2-.3.2-.3.2-.3.2-.3.3h-.2L96 2l-.2.3-.2.3-.2.3-.2.3-.2.3v50.3a7.5 7.5 0 0 0 15 0V24.2l66.7 59-1 .8-65.7 65.7v-49.3a7.5 7.5 0 0 0-15 0v9.2H55.8a7.5 7.5 0 1 0 0 15h38.8v43.2a7.5 7.5 0 0 0 7.5 7.5h237.7zm-9-25.5L265.1 84h-.1l49.4-42a7.5 7.5 0 1 0-9.7-11.4l-84.4 71.6L121.9 15h209v134.7zm-145-55.1a7.5 7.5 0 0 0 1.3-1.8l28.1 24.8a7.5 7.5 0 0 0 9.8.1l28.6-24.3.9 1.1 65.7 65.7h-200z"/><path class="a" d="M7.5 85.4h126.7a7.5 7.5 0 0 0 0-15H7.5a7.5 7.5 0 0 0 0 15zm13.1-41.3h56.9a7.5 7.5 0 0 0 0-15H20.6a7.5 7.5 0 1 0 0 15zm41.9 97.1h-55a7.5 7.5 0 0 0 0 15h55a7.5 7.5 0 0 0 0-15z"/></svg>