<?xml version="1.0" encoding="utf-8"?>
<!-- Generator: Adobe Illustrator 21.1.0, SVG Export Plug-In . SVG Version: 6.00 Build 0)  -->
<svg version="1.1" id="Layer_1" xmlns="http://www.w3.org/2000/svg" xmlns:xlink="http://www.w3.org/1999/xlink" x="0px" y="0px"
	 viewBox="0 0 25.1 32" enable-background="new 0 0 25.1 32" xml:space="preserve">
<path fill="#FFFFFF" d="M17.3,0H0v32h25.1V7.8L17.3,0z M14.9,16.5c0,0.3-0.2,0.5-0.5,0.5H9.1c-0.3,0-0.5-0.2-0.5-0.5S8.8,16,9.1,16
	h5.3C14.7,16,14.9,16.2,14.9,16.5z M5.2,12.5l0.2-0.4c0.2-0.4,0.4-0.6,0.7-0.8l1.2-0.6c-0.5-0.3-0.9-0.8-1.1-1.5
	C5.8,9,5.6,8.6,5.6,8.2V7.8c0-0.4,0.2-0.7,0.4-0.9C6.1,6.6,6.1,6.3,6.3,6c0.1-0.1,0.1-0.2,0.1-0.3c0-0.1,0.1-0.1,0.1-0.1
	c0,0,0-0.1,0-0.3c0-0.2-0.1-0.3-0.1-0.5c0-0.2,0-0.3,0.1-0.5C6.7,4,7.2,4,7.4,4.3c0,0.1,0.1,0.1,0.3,0.2c0.3,0.2,0.6,0.3,1,0.2
	c0.1,0,0.2,0,0.2,0c2.1,0,2.8,1.1,3,2.1c0.3,0.2,0.4,0.6,0.4,0.9v0.4c0,0.4-0.2,0.8-0.6,1.1c-0.2,0.7-0.6,1.2-1.1,1.5l1.1,0.6
	c0.3,0.2,0.6,0.5,0.8,0.8l0.2,0.4l-0.4,0.3c-1,0.7-2.2,1.1-3.4,1.1c-1.2,0-2.4-0.4-3.4-1.1L5.2,12.5z M6.9,16.5
	c0,0.1-0.1,0.3-0.2,0.4c-0.1,0.1-0.2,0.2-0.4,0.2c-0.1,0-0.3-0.1-0.4-0.2c-0.1-0.1-0.2-0.2-0.2-0.4c0-0.1,0.1-0.3,0.2-0.4
	c0.2-0.2,0.6-0.2,0.8,0C6.9,16.3,6.9,16.4,6.9,16.5z M5.9,19.2c0-0.3,0.2-0.5,0.5-0.5h9.1c0.3,0,0.5,0.2,0.5,0.5
	c0,0.3-0.2,0.5-0.5,0.5H6.4C6.1,19.7,5.9,19.5,5.9,19.2z M8.6,25.5c0,0.5-0.6,0.7-0.9,0.4c-0.5-0.4-1-0.8-1.5-1.3
	c-0.5-0.4,0.2-1.2,0.8-0.8c0.2,0.2,0.4,0.4,0.7,0.6c0.1-1.2,0.5-2.4,1.7-3c0.6-0.3,1.1,0.6,0.5,0.9C8.7,22.9,8.7,24.3,8.6,25.5z
	 M16.6,24.7c-0.1-0.2-1.8,0.6-2.3,0.5c-0.4-0.1-0.7-0.3-0.9-0.6c-1.1,0.6-2.4,0.9-3.4-0.1c-0.5-0.5,0.3-1.3,0.8-0.8
	c0.8,0.9,1.8,0.2,2.5-0.3c0.2-0.1,0.6-0.1,0.7,0.2c0.6,1,1.9-0.1,2.7-0.1c0.4,0,0.6,0.3,0.9,0.6C17.9,24.7,17,25.2,16.6,24.7z
	 M18.5,19.6c-0.1,0.1-0.2,0.2-0.4,0.2s-0.3-0.1-0.4-0.2c-0.1-0.1-0.2-0.2-0.2-0.4c0-0.1,0.1-0.3,0.2-0.4c0.2-0.2,0.6-0.2,0.8,0
	c0.1,0.1,0.2,0.2,0.2,0.4C18.7,19.3,18.6,19.5,18.5,19.6z M21.2,19.6c-0.1,0.1-0.2,0.2-0.4,0.2c-0.1,0-0.3-0.1-0.4-0.2
	c-0.1-0.1-0.2-0.2-0.2-0.4c0-0.1,0.1-0.3,0.2-0.4c0.2-0.2,0.6-0.2,0.8,0c0.1,0.1,0.2,0.2,0.2,0.4C21.3,19.3,21.3,19.5,21.2,19.6z
	 M20.8,17.1h-3.7c-0.3,0-0.5-0.2-0.5-0.5s0.2-0.5,0.5-0.5h3.7c0.3,0,0.5,0.2,0.5,0.5S21.1,17.1,20.8,17.1z M16.5,8.5V1.1L24,8.5
	H16.5z"/>
</svg>
