<?xml version="1.0" encoding="utf-8"?>
<!-- Generator: Adobe Illustrator 21.1.0, SVG Export Plug-In . SVG Version: 6.00 Build 0)  -->
<svg version="1.1" id="Layer_1" xmlns="http://www.w3.org/2000/svg" xmlns:xlink="http://www.w3.org/1999/xlink" x="0px" y="0px"
	 viewBox="0 0 32 32" style="enable-background:new 0 0 32 32;" xml:space="preserve">
<style type="text/css">
	.st0{fill:#040305;}
</style>
<path class="st0" d="M24.4,16l6-6c2-2,2-5.4,0-7.4l-1-1c-1-1-2.3-1.5-3.7-1.5C24.3,0,23,0.5,22,1.5l-6,6l-6-6C9,0.5,7.7,0,6.3,0
	C4.9,0,3.5,0.5,2.6,1.5l-1,1c-2,2-2,5.4,0,7.4l6,6l-6,6c-2,2-2,5.4,0,7.4l1,1c1,1,2.3,1.5,3.7,1.5c1.4,0,2.7-0.5,3.7-1.5l6-6l6,6
	c1,1,2.3,1.5,3.7,1.5c1.4,0,2.7-0.5,3.7-1.5l1-1c2-2,2-5.4,0-7.4L24.4,16z M28.8,27.8l-1,1c-0.6,0.6-1.3,0.8-2.1,0.8
	c-0.7,0-1.5-0.3-2-0.8L16,21.1l-7.7,7.7c-0.6,0.6-1.3,0.8-2,0.8s-1.5-0.3-2-0.8l-1-1c-1.1-1.1-1.1-3,0-4.1l7.7-7.7L3.2,8.3
	c-1.1-1.1-1.1-3,0-4.1l1-1c0.6-0.6,1.3-0.8,2-0.8s1.5,0.3,2,0.8l7.7,7.7l7.7-7.7c0.6-0.6,1.3-0.8,2-0.8c0.7,0,1.5,0.3,2.1,0.8l1,1
	c1.1,1.1,1.1,3,0,4.1L21.1,16l7.7,7.7C29.9,24.8,29.9,26.7,28.8,27.8z"/>
</svg>
