<svg xmlns="http://www.w3.org/2000/svg" viewBox="0 0 317.3 307.1"><path d="M129.5 197.5L97 157.9H85.9v39.6h-5.7V106h19.5c5.4 0 10.2.6 14.4 1.9 4.2 1.3 7.7 3 10.5 5.2 2.8 2.3 4.9 5.2 6.3 8.6 1.4 3.4 2 7.2 2 11.2.1 4.3-.8 8-2.6 11.2-1.9 3.1-4.1 5.8-6.8 7.9-1.5 1.1-3.7 2.2-6.7 3.5-3 1.2-7.1 2-12.5 2.4l33 39.8h-7.8v-.2zm-25.2-45.3c2.7 0 5.4-.4 8.2-1.1 2.7-.8 5.2-2 7.4-3.7 2.2-1.7 3.9-3.7 5.2-6.1 1.3-2.3 2-5.2 2.1-8.5-.1-3.4-.6-6.4-1.6-8.9s-2.5-4.7-4.6-6.5c-2.2-1.8-5.1-3.2-8.5-4.2-3.5-1-7.8-1.5-12.9-1.5H85.9v40.5h18.4zm41.6-46.2h6.3l34.3 83.1 33.8-83.1h6.5l-40.3 98.2-40.6-98.2zm154.5 91.5l-11.6-27.1h-45.6l-11.7 27.1h-6.1l40.5-96.6 40.6 96.6h-6.1zm-14-32.8l-20.5-51.2-20.4 51.2h40.9z"/><path d="M301.5 243.2c-15.4 13.9-33.2 24.8-53.3 32.8s-41.6 12.2-64.5 12.6c-23.3.4-44.8-2.7-64.4-9.4-19.6-6.7-36.6-16-51-27.9s-25.6-26-33.8-42.3c-8.1-16.3-12.4-33.7-12.7-52.2-.4-18.7 3.2-36.4 10.7-53.1C40 87.1 50.7 72.5 64.6 60.2c13.9-12.4 30.5-22.3 49.9-29.8s40.7-11.4 64-11.9c23.3-.4 45.1 2.9 65.5 9.9 20.4 7.1 38.5 17.2 54.5 30.5l14.7-13.4c-17.9-14.5-38.2-25.9-61.1-34S204.6-.5 178.2.1c-26.4.5-50.6 4.9-72.6 13.3-22 8.3-40.9 19.6-56.7 33.8C33.2 61.7 21 78.3 12.4 97.1 3.7 115.8-.4 135.9 0 157.2c.4 21 5.3 40.7 14.6 58.9 9.3 18.3 22.2 34.3 38.5 48.3 17.5 14.2 37.2 24.8 59.1 31.9 21.9 7 45.9 10.6 71.9 10.8 26.4-.5 50.8-5.3 73.4-14.3s42.5-21.1 59.8-36.3l-15.8-13.3z"/></svg>