<svg xmlns="http://www.w3.org/2000/svg" viewBox="0 0 421.9 68.8"><path fill="none" d="M360.6 34.1c-1.8 0-3.3.6-4.5 1.9-1.2 1.2-1.8 2.8-1.8 4.6s.6 3.3 1.9 4.5 2.8 1.8 4.5 1.8c1.8 0 3.3-.6 4.5-1.9 1.2-1.3 1.8-2.9 1.8-4.7s-.6-3.2-1.9-4.4c-1.2-1.2-2.8-1.8-4.5-1.8zm27.9 0c-1.8 0-3.3.6-4.5 1.9-1.2 1.2-1.8 2.8-1.8 4.6s.6 3.3 1.9 4.5 2.8 1.8 4.5 1.8c1.8 0 3.3-.6 4.5-1.9 1.2-1.3 1.8-2.9 1.8-4.7s-.6-3.2-1.9-4.4-2.8-1.8-4.5-1.8zm-113.2-.5c-1.2 0-2.2.3-3.1 1-.5.4-1.2 1.2-2.2 2.5h10.6c-1.3-2.3-3.1-3.5-5.3-3.5zm-126.9 0c-1.2 0-2.2.3-3.1 1-.5.4-1.2 1.2-2.2 2.5h10.6c-1.3-2.3-3.1-3.5-5.3-3.5zm73.4.5c-1.8 0-3.3.6-4.5 1.9-1.2 1.2-1.8 2.8-1.8 4.6s.6 3.3 1.9 4.5 2.8 1.8 4.5 1.8c1.8 0 3.3-.6 4.5-1.9 1.2-1.3 1.8-2.9 1.8-4.7s-.6-3.2-1.9-4.4c-1.2-1.2-2.8-1.8-4.5-1.8zm198 13.7c0-.5-.4-.6-.8-.6h-.8v1.2h.6c.5 0 1 0 1-.6z"/><path fill="none" d="M418.9 46c-1.4 0-2.5 1.2-2.5 2.6 0 1.4 1.1 2.6 2.5 2.6s2.5-1.1 2.5-2.6c0-1.4-1.1-2.6-2.5-2.6zm1.1 4.4l-1-1.5h-.7v1.4h-.4v-3.4h1.3c.8 0 1.1.3 1.1 1 0 .6-.4.9-.9 1l1 1.5h-.4z"/><path fill="#010101" d="M221.6 27.5c-3.4 0-6.4 1.3-9 3.8-2.5 2.5-3.8 5.6-3.8 9 0 3.6 1.3 6.7 3.8 9.2 2.6 2.5 5.6 3.8 9.2 3.8 3.5 0 6.6-1.3 9.1-3.8s3.8-5.5 3.8-9.1c0-3.6-1.3-6.7-3.8-9.2-2.5-2.5-5.6-3.7-9.3-3.7zm4.8 17.5c-1.2 1.3-2.7 1.9-4.5 1.9-1.7 0-3.2-.6-4.5-1.8s-1.9-2.7-1.9-4.5.6-3.4 1.8-4.6c1.2-1.3 2.7-1.9 4.5-1.9 1.7 0 3.3.6 4.5 1.8 1.3 1.2 1.9 2.6 1.9 4.4s-.6 3.4-1.8 4.7zm26.4-20.7v18c0 3.5-.1 7-.5 10.3h7.2v-31c0-1.6.1-3.5.2-5.7h-7.1c.1 2.8.2 5.6.2 8.4zm-7 22.3c-1.1 0-1.7-1.2-1.7-3.6v-8.7c2.5 0 4.3.1 5.5.1V28c-2.5.1-4.3.1-5.5 0 .1-4.6.2-7.5.2-8.6h-7V28h-2.6v6.3h2.9v9.6c0 6.1 2.2 9.2 6.7 9.2 1.3 0 3.3-.6 5.9-1.7l-1.8-5.2c-1 .3-1.9.4-2.6.4zm41.8-4.9zm-2-8.7c-.9-1.7-2.4-3-4.3-4s-3.8-1.5-5.8-1.5c-3.6 0-6.6 1.2-9.1 3.8-2.5 2.6-3.7 5.7-3.7 9.4 0 3.5 1.2 6.5 3.7 9 2.4 2.5 5.4 3.7 9 3.7 2.5 0 4.8-.5 6.7-1.6 1.7-1 3.4-2.4 5.2-4.5l-4.7-4.2c-2.5 2.5-5 3.8-7.3 3.8-3 0-4.9-1.7-5.7-5.2h18c0-3.8-.6-6.8-2-8.7zM270 37.1c1-1.3 1.7-2.1 2.2-2.5.9-.7 1.9-1 3.1-1 2.2 0 4 1.2 5.3 3.5H270zm-109.3 4.6zm-27.4-4.2c0-2.8-.8-5.1-2.5-6.9-1.6-1.8-3.8-2.7-6.6-2.7-1.6 0-3.3.5-5.2 1.4V15.9h-6.9v31.9c0 .5 0 1.3-.1 2.4-.1 1.1-.1 1.9-.1 2.4v.2h7.1V35.5c1.3-.9 2.6-1.3 3.7-1.3 2.6 0 3.9 1.5 3.9 4.5v9.8c0 .6-.1 2-.2 4.2h7.1l-.2-1.5V37.5zM82.5 22.8c1.9-.2 3.9-.3 6-.3h4.6V45c0 .5-.1 3-.4 7.6h7.2V22.5h3.7c1 0 2.6.1 4.7.3l2.6-6.9H84.3l-1.8 6.9zm121.9 2.1c-.4-4.1-.6-7.1-.7-9.1h-4c-1.8 3-3.5 6-5.3 9-2.1 3.6-3.8 6.6-5.1 9.1l-.8-1.7-10.1-16.4h-3.7c-1.1 12.3-1.9 21.5-2.4 27.6-.3 3.4-.7 6.4-1.4 9.2h7.9c0-.3 0-1.3-.1-3 0-1.2 0-2.2.1-3l1.2-13.1c.1-1.4.1-2.5.1-3.2 0 .7 1.4 3.4 4.2 8 1.8 2.8 3.5 5.6 5.2 8.4l8.2-14c.4-1 .8-1.7 1-2.3 0 1.7 0 3.8.3 6.3.2 2.1.5 4.2.7 6.3.3 2.8.5 6 .6 9.6h7.4c-.6-2.8-1.1-5.8-1.4-9l-1.9-18.7zm-50 4.1c-1.9-1-3.8-1.5-5.8-1.5-3.6 0-6.6 1.2-9.1 3.8-2.5 2.6-3.7 5.7-3.7 9.4 0 3.5 1.2 6.5 3.7 9 2.4 2.5 5.4 3.7 9 3.7 2.5 0 4.8-.5 6.7-1.6 1.7-1 3.4-2.4 5.2-4.5l-4.7-4.2c-2.5 2.5-5 3.8-7.3 3.8-3 0-4.9-1.7-5.7-5.2h18c0-3.8-.6-6.8-2-8.7-.9-1.7-2.4-3-4.3-4zm-11.3 8.1c1-1.3 1.7-2.1 2.2-2.5.9-.7 1.9-1 3.1-1 2.2 0 4 1.2 5.3 3.5h-10.6zm204.2-14.4l2.6-6.8h-25.7v36.7h7c0-.6 0-1.5-.1-2.8-.1-1.3-.1-2.3-.1-3v-9.7h13.9l2-6.5-4.6.2h-4.1l-7.2-.1v-8.3h8c-.3 0 2.5.1 8.3.3z"/><path fill="#010101" d="M305.1 32.2l-4.1 9.6c-4.6-9.2-7.1-14.3-7.6-15.3l-6.1 3 10.2 20.3-1.5 3.6c-.7 1.5-1.6 2.3-2.5 2.3-.8 0-2-.4-3.7-1.2l-2.2 5.9c2.7 1.2 4.7 1.8 6.2 1.8 2.5 0 4.7-1.2 6.5-3.6.9-1.3 2.1-3.6 3.6-7 4.6-10.5 8-18.4 10.3-23.6h-7.6c-.6 1.9-1.1 3.3-1.5 4.2zm55.3-4.7c-3.5 0-6.4 1.3-9 3.8-2.5 2.5-3.8 5.6-3.8 9 0 3.6 1.3 6.7 3.8 9.2 2.6 2.5 5.6 3.8 9.2 3.8 3.5 0 6.6-1.3 9.1-3.8s3.8-5.5 3.8-9.1c0-3.6-1.3-6.7-3.8-9.2s-5.6-3.7-9.3-3.7zm4.8 17.5c-1.2 1.3-2.7 1.9-4.5 1.9-1.7 0-3.2-.6-4.5-1.8s-1.9-2.7-1.9-4.5.6-3.4 1.8-4.6c1.2-1.3 2.7-1.9 4.5-1.9 1.7 0 3.3.6 4.5 1.8 1.3 1.2 1.9 2.6 1.9 4.4s-.6 3.4-1.8 4.7zm53.7.6c-1.7 0-3 1.3-3 3s1.3 3 3 3 3-1.3 3-3-1.3-3-3-3zm0 5.6c-1.4 0-2.5-1.2-2.5-2.6 0-1.4 1.1-2.6 2.5-2.6s2.5 1.2 2.5 2.6c0 1.5-1.1 2.6-2.5 2.6z"/><path fill="#010101" d="M420.3 47.9c0-.7-.3-1-1.1-1h-1.3v3.4h.4v-1.4h.7l1 1.5h.4l-1-1.5c.5-.1.9-.4.9-1zm-1.5.5h-.6v-1.2h.8c.4 0 .8.1.8.6 0 .6-.5.6-1 .6zM405 24.3v18c0 3.5-.2 7-.6 10.3h7.4v-31c0-1.6.1-3.5.2-5.7h-7.2c.1 2.8.2 5.6.2 8.4zm-16.7 3.2c-3.5 0-6.5 1.3-9 3.8s-3.8 5.6-3.8 9c0 3.6 1.3 6.7 3.8 9.2 2.6 2.5 5.6 3.8 9.2 3.8 3.5 0 6.6-1.3 9.1-3.8s3.8-5.5 3.8-9.1c0-3.6-1.3-6.7-3.8-9.2s-5.6-3.7-9.3-3.7zm4.8 17.5c-1.2 1.3-2.7 1.9-4.5 1.9-1.7 0-3.2-.6-4.5-1.8s-1.9-2.7-1.9-4.5.6-3.4 1.8-4.6c1.2-1.3 2.7-1.9 4.5-1.9 1.7 0 3.2.6 4.5 1.8s1.9 2.6 1.9 4.4-.6 3.4-1.8 4.7z"/><path fill="#FFF" d="M0 0h68.9v68.8H0V0zm73.3 61.9c1.6 0 2.9 1.3 2.9 2.9 0 1.7-1.3 2.9-2.9 2.9s-2.9-1.3-2.9-2.9 1.3-2.9 2.9-2.9zm0 5.4c1.3 0 2.4-1.1 2.4-2.5s-1-2.5-2.4-2.5-2.4 1.1-2.4 2.5c0 1.5 1 2.5 2.4 2.5zm-1.1-4.1h1.3c.8 0 1.2.3 1.2 1 0 .6-.4.9-.9.9l1 1.5h-.6l-.9-1.5h-.6v1.5h-.5v-3.4zm.5 1.5h.6c.5 0 .9 0 .9-.6 0-.5-.4-.5-.7-.5h-.7v1.1h-.1z"/><path fill="#FFF" d="M1.5 1.5h66.1v66.1H1.5V1.5z"/><path fill="#FCCC99" d="M51.6 31.5c-.2-.5-11.3-13.6-11.3-13.6l-2.5-2.5-3-13.9H1.5v66.1h39.6l1.2-.7c6.9-4.8 3.4-13.1-.5-15.1-1-.6-4.8 3-12.3-2.1-5.5-3.8-4.2-11.3-4.2-11.3s5 8 14.7 6.3c1-5.1.8-4.3 2-9.4v-.5c5.6 0 7.1.1 8.3-.1 1.5-.1 2.1-1.7 1.3-3.2z"/><path fill="none" stroke="#010101" stroke-width="1.005" stroke-linecap="round" d="M42.3 67c6.9-4.8 3.4-13.1-.5-15.1-1-.6-4.8 3-12.3-2.1-5.5-3.8-4.2-11.3-4.2-11.3s5 8 14.7 6.3c1-5.1.8-4.3 2-9.4v-.5m-4.8-5c-3.9.5-2.4 5.1 0 4.9H42c5.6 0 7.1.1 8.3-.1 1.4-.1 2-1.7 1.3-3.2-.2-.5-11.3-13.7-11.3-13.7l-2.5-2.5"/><ellipse fill="#FFF" cx="22" cy="22.3" rx="7.3" ry="6.3"/><circle fill="#346799" cx="19.9" cy="22.9" r="4.6"/><ellipse fill="none" stroke="#010101" stroke-width="1.005" cx="22" cy="22.3" rx="7.3" ry="6.3"/><path fill="none" stroke="#010101" stroke-width="1.005" stroke-linecap="round" d="M18.5 10.1c4.2-1.7 9.5-.1 11.1 1.4"/><path fill="#346799" d="M60.6 20.2c-1.3-3.5-3.9-8-9-11.8-3.6-2.7-8-4.8-13.1-6.2H61c1.1 2.7 1.7 5.6 1.7 8.4 0 4.4-1.3 7.8-2.1 9.6z"/><path fill="#010101" d="M60.5 2.8c1 2.5 1.5 5.1 1.5 7.8 0 3.3-.8 6-1.5 7.9-1.5-3.3-4.1-7.2-8.6-10.7-2.7-2-5.8-3.7-9.3-5h17.9m.9-1.3H31.9c8.8 1.3 14.9 4.1 19.3 7.4 5.6 4.3 8.1 9.3 9.2 13 0 0 3-4.6 2.9-11.3.1-2.8-.4-5.8-1.9-9.1z"/><path fill="#FFCD34" d="M2.2 66.9V49.6c2 0 9.3.4 16.7 3.5 8.4 3.6 14.8 8.2 19 13.8H2.2z"/><path fill="#010101" d="M2.8 50.3c2.6.1 9.2.6 15.8 3.4 7.8 3.3 13.8 7.5 17.9 12.6H2.8v-16m-.9-1.4h-.4v18.7h37.7c-3.3-4.7-9-10.4-20.1-15.1-7.9-3.4-15.5-3.6-17.2-3.6z"/><path fill="#369846" d="M5.2 31c-1.1-1.1-2.5-2.9-3-4.6V2.2h15.5C15 4.2 11.2 7.7 8.5 13c-2.8 5.4-3.9 11.4-3.3 18z"/><path fill="#010101" d="M15.8 2.8c-3.2 2.7-6 6.1-7.9 9.8-2.5 5-3.7 10.5-3.5 16.4-.6-.8-1.2-1.8-1.6-2.7V2.8h13m4.1-1.3H1.5v25.1c1 3.1 4.5 6.3 4.5 6.3-1.1-8 .4-14.5 3-19.6 2.9-5.5 7.1-9.4 10.9-11.8z"/><path fill="#CA3A28" d="M36 19.8c.3-2.5.4-8-3.5-12.6-1.8-2.2-4.3-3.9-7.3-5.1H45c.4 4.5.1 7.4-1.2 10.3-.2.4-.3.7-.5 1.1-1.7 3-5.4 5.3-7.3 6.3z"/><path fill="#010101" d="M44.3 2.8c.3 4.1 0 6.8-1.2 9.4-.1.3-.3.7-.5 1-1.3 2.4-3.9 4.3-5.9 5.4.1-2.9-.3-7.7-3.8-11.8-1.3-1.6-3-2.9-4.9-4h16.3m1.2-1.3H20.6C26.2 2.7 29.7 5 32 7.7c4.1 4.9 3.7 11 3.1 13.3 0 0 6.4-2.8 8.7-7.1.2-.4.4-.7.5-1.1 1.4-3.2 1.7-6.4 1.2-11.3z"/><circle fill="#FFCD34" cx="36.5" cy="23.8" r="4.7"/><path fill="#010101" d="M36.5 19.6c2.3 0 4.2 1.9 4.2 4.2S38.8 28 36.5 28s-4.2-1.9-4.2-4.2 1.9-4.2 4.2-4.2m0-1c-2.9 0-5.2 2.3-5.2 5.2s2.3 5.2 5.2 5.2 5.2-2.3 5.2-5.2-2.4-5.2-5.2-5.2z"/><circle fill="#FFCD34" cx="60.6" cy="24.5" r="4.7"/><path fill="#010101" d="M60.6 20.3c2.3 0 4.2 1.9 4.2 4.2s-1.9 4.2-4.2 4.2-4.2-1.9-4.2-4.2 1.9-4.2 4.2-4.2m0-1c-2.9 0-5.2 2.3-5.2 5.2s2.3 5.2 5.2 5.2 5.2-2.3 5.2-5.2-2.3-5.2-5.2-5.2z"/><circle fill="#FFCD34" cx="7.1" cy="36" r="4.7"/><path fill="#010101" d="M7.1 31.8c2.3 0 4.2 1.9 4.2 4.2s-1.9 4.2-4.2 4.2-4.2-1.9-4.2-4.2 1.9-4.2 4.2-4.2m0-1c-2.9 0-5.2 2.3-5.2 5.2s2.3 5.2 5.2 5.2 5.2-2.3 5.2-5.2-2.3-5.2-5.2-5.2z"/><path fill="#010101" d="M66.1 3v63.2H3V3h63.1m1.5-1.5H1.5v66.1h66.1V1.5z"/></svg>