<?xml version="1.0" encoding="utf-8"?>
<!-- Generator: Adobe Illustrator 21.1.0, SVG Export Plug-In . SVG Version: 6.00 Build 0)  -->
<svg version="1.1" id="Layer_1" xmlns="http://www.w3.org/2000/svg" xmlns:xlink="http://www.w3.org/1999/xlink" x="0px" y="0px"
	 viewBox="0 0 44 44" style="enable-background:new 0 0 44 44;" xml:space="preserve">
<style type="text/css">
	.st0{fill:#1C1F21;}
</style>
<path class="st0" d="M13.3,31.1c0,0.1-0.1,0.1-0.2,0c-0.1,0-0.4-0.2-0.8-0.4c2.2,2.9,5.5,5,9.3,5.6c0.6,0.1,1.3,0.2,1.9,0.2
	c3.6,0.1,7-1.2,9.6-3.4c-0.1,0.1-0.2,0.2-0.4,0.2c-0.1,0.1-0.2,0.1-0.3,0.2c-0.2,0.1-3.7,2.1-9.6,2.1h-0.3c-0.2,0-0.3,0-0.4-0.1
	l-0.1,0l-0.2,0c0,0-0.1,0-0.1-0.1c0,0,0-0.1,0-0.1c0-0.1,0.1-0.1,0.1-0.1l0.1,0c0.1,0,0.3,0,0.5,0c0.1,0,0.2,0,0.3,0l0.1,0
	c0.3,0,0.8,0,1.2-0.1c0.4,0,0.8-0.1,1.3-0.1c0,0,0.1,0,0.1-0.1c0.1-0.2,0.2-0.4,0.2-0.7l0,0c0,0,0-0.1,0-0.1c0,0,0,0-0.1,0h0l-0.1,0
	c-0.7,0.1-1.3,0.2-2,0.2c-1.1,0-2.1,0-3.2-0.1c-1-0.1-1.7-0.3-2.2-0.4c-0.3-0.1-0.5-0.1-0.6-0.2l-0.2-0.1c0,0-0.1,0-0.1-0.1
	c0,0,0-0.1,0-0.1c0-0.1,0.1-0.1,0.2-0.1c0,0,2,0.5,4.4,0.5c0.7,0,1.3,0,1.9-0.1l0.1,0c0,0,0,0,0.1,0c0.1-0.1,0.1-0.2,0.2-0.3
	c0.1-0.2,0.2-0.4,0.3-0.5l0-0.1c0,0,0-0.1,0-0.1c0,0-0.1,0-0.1,0h0l-0.3,0c-0.2,0-0.5,0-0.7,0.1c-0.1,0-0.3,0-0.4,0l-0.2,0l-0.4,0
	c0,0,0,0,0,0l0,0c0,0,0,0-0.1,0c0,0,0,0,0,0l0,0c0,0,0,0,0,0l-0.1,0c-0.3,0-0.5,0-0.8,0c-0.6,0-1.1-0.1-1.6-0.2l0,0
	c-0.1,0-0.3,0-0.4-0.1l0,0l-0.3-0.1l0,0c-0.5-0.1-1-0.2-1.4-0.4c-0.5-0.1-0.9-0.3-1.3-0.5L16,31.3c-0.4-0.2-0.8-0.4-1.1-0.5
	c-0.3-0.2-0.6-0.3-0.7-0.4l-0.2-0.1l0,0c0,0-0.1-0.1-0.1-0.1s0-0.1,0-0.1c0-0.1,0.1-0.1,0.2,0c0,0,0.1,0.1,0.2,0.1
	c0.2,0.1,0.4,0.2,0.6,0.3l0.1,0c0,0,0,0,0.1,0c0,0,0.1,0,0.1,0c0,0,0-0.1,0-0.1l0-0.1c-0.1-0.3-0.2-0.7-0.3-1.1l0-0.2l0,0
	c0,0,0-0.1-0.1-0.1c-0.3-0.2-0.7-0.3-1-0.5l-0.1,0c0,0,0,0-0.1,0c0,0,0,0-0.1,0c0,0-0.1,0.1,0,0.1l0,0.1c0,0.2,0.1,0.3,0.2,0.4
	c0,0.1,0,0.1,0,0.2c-0.1,0-0.1,0-0.2,0c-0.1-0.2-0.2-0.5-0.2-0.7c0-0.1,0-0.2-0.1-0.3c0,0,0-0.1-0.1-0.1c-0.3-0.2-0.5-0.3-0.7-0.4
	l-0.1-0.1c0,0,0,0-0.1,0c0,0-0.1,0-0.1,0c0,0-0.1,0.1,0,0.1l0,0.1c0,0.1,0,0.1-0.1,0.2c-0.1,0-0.1,0-0.2-0.1
	c-0.1-0.2-0.2-0.4-0.2-0.6c0,0,0-0.1-0.1-0.1l-0.1-0.1l-0.1-0.1c-0.3-0.2-0.6-0.3-0.8-0.3c-0.2,0-0.3,0.1-0.3,0.2
	c-0.1,0.3,0.3,0.8,1.1,1.3c0.1,0.1,0.1,0.1,0.2,0.1c0,0,0,0,0,0c0.2,0.2,0.4,0.3,0.5,0.4c0,0,0,0,0.1,0.1c0,0,0,0.1,0,0.1
	c0,0-0.1,0.1-0.2,0c0,0-0.7-0.5-1.4-1.1c0.4,0.8,0.8,1.6,1.3,2.3c0.5,0.3,1,0.6,1.3,0.8C13.3,31,13.4,31.1,13.3,31.1L13.3,31.1z
	 M11.6,26.4c-0.1-0.3-0.1-0.7-0.1-1.1v0c0,0,0-0.1-0.1-0.1l0,0c-0.1,0-0.2-0.1-0.3-0.2c0,0,0,0,0,0c-0.3-0.1-0.5,0-0.6,0.2
	c-0.1,0.3,0.2,0.9,0.9,1.4l0,0c0,0,0,0,0.1,0c0,0,0,0,0.1,0C11.6,26.5,11.6,26.5,11.6,26.4L11.6,26.4L11.6,26.4z M29.2,13
	c0-0.1,0-0.2,0-0.4l0,0c0,0,0-0.1,0-0.1c0,0,0,0-0.1,0l0,0c-0.2,0-0.5,0-0.8,0l-0.2,0c0,0,0,0,0,0l-0.1,0c0,0-0.1,0-0.1,0.1
	c0,0.1,0,0.1,0.1,0.1l0.1,0.1c0.3,0.1,0.6,0.2,0.9,0.3l0.1,0c0,0,0,0,0,0c0,0,0,0,0.1,0C29.2,13.2,29.2,13.1,29.2,13L29.2,13
	L29.2,13z M20.7,22.7L20.7,22.7c0-0.1-0.1-0.1-0.1-0.1c0,0,0,0,0,0l-0.1,0c0,0-0.1,0.1-0.1,0.1l0,0c0.1,0.4,0.3,0.8,0.5,1.2l0,0
	c0,0,0,0,0.1,0c0,0,0.1,0,0.1,0l0.1-0.1c0,0,0,0,0.1-0.1l0-0.1c0,0,0-0.1,0-0.1l0,0c-0.1-0.1-0.1-0.2-0.2-0.2
	C21,23.3,20.9,23,20.7,22.7z M24.2,19.7c0-0.6-0.7-1.1-1.6-1.1c-0.9,0-1.6,0.5-1.6,1.1c0,0.6,0.7,1.1,1.6,1.1S24.2,20.4,24.2,19.7
	L24.2,19.7z M23.1,25.8C23.1,25.9,23.1,25.9,23.1,25.8L23.1,25.8c0.5,0.2,0.9,0.4,1.3,0.4l0,0c0,0,0.1,0,0.1-0.1l0,0
	c0.1-0.3,0.2-0.5,0.3-0.8l0,0c0,0,0-0.1,0-0.1c0,0,0,0-0.1,0l-0.1,0c0,0-0.1,0-0.1,0l-0.2,0c-0.1,0-0.1,0-0.3,0
	c-0.2,0-0.4,0-0.5-0.1l0,0c0,0-0.1,0-0.1,0.1l-0.1,0.2l-0.1,0.1l-0.1,0.2L23.1,25.8C23.1,25.8,23.1,25.8,23.1,25.8L23.1,25.8z
	 M22.8,23.1L22.8,23.1c0.2,0.1,0.4,0.2,0.5,0.3l0,0c0,0,0,0,0,0s0,0,0,0c0,0,0,0,0.1-0.1l0-0.2c0-0.1,0-0.1,0.1-0.2l0,0
	c0,0,0-0.1,0-0.1c0,0,0,0-0.1-0.1l0,0c-0.1,0-0.2-0.1-0.4-0.2l0,0c0,0,0,0,0,0c0,0-0.1,0-0.1,0.1l0,0c0,0.1-0.1,0.2-0.2,0.3l0,0
	C22.7,23,22.7,23,22.8,23.1C22.7,23.1,22.7,23.1,22.8,23.1L22.8,23.1z M23,24.3L23,24.3C23.1,24.4,23.1,24.4,23,24.3
	c0.1,0,0.1,0,0.1,0c0,0,0.1,0,0.1-0.1l0,0l0.1-0.3l0,0c0-0.1,0-0.1-0.1-0.1l0,0c-0.2-0.1-0.5-0.2-0.7-0.3l0,0c0,0,0,0-0.1,0
	c0,0-0.1,0-0.1,0l-0.1,0.2c0,0,0,0.1,0,0.2l0,0c0,0,0,0,0,0c0.1,0.1,0.3,0.2,0.4,0.3C22.8,24.2,22.9,24.3,23,24.3L23,24.3z
	 M21.7,22.1L21.7,22.1C21.7,22.1,21.7,22.2,21.7,22.1l0.1,0.2c0.1,0.1,0.2,0.2,0.3,0.3l0,0c0,0,0.1,0,0.1,0c0,0,0.1,0,0.1,0l0,0
	c0-0.1,0.1-0.1,0.1-0.2l0,0c0,0,0-0.1,0-0.1l0,0c-0.1-0.1-0.3-0.2-0.4-0.3l0,0c0,0-0.1,0-0.1,0l-0.2,0.1
	C21.6,22,21.6,22.1,21.7,22.1L21.7,22.1z M21.5,24.5L21.5,24.5c-0.1,0.1-0.1,0.1,0,0.2l0,0c0.3,0.4,0.7,0.7,1.1,0.9l0,0
	c0,0,0,0,0.1,0c0,0,0,0,0,0c0,0,0.1,0,0.1-0.1l0,0c0-0.1,0.1-0.1,0.1-0.2l0-0.1L23,25c0-0.1,0-0.1-0.1-0.1l0,0
	c-0.1-0.1-0.3-0.1-0.4-0.2c-0.2-0.1-0.3-0.2-0.5-0.3c0,0,0,0,0,0l0,0l0,0c0,0-0.1,0-0.1,0l0,0C21.6,24.3,21.5,24.4,21.5,24.5
	L21.5,24.5z M26.2,25.1C26.2,25.1,26.1,25.1,26.2,25.1C26.1,25,26,25,26,25l0,0c-0.1,0-0.2,0.1-0.3,0.1l-0.5,0.1c0,0-0.1,0-0.1,0.1
	l0,0c0,0.2-0.1,0.5-0.2,0.8l0,0c0,0,0,0.1,0,0.1c0,0,0.1,0,0.1,0H25c0.3,0,0.7,0,1-0.1l0,0c0,0,0.1,0,0.1-0.1l0,0
	C26.2,25.7,26.2,25.4,26.2,25.1L26.2,25.1L26.2,25.1z M29.2,14.6c0,0.1-0.1,0.1-0.1,0.2c0,0-0.1,0.1-0.1,0.1l-0.2,0.3l-0.1,0.1
	c0,0,0,0.1,0,0.1c0,0,0,0.1,0.1,0.1l0.1,0l0.3,0.1l0,0l0,0c0,0,0,0,0.1,0c0.1-0.1,1-0.6,1.2-1.1l0,0l0,0c0-0.1,0-0.1,0-0.1l0,0
	l-0.2-0.1c-0.1,0-0.1-0.1-0.2-0.1c-0.1,0-0.1-0.1-0.2-0.1l-0.2-0.1c0,0-0.1,0-0.1,0c0,0,0,0-0.1,0.1L29.2,14.6L29.2,14.6z
	 M29.7,10.2L29.7,10.2c-0.1,0-0.1,0-0.1,0l0,0c0,0.1-0.1,0.2-0.2,0.3l0,0c0,0,0,0.1,0,0.1l0,0c0.1,0.1,0.2,0.2,0.4,0.2
	c0.2,0,0.5-0.1,0.7-0.2l0.1,0l0,0c0,0,0,0,0,0l0.1,0c0,0,0.1-0.1,0.1-0.1c0-0.1,0-0.1-0.1-0.1l-0.1,0C30.2,10.3,29.9,10.2,29.7,10.2
	L29.7,10.2z M38.3,21.2c0-0.4-0.1-0.7-0.1-1.1c-0.1,0.1-0.3,0.2-0.4,0.3l0,0c0,0,0,0,0,0.1c0,0,0,0.1,0,0.1l0.2,0.3c0,0,0,0,0,0.1
	l0,0c0,0,0,0.1,0.1,0.1l0,0c0,0,0.1,0,0.1,0C38.3,21.1,38.3,21.1,38.3,21.2L38.3,21.2z M30.6,16.2C30.6,16.2,30.6,16.3,30.6,16.2
	l0.2,0.2c0.1,0,0.1,0.1,0.2,0.1c0,0,0,0,0,0c0.1,0,0.1,0,0.2,0c0.1,0,0.2,0,0.3-0.1c0,0,0.1-0.1,0.1-0.1c0.2-0.1,0.5-0.4,0.7-0.5
	l0,0c0,0,0.1-0.1,0.1-0.1c0,0,0-0.1,0-0.1l-0.2-0.1c-0.1,0-0.1-0.1-0.2-0.1c0,0-0.1,0-0.1-0.1c0,0,0,0-0.1,0l0,0c0,0,0,0-0.1,0
	c0,0-0.1,0-0.1,0l0,0c-0.2,0.3-0.7,0.6-1,0.8L30.6,16.2C30.6,16.1,30.6,16.1,30.6,16.2L30.6,16.2z M31.2,14L31.2,14
	c-0.1,0.1-0.1,0.1-0.1,0.1l0,0c0,0,0,0.1,0,0.1c0,0,0,0.1,0,0.1l0,0c0.2,0.1,0.4,0.2,0.5,0.4l0.1,0c0,0,0,0,0.1,0c0,0,0,0,0.1,0
	l0.1-0.1c0,0,0.1-0.1,0-0.1l0,0l0-0.1c0-0.2-0.1-0.5-0.5-0.5C31.4,13.9,31.3,13.9,31.2,14C31.2,13.9,31.2,13.9,31.2,14L31.2,14z
	 M31.5,10.6L31.5,10.6c-0.1,0-0.1,0-0.2,0l0,0l0,0.1c0,0,0,0.1-0.1,0.1l0,0.1c0,0,0,0.1,0,0.1c0,0,0,0.1,0.1,0.1l0,0c0,0,0,0,0.1,0
	c0.2,0,0.4,0,0.6-0.1l0.1,0c0,0,0.1-0.1,0.1-0.1c0,0,0-0.1-0.1-0.1l-0.1,0C31.9,10.7,31.7,10.6,31.5,10.6L31.5,10.6z M33.5,11
	c-0.1-0.1-0.3-0.3-0.4-0.4l0,0c0,0,0,0.1,0,0.1c0,0,0,0.1,0.1,0.1l0,0C33.2,10.9,33.3,11,33.5,11L33.5,11z M37,19.5
	C37,19.5,37,19.5,37,19.5l0.1,0.2c0.1,0.1,0.1,0.2,0.2,0.2l0.2,0.2c0,0,0.1,0,0.1,0c0,0,0,0,0.1,0l0,0c0.1-0.1,0.3-0.2,0.5-0.4l0,0
	c0-0.1,0-0.1,0-0.2l0,0L38,19.5c-0.3-0.1-0.4-0.2-0.8-0.2h-0.1c0,0,0,0-0.1,0l0,0L37,19.5L37,19.5C37,19.4,37,19.4,37,19.5z
	 M36.3,18.7l0.1,0.1c0,0,0.1,0.1,0.1,0.1c0,0,0.1,0.1,0.1,0.1l0.1,0.1c0,0,0,0,0.1,0c0,0,0.1,0,0.1,0l0,0c0,0,0,0,0,0
	c0,0,0,0,0.1-0.1c0,0,0,0,0,0c0,0,0,0,0-0.1c0-0.2,0-0.4-0.3-0.6c-0.1,0-0.1,0-0.2-0.1c0,0-0.1,0-0.1,0c-0.1,0.1-0.1,0.1-0.1,0.1
	c0,0,0,0,0,0l0,0C36.2,18.6,36.2,18.7,36.3,18.7L36.3,18.7z M36.2,15.8C36.2,15.8,36.3,15.8,36.2,15.8L36.2,15.8
	c0.1-0.1,0-0.2,0-0.2l0,0c-0.1-0.1-0.3-0.2-0.5-0.4l0,0c0,0-0.1,0-0.1,0c0,0,0,0-0.1,0.1l-0.1,0.1c0,0,0,0.1-0.1,0.1l0,0
	c0,0,0,0.1,0,0.1l0,0c0,0,0,0,0,0l0,0l0.1-0.1l0,0.1c0,0,0.1,0.1,0.1,0.1c0,0,0.1,0.1,0.1,0.1l0.1,0.1c0,0,0.1,0.1,0.1,0.1l0,0
	c0,0,0,0,0.1,0l0,0c0,0,0.1,0,0.1-0.1l0-0.1c0,0,0,0,0,0C36.2,15.9,36.2,15.9,36.2,15.8C36.2,15.9,36.2,15.9,36.2,15.8L36.2,15.8z
	 M35.4,17.8L35.4,17.8c0.2,0.2,0.4,0.4,0.6,0.6l0,0c0,0,0,0,0.1,0s0.1,0,0.1,0l0.1-0.1c0,0,0,0,0-0.1c0-0.2,0-0.5-0.2-0.7
	c-0.1-0.1-0.2-0.1-0.3-0.1c-0.1,0-0.1,0-0.2,0c0,0,0,0,0,0l-0.1,0.1C35.3,17.7,35.3,17.7,35.4,17.8L35.4,17.8z M36.2,14.2l-0.1-0.1
	C36.1,14.2,36.1,14.2,36.2,14.2L36.2,14.2L36.2,14.2z M37.1,15.9c-0.1-0.2-0.2-0.4-0.3-0.5c0,0-0.1,0.1-0.1,0.1l0,0c0,0,0,0.1,0,0.1
	c0,0,0,0.1,0,0.1l0,0L37.1,15.9z M37.4,16.9c0,0,0,0.1,0,0.1c0,0,0,0.1,0.1,0.1l0,0C37.5,17,37.5,16.9,37.4,16.9
	C37.4,16.8,37.4,16.8,37.4,16.9L37.4,16.9L37.4,16.9z M36.4,16.4L36.4,16.4c0.2,0.2,0.4,0.3,0.6,0.4l0,0c0,0,0,0,0.1,0c0,0,0,0,0,0
	c0,0,0.1,0,0.1-0.1l0,0c0-0.1,0.1-0.1,0.1-0.2l0,0c0,0,0,0,0-0.1l0-0.1l0,0l0,0c-0.2-0.2-0.4-0.3-0.6-0.5l0,0c0,0-0.1,0-0.1,0
	c0,0-0.1,0-0.1,0.1l0,0c0,0.1-0.1,0.1-0.1,0.2l0,0.1C36.3,16.3,36.3,16.4,36.4,16.4L36.4,16.4z M35.9,14.6c0,0-0.1,0-0.1,0.1l0,0.1
	c0,0,0,0,0,0.1l0,0.1l0,0c0,0.1,0,0.1,0,0.1l0.2,0.2c0,0,0,0,0.1,0c0,0,0,0,0.1,0c0,0,0.1-0.1,0-0.1l0-0.1c0-0.1,0-0.2-0.1-0.2
	l0-0.1C36,14.6,36,14.6,35.9,14.6L35.9,14.6z M35.5,13.7c0.1,0.1,0.2,0.1,0.3,0.2l0,0c0,0,0,0,0.1,0c0,0,0,0,0,0c0,0,0.1,0,0.1-0.1
	l0,0c-0.2-0.3-0.5-0.7-0.7-1c-0.1,0.1-0.2,0.2-0.3,0.4l0,0c0,0,0,0.1,0,0.1l0,0C35.1,13.5,35.3,13.6,35.5,13.7L35.5,13.7z
	 M35.3,15.1c0-0.1,0-0.1,0-0.1l-0.4-0.3c0,0,0,0-0.1,0c0,0-0.1,0-0.1,0c0,0,0,0.1,0,0.1l0.1,0.1c0,0.1,0.1,0.1,0.1,0.2l0.1,0.1
	c0,0,0,0,0.1,0h0c0,0,0.1,0,0.1-0.1L35.3,15.1L35.3,15.1z M34.4,16.8C34.4,16.8,34.4,16.8,34.4,16.8l0.1,0.1
	c0.2,0.2,0.4,0.4,0.5,0.5l0,0c0,0,0,0,0.1,0h0c0,0,0.1,0,0.1,0l0.1-0.1c0,0,0,0,0-0.1c0-0.2,0-0.4-0.1-0.5c-0.1-0.1-0.3-0.2-0.5-0.2
	c-0.1,0-0.1,0-0.2,0c0,0,0,0-0.1,0L34.4,16.8C34.4,16.7,34.4,16.8,34.4,16.8L34.4,16.8z M34.1,16.5L34.1,16.5
	C34.1,16.6,34.1,16.6,34.1,16.5c0.1,0,0.2,0,0.2,0l0,0c0.1-0.1,0.1-0.1,0.2-0.2c0,0,0,0,0-0.1c0-0.1,0-0.3-0.1-0.4
	c-0.1-0.2-0.3-0.2-0.5-0.2c-0.1,0-0.2,0-0.2,0h0c-0.1,0-0.1,0-0.2,0h-0.1c0,0-0.1,0-0.1,0.1c0,0,0,0.1,0,0.1l0.1,0.1
	C33.7,16.2,33.9,16.3,34.1,16.5L34.1,16.5z M32.8,17.7c0,0.1,0.2,0.2,0.3,0.2c0,0,0.1,0,0.1,0c0.2-0.1,0.4-0.2,0.6-0.3
	c0.1-0.1,0.1-0.3,0-0.5c-0.1-0.1-0.4-0.1-0.5,0c0,0-0.1,0.1-0.3,0.1C32.8,17.3,32.7,17.5,32.8,17.7L32.8,17.7z M32.6,16.4
	c-0.1,0.1-0.3,0.2-0.3,0.2c-0.1,0-0.1,0.1-0.2,0.2c0,0.1,0,0.2,0,0.3c0.1,0.1,0.2,0.2,0.3,0.2c0.1,0,0.1,0,0.2,0
	c0.2-0.1,0.4-0.2,0.5-0.3c0.1-0.1,0.1-0.1,0.1-0.2c0-0.1,0-0.2-0.1-0.3C33,16.3,32.8,16.3,32.6,16.4L32.6,16.4z M32.3,14.8l-0.1,0
	c0,0-0.1,0-0.1,0.1c0,0,0,0.1,0,0.1l0.1,0.1c0.2,0.2,0.5,0.4,0.7,0.5l0,0c0,0,0,0,0.1,0c0,0,0.1,0,0.1,0l0,0c0,0,0,0,0,0
	c0,0,0-0.1,0-0.1c0-0.1,0-0.2-0.1-0.3c-0.2-0.4-0.4-0.4-0.6-0.4h0L32.3,14.8L32.3,14.8z M33.7,11.4c-0.3-0.1-0.5-0.2-0.8-0.3l0,0
	c0,0,0,0,0,0c0,0-0.1,0-0.1,0.1l0,0.1c0,0.1-0.1,0.1-0.1,0.2l-0.2,0.4c0,0,0,0.1,0,0.1c0,0,0,0.1,0.1,0.1l0,0c0.1,0,0.1,0,0.2,0
	c0.2,0,0.6-0.1,0.9-0.3l0.1,0c0,0,0.1-0.1,0.1-0.1C33.8,11.5,33.8,11.4,33.7,11.4L33.7,11.4L33.7,11.4z M34.2,11.7
	C34.2,11.7,34.2,11.7,34.2,11.7L34.2,11.7c-0.2,0.2-0.3,0.3-0.4,0.5l0,0c0,0,0,0.1,0,0.1c0,0,0,0.1,0.1,0.1l0,0c0.1,0,0.2,0,0.4,0
	c0.2,0,0.4,0,0.5-0.1C34.6,12.2,34.4,11.9,34.2,11.7z M31.9,9.8c-0.1,0.1-0.2,0.2-0.2,0.3l0,0c0,0,0,0.1,0,0.1c0,0,0,0.1,0.1,0.1
	l0,0c0.3,0.1,0.5,0.2,0.8,0.3l0,0c0,0,0,0,0,0c0,0,0.1,0,0.1,0l0,0c0,0,0.1-0.1,0.1-0.1C32.5,10.3,32.2,10,31.9,9.8L31.9,9.8z
	 M30.6,14C30.6,14,30.6,13.9,30.6,14c0.1-0.1,0.1-0.1,0.1-0.1l0-0.1c-0.1-0.2-0.2-0.5-0.5-0.5c0,0-0.1,0-0.1,0c0,0,0,0,0,0l0,0
	c0,0,0,0-0.1,0l-0.1,0.1c0,0,0,0.1,0,0.1s0,0.1,0.1,0.1l0.1,0c0.1,0.1,0.3,0.1,0.4,0.2l0.1,0.1l0,0l0.1,0.1L30.6,14
	C30.5,13.9,30.6,14,30.6,14L30.6,14z M29.8,15.6L29.8,15.6c-0.1,0.1-0.1,0.1-0.1,0.1c0,0,0,0.1,0.1,0.1l0.1,0c0.1,0,0.2,0.1,0.3,0.1
	c0,0,0,0,0.1,0c0,0,0,0,0.1,0c0.4-0.2,1-0.6,1.2-0.9l0,0c0,0,0-0.1,0-0.1c0,0,0-0.1,0-0.1l0,0c-0.2-0.1-0.3-0.2-0.5-0.3l0,0
	c0,0-0.1,0-0.1,0c0,0-0.1,0-0.1,0.1l0,0C30.5,15,30.1,15.4,29.8,15.6L29.8,15.6z M38.3,21.5c-0.1-0.1-0.2-0.2-0.3-0.3c0,0,0,0,0-0.1
	l0,0c0,0,0-0.1-0.1-0.1l0,0c0,0-0.1,0-0.1,0l-0.7-0.9c-0.1-0.1-0.2-0.2-0.3-0.3c-0.1-0.1-0.2-0.2-0.3-0.4l0,0
	c-0.1-0.1-0.2-0.1-0.3-0.2c-0.1,0-0.3-0.1-0.5-0.1c-0.3,0-0.4,0.1-0.5,0.2c0,0.1-0.1,0.5,1.7,1.8c0,0,0.1,0,0.1,0.1c0,0,0,0.1,0,0.1
	c0,0.1-0.1,0.1-0.2,0c-1.1-0.6-2.2-1.6-3.3-2.5c-0.3-0.3-0.6-0.5-0.8-0.7c0,0,0,0,0,0c-0.3-0.1-0.5-0.1-0.7,0.1
	C32,18.3,32,18.4,32,18.6c0,0,0,0.1,0,0.1l1,0.7l1,0.9l0.3,0.2l0,0c0.2,0.2,0.4,0.4,0.7,0.6c0.3,0.2,0.6,0.5,1,0.7
	c0.3,0.2,0.7,0.4,1,0.5c0.1,0.1,0.3,0.1,0.4,0.2l0,0c0.2,0.1,0.4,0.2,0.6,0.3c0.1,0.1,0.3,0.1,0.4,0.2c0-0.3,0-0.5,0-0.8
	C38.4,22,38.4,21.7,38.3,21.5L38.3,21.5z M29.9,9.7L29.9,9.7c-0.1,0.1-0.1,0.1,0,0.2c0,0,0,0.1,0.1,0.1l0.1,0
	c0.4,0.1,0.8,0.2,1.3,0.3l0,0c0,0,0,0,0,0c0,0,0.1,0,0.1-0.1l0,0c0.1-0.2,0.2-0.3,0.3-0.5l0,0c-0.2-0.1-0.3-0.2-0.5-0.3
	c-0.1,0-0.2,0-0.3-0.1c0,0-0.1,0-0.1-0.1c0,0,0-0.1,0-0.1l0,0c-0.1-0.1-0.2-0.1-0.3-0.2C30.3,9.2,30.1,9.4,29.9,9.7L29.9,9.7z
	 M28.3,19.3c0,2-1.6,3.7-3.7,3.7c-0.1,0-0.3,0-0.4,0l0,0c0,0-0.1,0-0.1,0c0,0,0,0,0,0.1v0c0,0.1,0,0.1,0,0.2c0,0,0,0.1,0,0.2l0,0.1
	c0,0,0,0.1,0,0.1c0,0,0,0,0.1,0l0,0c0.4,0.1,0.7,0.1,0.8,0.1c0.1,0,0.1,0.1,0.1,0.1c0,0,0,0.1,0,0.1c0,0-0.1,0-0.1,0l0,0
	c0,0-0.1,0-0.3,0c-0.2,0-0.4,0-0.6-0.1l0,0c-0.1,0-0.1,0-0.1,0.1l0,0c0,0.2-0.1,0.3-0.2,0.5l0,0c0,0,0,0.1,0,0.1c0,0,0,0,0.1,0.1
	l0,0c0.1,0,0.2,0.1,0.4,0.1c0.1,0,0.3,0.1,0.4,0.1l0,0c0,0,0.1,0,0.1,0l0.1,0c0,0,0,0,0,0l0.9-0.1c0.1,0,0.2,0,0.3-0.1l0.1,0
	c0,0,0,0,0.1,0l0,0c0,0,0,0,0,0c0,0,0,0,0,0c0,0,0,0,0,0l0,0c0.2-0.1,0.3-0.1,0.5-0.2c0,0,0.1-0.1,0.2-0.1c0.2-0.2,0.4-0.3,0.6-0.4
	l0,0c0.1-0.1,0.3-0.3,0.3-0.4c0.1-0.1,0.1-0.2,0.2-0.3l0,0c0,0,0-0.1,0-0.1c0,0,0,0,0,0l0,0c0-0.1,0.1-0.1,0.2-0.1
	c0.1,0,0.1,0.1,0.1,0.2l0,0c0,0,0,0-0.1,0.1l0,0c0,0.1-0.1,0.2-0.2,0.3c-0.1,0.1-0.2,0.3-0.4,0.4l0,0c-0.2,0.2-0.4,0.3-0.6,0.5
	c-0.1,0-0.1,0.1-0.2,0.1c-0.1,0.1-0.2,0.1-0.3,0.2l0,0c0,0-0.1,0.1-0.1,0.1v0c0,0.2,0,0.5,0,0.8l0,0.1c0,0,0,0.1,0,0.1
	c0,0,0,0,0.1,0c0,0,0,0,0,0l0,0c1.8-0.7,3.1-2.5,3.1-4.4c0-1.2-0.3-2.2-0.8-3c-0.1-0.1-0.2-0.1-0.2-0.1c-0.1,0-0.3,0.1-0.3,0.2
	c-0.1,0.1-0.1,0.1-0.1,0.2C28.3,18.9,28.3,19.1,28.3,19.3L28.3,19.3z M13.2,26.1C13.2,26.1,13.2,26.1,13.2,26.1L13.2,26.1
	c0-0.1,0-0.1,0-0.2c-0.5-0.3-0.9-0.5-1.2-0.7l0,0c0,0-0.1,0-0.1,0c0,0,0,0.1,0,0.1v0c0,0.7,0.1,1.2,0.3,1.6c0,0,0,0,0,0
	c0.4,0.2,0.7,0.5,1.1,0.7l0.1,0c0,0,0,0,0.1,0c0,0,0,0,0.1,0c0,0,0-0.1,0-0.1l0-0.1C13.3,27,13.1,26.5,13.2,26.1L13.2,26.1z
	 M37.4,27.2c0.1-0.3,0.2-0.6,0.3-0.9c0,0,0,0,0,0c-0.1,0-0.1-0.1,0-0.2c0,0,0.1-0.2,0.2-0.4l0,0c0,0,0,0,0,0c0,0,0-0.1,0-0.1
	c0,0-0.1-0.1-0.1-0.1l-0.1,0c-0.2,0-0.2-0.1-0.3-0.4c0-0.1-0.1-0.3-0.2-0.4c-0.1-0.1-0.3-0.2-0.4-0.2h0c-0.1,0-0.1,0-0.1,0.1l0,0
	c0,0.4-0.2,0.7-0.2,0.8c0,0.1-0.1,0.1-0.2,0.1c-0.1,0-0.1-0.1-0.1-0.2c0-0.1,0.7-1.5-0.7-2.9c0,0,0,0,0,0c-0.1-0.1-0.3-0.2-0.5-0.3
	l0,0c-0.1,0-0.2,0-0.3,0l0,0c0,0,0,0-0.1,0l0,0c0,0-0.1,0-0.1,0c0,0,0,0.1,0,0.1l0,0c0,0.1,0,0.3,0,0.4c0,0.1,0,0.1,0,0.2
	c0,0.2,0,0.3,0,0.5c0,0.1,0,0.2,0,0.2c0,0.2-0.1,0.3-0.1,0.5c0,0.1-0.1,0.2-0.1,0.3l-0.1,0.2l0,0c0,0.1-0.1,0.3-0.2,0.4
	c-0.1,0.2-0.2,0.3-0.2,0.4c0,0.1-0.1,0.1-0.1,0.1l0,0c0,0-0.1,0.1-0.2,0c-0.1,0-0.1-0.1,0-0.2c0,0,0-0.1,0.1-0.2
	c0-0.1,0.1-0.2,0.2-0.4c0-0.1,0.1-0.2,0.1-0.4c0-0.1,0-0.2,0.1-0.3c0-0.1,0-0.1,0-0.2l0,0c0-0.2,0.1-0.3,0.1-0.5c0-0.1,0-0.1,0-0.2
	c0-0.2,0-0.3,0-0.5c0-0.1,0-0.2,0-0.3c0-0.1,0-0.3,0-0.4c0-0.3,0-0.5,0-0.6l0,0c0,0,0,0,0-0.1l0,0c0,0,0-0.1,0-0.1l0-0.1
	c-0.2-0.2-0.4-0.3-0.6-0.5l-1-0.9l-0.1-0.1c0,0,0,0-0.1,0c0,0,0,0-0.1,0c0,0-0.1,0.1-0.1,0.1l0,0.3c0,0,0,0.1,0,0.1
	c0,0.1,0,0.2,0,0.2l0,0.9l0,0.5l0,0.2c0,0.1,0,0.2,0,0.3l-0.1,0.5c0,0.1-0.1,0.3-0.1,0.4l0,0.2c0,0.1,0,0.1-0.1,0.2l0,0.1
	C32,24,32,24.2,31.9,24.3c0,0.1-0.1,0.1-0.1,0.2c0,0.1-0.1,0.1-0.2,0.1c-0.1,0-0.1-0.1,0-0.2c0,0,0-0.1,0.1-0.2
	c0-0.1,0.1-0.2,0.1-0.4l0-0.1c0-0.1,0-0.1,0-0.2c0-0.2,0.1-0.4,0.1-0.6l0-0.4c0-0.1,0-0.2,0-0.3v0c0,0,0-0.1,0-0.1l0-0.5l-0.1-0.8
	c0-0.1,0-0.2-0.1-0.2l0-0.1c-0.1-0.3-0.2-0.7-0.4-0.9c-0.1-0.1-0.3-0.3-0.5-0.3c-0.1,0-0.2,0-0.2,0.1c-0.1,0.1,0,0.3,0.1,0.4l0,0
	c0.1,0.2,0.1,0.4,0.2,0.7c0.1,0.4,0.1,0.8,0.1,1.3c0,3.3-2.7,6.1-6,6.1c-3.3,0-6-2.7-6-6.1l0,0v0c-0.1-0.9,0.3-2.2,0.6-3
	c0-0.1,0-0.1,0-0.2c0,0-0.1-0.1-0.2-0.1c-0.2,0-0.5,0.1-0.8,0.3c-0.2,0.1-0.4,0.2-0.5,0.2l0,0c-0.1,0-0.1,0-0.1,0.1l0,0
	c-0.1,0.7-0.1,1.3-0.1,1.3c0,0.1-0.1,0.1-0.1,0.1c-0.1,0-0.1-0.1-0.1-0.1c0,0,0-0.5,0.1-1.1l0-0.1c0,0,0-0.1,0-0.1c0,0,0,0-0.1,0
	c0,0,0,0-0.1,0l-0.1,0c-0.4,0.2-0.9,0.7-1.2,1.2c0,0,0,0,0,0.2l-0.1,0.9c0,0.1,0,0.2,0,0.3v0c0,0.1,0,0.1,0,0.2v0.5l0,0.5
	c0,0.2,0,0.4,0.1,0.6c0,0.1,0,0.2,0,0.3l0,0.1c0,0.2,0.1,0.3,0.1,0.4c0,0.1,0.1,0.2,0.1,0.2c0,0,0,0.1,0.1,0.1c0,0,0,0,0,0
	c0,0,0,0-0.1,0.1c-0.1,0-0.1,0-0.2,0c0-0.1-0.1-0.2-0.1-0.2c-0.1-0.1-0.1-0.2-0.2-0.4l-0.1-0.2c0-0.1,0-0.1-0.1-0.2
	c-0.1-0.2-0.1-0.4-0.1-0.7l-0.1-0.5l0-0.5l0-0.2c0-0.1,0-0.2,0-0.3l0.1-0.9l0.1-0.4c0,0,0-0.1,0-0.1c0,0-0.1,0-0.1,0l-0.1,0
	c-0.1,0-0.2,0.1-0.3,0.1c-0.1,0.1-0.3,0.3-0.4,0.5c0,0,0,0,0,0.6c0,0.1,0,0.3,0,0.4l0,0c0,0.1,0,0.2,0,0.2c0.1,0.5,0.1,0.9,0.2,1.3
	l0.1,0.6c0,0,0,0.1,0,0.1c0,0-0.1,0-0.1,0.1c-0.1,0-0.1,0-0.1-0.1c0,0-0.1-0.2-0.2-0.6c-0.1-0.3-0.2-0.8-0.3-1.3c0-0.1,0-0.1,0-0.2
	l0-0.1c0-0.2,0-0.3-0.1-0.5c0-0.1,0-0.2,0-0.2l0-0.2c0,0,0-0.1,0-0.1c0,0-0.1,0-0.1,0l0,0c-0.1,0-0.2,0-0.2,0.1
	c-0.2,0.1-0.4,0.4-0.5,0.7c0,0,0,0.1,0,0.1l0,0l0,0.1l0.1,0.3c0,0.2,0.1,0.3,0.1,0.5l0.5,2.1c0,0,0,0.1,0,0.1c0,0,0,0-0.1,0.1
	c-0.1,0-0.1,0-0.1-0.1c0-0.1-0.1-0.3-0.2-0.6c-0.1-0.4-0.3-0.9-0.4-1.4c0-0.2-0.1-0.3-0.1-0.5l-0.1-0.3c0,0,0-0.1,0-0.1l0-0.1
	c0,0,0-0.1,0-0.1c0,0-0.1,0-0.1,0l0,0c-0.1,0-0.2,0.1-0.2,0.1c-0.1,0-0.1,0.1-0.1,0.1l0,0c0,0,0,0.1,0,0.1c0,0.1,0,0.2,0,0.3
	c0,0.1,0.1,0.3,0.1,0.5l0.3,1.3c0,0.1,0,0.1-0.1,0.2c-0.1,0-0.1,0-0.1-0.1c-0.1-0.1-0.1-0.2-0.2-0.4c-0.1-0.2-0.2-0.6-0.3-0.9
	c0,0,0-0.1,0-0.1l0-0.1c0,0,0-0.1-0.1-0.1c0,0-0.1,0-0.1,0L12,22.4l0,0.1c-0.2,0.3-0.2,0.7-0.2,1c0,0.5,0.1,0.9,0.2,1.2c0,0,0,0,0,0
	l0,0c0.3,0.2,0.6,0.5,0.9,0.7l0.1,0c0,0,0,0,0.1,0c0,0,0,0,0.1,0c0,0,0.1-0.1,0-0.1l0-0.2c0-0.1,0-0.2-0.1-0.3c0,0,0-0.1,0-0.1
	c0,0,0-0.1,0.1-0.1c0.1,0,0.1,0,0.2,0.1c0,0.1,0.1,0.3,0.1,0.4c0,0.1,0,0.3,0.1,0.5c0,0,0,0.1,0,0.1l0,0c0,0,0,0.1,0,0.1l0,0
	c0.6,0.4,1.1,0.7,1.3,0.8c0,0,0.1,0,0.1,0.1c0,0,0,0.1,0,0.1c0,0.1-0.1,0.1-0.2,0.1c0,0-0.4-0.2-1.1-0.6l-0.1,0c0,0,0,0-0.1,0
	c0,0,0,0-0.1,0c0,0-0.1,0.1-0.1,0.1l0,0.1c0,0.4,0.1,0.7,0.3,1.1c0,0.1,0.1,0.3,0.1,0.4l0,0c0,0,0,0.1,0.1,0.1
	c0.3,0.2,0.7,0.4,1.1,0.5l0.1,0c0,0,0,0,0.1,0c0,0,0.1,0,0.1,0c0,0,0-0.1,0-0.1l0-0.1c0-0.2-0.1-0.3-0.1-0.4c0-0.1,0.1-0.1,0.1-0.1
	c0,0,0.1,0,0.1,0c0,0,0,0.1,0,0.1c0,0.2,0.1,0.5,0.2,0.7c0,0,0,0.1,0,0.1c0,0,0,0.1,0.1,0.1l0.1,0c0.6,0.2,1.4,0.6,2.3,0.9l0.6,0.2
	L19,30c0,0,0.1,0,0.1,0c0.1-0.1,0.2-0.2,0.3-0.3l0,0c0,0,0-0.1,0-0.1c0,0,0-0.1-0.1-0.1l0,0c-0.3-0.1-0.4-0.1-0.5-0.2
	c0,0-0.1,0-0.1-0.1c0,0,0-0.1,0-0.1c0-0.1,0.1-0.1,0.2-0.1c0,0,1.7,0.7,4.6,0.7c1.8,0,3.7-0.3,5.7-0.9c0,0,0,0,0,0
	c0.1-0.1,0.1-0.1,0.1-0.1c0,0,0,0,0,0l0,0c0,0,0,0,0,0c1.4-0.4,2.7-1,4.1-1.7c0,0,0,0,0,0c0,0,0,0,0.1,0c0,0,0,0,0.1,0l0.1,0l0,0
	c0.1,0,0.1,0,0.2,0.1c0,0,0,0.1,0,0.1s0,0.1-0.1,0.1l0,0.1l-0.1-0.1l0,0c0,0-0.1,0.1-0.1,0.1c0,0.3-0.1,0.6-0.3,1l0,0.1
	c0,0,0,0.1,0,0.1c0,0,0.1,0,0.1,0l0.1,0c1.1-0.3,2-0.4,2.6-0.4c0,0,0.1,0,0.1-0.1l0-0.1l0-0.1c0-0.1,0.1-0.1,0.1-0.2l0,0
	c0,0,0-0.1,0-0.1c0,0-0.1,0-0.1,0l0,0c-0.8,0-1-0.2-1-0.2c-0.2-0.3,0-0.6,0.2-0.8c0.1-0.2,0.2-0.3,0.2-0.4c0,0,0,0,0,0
	c-0.1-0.2-0.6-0.3-0.8-0.3c-0.1,0-0.1-0.1-0.1-0.1c0-0.1,0.1-0.1,0.1-0.1c0.1,0,0.8,0.1,1,0.5c0.1,0.2-0.1,0.4-0.2,0.6
	c-0.1,0.2-0.3,0.4-0.2,0.6c0,0,0,0,0,0l0,0c0.1,0,0.2,0.1,0.7,0.1C36.6,27.2,37,27.2,37.4,27.2L37.4,27.2z M37.3,27.4
	c-0.1,0-0.3,0-0.4,0l0,0c0,0-0.1,0-0.1,0.1l0,0c0,0.1-0.1,0.2-0.1,0.3l0,0c0,0,0,0.1,0,0.1c0,0,0.1,0.1,0.1,0.1l0,0
	c0.1,0,0.2,0,0.3,0C37.1,27.9,37.2,27.7,37.3,27.4L37.3,27.4z M36.9,28.4c-0.1,0-0.2,0-0.3,0h-0.1l0,0c0,0-0.1,0-0.1,0
	c-0.1,0.1-0.1,0.1-0.1,0.1c0,0,0,0,0,0c0,0,0,0-0.1,0c-0.1,0-0.2,0-0.4,0l-0.3,0c-0.1,0-0.1,0.1-0.1,0.1c0,0.1,0,0.1,0.1,0.1l0.3,0
	l0.1,0l0,0c0.1,0,0.3,0,0.4,0.1l0.2,0c0.1,0,0.1,0,0.2,0.1C36.7,28.7,36.8,28.6,36.9,28.4L36.9,28.4z M36.5,29.2
	C36.5,29.2,36.4,29.2,36.5,29.2l-0.3-0.1c-0.1,0-0.2,0-0.3,0l-0.2,0c-0.1,0-0.2,0-0.3,0l0,0c-0.1,0-0.1,0-0.2,0
	c-0.1,0-0.3,0.1-0.4,0.1l0,0c0,0-0.1,0.1-0.1,0.1v0c0,0.1,0,0.3-0.1,0.4l0,0.1c0,0,0,0.1,0,0.1s0.1,0,0.1,0l0.1,0
	c0.3-0.1,0.7-0.1,1-0.1c0.1,0,0.2,0,0.4,0.1C36.2,29.7,36.3,29.4,36.5,29.2z M32.2,32.9c0,0,0,0.1,0,0.1c0,0,0,0,0.1,0c0,0,0,0,0,0
	l0.2-0.1l0.1,0c0.2-0.1,0.4-0.2,0.6-0.3c0,0,0,0,0-0.1c0-0.1,0.1-0.3,0.2-0.5c0.2-0.4,0.3-0.6,0.4-0.8l0-0.1c0,0,0-0.1,0-0.1
	c0,0,0,0-0.1,0c0,0,0,0-0.1,0L33.7,31c-0.3,0.2-0.7,0.4-1.2,0.7h-0.1c0,0-0.1,0-0.1,0.1c0,0,0,0.1,0,0.1l0.1,0.1c0,0,0.1,0.1,0,0.1
	C32.4,32.4,32.3,32.6,32.2,32.9L32.2,32.9L32.2,32.9z M32,29.5L32,29.5c-0.1,0-0.1,0.1-0.1,0.1v0l0,0l0,0.1c0,0,0,0.1,0,0.1
	c0,0,0,0,0.1,0c0,0,0,0,0,0l0.7-0.3c0,0,0,0,0,0c0,0,0,0,0,0l0-0.1c0,0,0-0.1,0-0.1c0,0,0,0-0.1,0c0,0,0,0,0,0l-0.1,0
	C32.4,29.4,32.2,29.4,32,29.5z M33.4,27.7L33.4,27.7c0-0.1,0-0.2,0-0.2c0,0,0,0-0.1,0c0,0,0,0,0,0l-0.1,0c-0.2,0.1-0.5,0.2-0.7,0.4
	l0,0L32.4,28c0,0,0,0,0,0.1c0,0.1,0,0.3-0.1,0.5l0,0c0,0,0,0.1,0,0.1l0,0c0.1,0.1,0.1,0.1,0.2,0.1c0,0,0,0,0,0c0,0,0,0,0,0
	c0,0,0.1,0,0.1,0l0.2-0.1c0,0,0,0,0.1-0.1l0,0C33,28.5,33.3,28.1,33.4,27.7L33.4,27.7z M34.3,29.5c0,0,0-0.1,0-0.1c0,0,0,0-0.1,0
	c0,0,0,0,0,0l-0.2,0.1c-0.1,0-0.2,0.1-0.2,0.1c-0.1,0-0.1,0.1-0.2,0.1l-0.2,0.1l0,0c0,0-0.1,0-0.1,0.1c0,0.2-0.1,0.5-0.2,0.7l0,0.1
	c0,0,0,0.1,0,0.1c0,0,0,0,0.1,0c0,0,0,0,0.1,0l0.1-0.1l0.1-0.1l0.1,0l0.1,0l0,0c0.2-0.1,0.3-0.2,0.5-0.4c0,0,0,0,0.1-0.1
	C34.2,29.9,34.2,29.7,34.3,29.5L34.3,29.5L34.3,29.5z M34.6,31.6C34.6,31.5,34.6,31.5,34.6,31.6c0.1-0.3,0.2-0.7,0.2-1l0-0.1
	c0,0,0-0.1,0-0.1c0,0,0,0-0.1,0c0,0,0,0,0,0l0,0c-0.1,0.1-0.3,0.1-0.4,0.2l0,0c0,0-0.1,0.1,0,0.1l0,0c0,0.3-0.1,0.7-0.3,1.1L33.8,32
	c0,0,0,0.1,0,0.1c0,0,0,0,0.1,0c0,0,0,0,0.1,0l0.1-0.1c0.1-0.1,0.2-0.1,0.3-0.2l0.2-0.2C34.6,31.7,34.7,31.6,34.6,31.6L34.6,31.6
	L34.6,31.6z M32.4,31.2l0.1-0.1c0,0,0,0,0.1-0.1c0-0.2,0.1-0.4,0.2-0.6c0-0.1,0.1-0.2,0.1-0.2l0-0.1c0,0,0-0.1,0-0.1c0,0,0,0-0.1,0
	c0,0,0,0,0,0l-0.2,0.1c-0.2,0.1-0.3,0.2-0.5,0.3l-0.1,0c-0.2,0.1-0.3,0.2-0.4,0.3c0,0,0,0,0,0l0,0c0,0.1,0,0.2-0.1,0.3
	c0,0,0,0,0,0.1c0,0.1,0,0.2,0.1,0.2c0.1,0.1,0.1,0.1,0.2,0.2c0,0,0,0,0,0c0,0,0,0,0.1,0l0.2-0.1c0.1,0,0.1-0.1,0.2-0.1
	C32.3,31.3,32.3,31.2,32.4,31.2L32.4,31.2z M30.5,33.6c0,0,0,0.1,0,0.1c0,0,0,0,0.1,0c0,0,0,0,0,0l0.1,0c0.2-0.1,0.4-0.2,0.6-0.2
	l0.3-0.1l0.1,0c0,0,0,0,0,0l0.1,0l0,0c0,0,0,0,0-0.1c0-0.1,0.1-0.2,0.1-0.4c0.1-0.2,0.2-0.4,0.3-0.7l0-0.1c0,0,0-0.1,0-0.1
	c0,0,0,0-0.1,0c0,0,0,0-0.1,0L32,32c-0.4,0.2-0.7,0.3-1,0.5c0,0,0,0,0,0C30.8,32.8,30.7,33.1,30.5,33.6L30.5,33.6L30.5,33.6z
	 M28.2,34.3c0,0,0,0.1,0,0.1c0,0,0.1,0,0.1,0c0,0,0,0,0,0l0.1,0c0.3-0.1,0.5-0.1,0.8-0.2c0.3-0.1,0.6-0.2,0.9-0.3c0,0,0.1,0,0.1-0.1
	l0,0c0.1-0.2,0.2-0.6,0.4-0.9l0-0.1c0,0,0-0.1,0-0.1c0,0,0,0-0.1,0c0,0,0,0,0,0l-0.1,0c-0.4,0.2-0.7,0.3-1,0.4
	c-0.2,0.1-0.3,0.1-0.5,0.2l-0.1,0c0,0-0.1,0-0.1,0.1l0,0C28.5,33.7,28.3,34,28.2,34.3L28.2,34.3L28.2,34.3z M26.1,34.7
	c0,0,0,0.1,0,0.1c0,0,0,0,0.1,0h0l0.3,0c0,0,0.1,0,0.1,0c0.1,0,0.1,0,0.2,0l0.2,0c0.2,0,0.5-0.1,0.7-0.1l0,0c0,0,0.1,0,0.1-0.1
	c0.1-0.1,0.1-0.2,0.2-0.4c0.1-0.1,0.1-0.2,0.2-0.4l0-0.1c0,0,0-0.1,0-0.1c0,0-0.1,0-0.1,0l-0.4,0.1l-0.2,0.1
	c-0.3,0.1-0.7,0.1-1.1,0.2l0,0c0,0-0.1,0-0.1,0.1l0,0C26.3,34.2,26.2,34.4,26.1,34.7L26.1,34.7L26.1,34.7z M24.5,33.4
	C24.5,33.4,24.5,33.4,24.5,33.4c0,0.1,0,0.1,0.1,0.1h0c0.7-0.1,1.2-0.2,1.7-0.3c0,0,0,0,0.1,0c0,0,0-0.1,0-0.1c0,0,0-0.1,0.1-0.1
	c0.1-0.2,0.2-0.4,0.3-0.6l0,0c0,0,0-0.1,0-0.1c0,0-0.1,0-0.1,0l-0.8,0.2c-0.3,0.1-0.5,0.1-0.8,0.1l0,0c0,0-0.1,0-0.1,0.1l0,0
	C24.9,32.9,24.7,33.1,24.5,33.4L24.5,33.4z M27.1,30c0,0,0-0.1,0-0.1c0,0-0.1-0.1-0.1,0l-0.3,0.1c-0.5,0.1-1,0.2-1.5,0.3l0,0
	c0,0-0.1,0-0.1,0.1l0,0c0,0.1-0.1,0.2-0.1,0.2l0,0.1c0,0,0,0.1,0,0.1c0,0,0.1,0.1,0.1,0.1l0.1,0c0.5,0,1.1-0.1,1.6-0.2
	c0,0,0.1,0,0.1-0.1C26.9,30.3,27,30.1,27.1,30L27.1,30L27.1,30z M27.9,31.9L27.9,31.9c0-0.1-0.1-0.1-0.1-0.1l0,0
	c-0.2,0.1-0.5,0.1-0.7,0.2l0,0c0,0-0.1,0.1-0.1,0.1l0,0c0,0.3-0.1,0.6-0.3,0.8c0,0,0,0.1,0,0.1c0,0,0,0,0.1,0h0
	c0.9-0.2,1.1-0.4,1.2-0.6c0,0,0,0,0,0c0,0,0,0,0,0C28.1,32.3,28.1,32.1,27.9,31.9L27.9,31.9z M27,31L27,31C26.9,31,26.9,31,27,31
	c-0.2,0.2-0.2,0.3-0.3,0.4l0,0.1c0,0,0,0.1,0,0.1c0,0,0.1,0,0.1,0h0l0.1,0c0.4-0.1,0.7-0.2,1-0.3c0,0,0,0,0.1,0
	c0.1-0.1,0.1-0.2,0.1-0.4l0,0c0,0,0-0.1,0-0.1c0,0-0.1,0-0.1,0l0,0C27.6,30.9,27.3,31,27,31L27,31z M29,29.6c0,0,0-0.1,0-0.1
	c0,0-0.1-0.1-0.1,0l-0.1,0c-0.2,0-0.4,0.1-0.6,0.1l0,0c-0.2,0-0.3,0.1-0.4,0.1l-0.1,0c0,0-0.1,0-0.1,0.1l0,0c0,0.1-0.1,0.2-0.2,0.4
	l0,0.1c0,0,0,0.1,0,0.1c0,0,0.1,0,0.1,0l0,0l0.1,0c0.4-0.1,0.8-0.2,1.2-0.3c0,0,0.1,0,0.1-0.1l0,0l0,0c0,0,0,0,0-0.1
	C28.8,29.8,28.9,29.7,29,29.6L29,29.6L29,29.6z M28.5,32.3c0,0.1,0,0.2,0,0.3c0,0.1,0.1,0.1,0.2,0.2c0,0,0.1,0,0.1,0
	c0.1,0,0.3-0.1,0.3-0.2c0.1-0.4,0.1-0.7,0.1-0.9c-0.1-0.2-0.2-0.3-0.4-0.2c-0.2,0.1-0.3,0.2-0.2,0.4C28.6,31.9,28.6,32.1,28.5,32.3
	L28.5,32.3z M28.6,30.6c-0.1,0-0.3,0.1-0.2,0.3c0,0.1,0.1,0.2,0.3,0.2h0c0.2,0,0.7-0.2,0.8-0.3c0.1-0.1,0.2-0.2,0.1-0.4
	c-0.1-0.1-0.2-0.2-0.4-0.1C29.2,30.4,28.8,30.6,28.6,30.6L28.6,30.6z M30.1,29.6c0,0,0-0.1-0.1-0.1l-0.1,0c-0.1-0.1-0.3-0.1-0.6-0.1
	h0l-0.1,0c0,0-0.1,0-0.1,0.1l0,0c0,0.1-0.1,0.2-0.1,0.3l0,0.1c0,0,0,0.1,0,0.1c0,0,0.1,0,0.1,0c0,0,0,0,0,0l0.2-0.1
	c0.2,0,0.3-0.1,0.5-0.1L30.1,29.6C30.1,29.7,30.1,29.7,30.1,29.6L30.1,29.6z M29.5,32.2c0,0.1,0,0.1,0,0.2c0,0.1,0.1,0.1,0.2,0.1
	c0,0,0.1,0,0.1,0c0.1,0,0.2-0.1,0.3-0.2c0,0,0.2-0.7,0.1-1.1c-0.1-0.1-0.2-0.2-0.4-0.1c-0.1,0.1-0.2,0.2-0.1,0.4
	C29.6,31.6,29.5,31.9,29.5,32.2L29.5,32.2z M24.5,31.9c0,0,0,0.1,0,0.1c0,0,0.1,0,0.1,0l0.2,0c0.3,0,0.6-0.1,1-0.1l0.5-0.1
	c0,0,0.1,0,0.1-0.1l0.2-0.5c0,0,0-0.1,0-0.1c0,0-0.1-0.1-0.1,0l-0.1,0c-0.5,0.1-1,0.1-1.5,0.1c0,0-0.1,0-0.1,0.1
	C24.7,31.5,24.6,31.7,24.5,31.9L24.5,31.9L24.5,31.9z M24.4,30.7L24.4,30.7c0.1,0,0.1,0,0.1-0.1c0-0.1,0.1-0.1,0.2-0.2l0-0.1
	c0,0,0-0.1,0-0.1c0,0-0.1-0.1-0.1-0.1l-0.1,0l-0.1,0l0,0c-0.2,0-0.5,0-0.7,0c-0.1,0-0.2-0.1-0.3-0.1l0,0c0,0-0.1,0-0.1,0h0
	c0,0-0.1,0-0.1,0.1l0,0c0,0.1-0.1,0.2-0.2,0.3l0,0c0,0,0,0.1,0,0.1c0,0,0.1,0.1,0.1,0.1l0.1,0l0.1,0l0,0c0,0,0.1,0,0.1,0
	c0.2,0,0.3,0,0.4,0C24,30.7,24.2,30.7,24.4,30.7L24.4,30.7z M22.8,32c0,0,0,0.1,0,0.1c0,0,0.1,0,0.1,0l0.1,0c0.2,0,0.3,0,0.5,0
	c0.1,0,0.3,0,0.4,0l0.1,0c0,0,0.1,0,0.1-0.1l0,0c0-0.1,0.1-0.2,0.1-0.3l0.1-0.3l0,0c0,0,0-0.1,0-0.1c0,0-0.1-0.1-0.1-0.1l-0.1,0
	c-0.3,0-0.6,0-1,0c0,0,0,0,0,0l0,0l-0.1,0h0c-0.1,0-0.1,0-0.1,0.1l0,0C23,31.5,22.9,31.7,22.8,32L22.8,32L22.8,32z M22.8,30.3
	L22.8,30.3c0-0.1,0-0.1,0-0.2S22.7,30,22.7,30l-0.1,0c-0.4,0-0.8-0.1-1.2-0.1h0c0,0-0.1,0-0.1,0.1l0,0c0,0.1-0.1,0.2-0.2,0.3l0,0
	c0,0,0,0.1,0,0.1c0,0,0,0.1,0.1,0.1l0.1,0c0.4,0.1,0.8,0.1,1.2,0.1h0c0,0,0.1,0,0.1,0l0,0C22.6,30.5,22.7,30.4,22.8,30.3L22.8,30.3z
	 M19.5,30.2L19.5,30.2c0.4,0.1,0.7,0.2,1.1,0.2l0,0h0c0,0,0.1,0,0.1-0.1l0,0c0,0,0-0.1,0.1-0.1c0.1,0,0.1-0.1,0.2-0.2l0,0
	c0,0,0-0.1,0-0.1c0,0,0-0.1-0.1-0.1l-0.1,0c-0.4-0.1-0.8-0.1-1.1-0.2l0,0c0,0-0.1,0-0.1,0.1l0,0c0,0.1-0.1,0.2-0.1,0.3l0,0
	C19.4,30,19.4,30.1,19.5,30.2C19.4,30.1,19.4,30.2,19.5,30.2z M17.8,31.2C17.8,31.2,17.7,31.2,17.8,31.2
	C17.7,31.2,17.7,31.2,17.8,31.2l-0.2,0.1l-0.1-0.1c-0.2-0.3-0.3-0.7-0.4-1.1l0,0c0,0,0-0.1-0.1-0.1l0,0c-0.6-0.2-1.1-0.4-1.6-0.6
	l-0.1,0c0,0,0,0,0,0c0,0,0,0-0.1,0c0,0,0,0.1,0,0.1l0,0.1c0.1,0.6,0.3,1.2,0.7,1.4c0,0,0,0,0.1,0.1c0,0,0,0.1,0.1,0.1l0,0l0,0
	l0.2,0.1c0.3,0.1,0.7,0.3,1.2,0.4l0.2,0.1c0.4,0.1,0.9,0.2,1.4,0.3l0.4,0.1l0.4,0.1l0,0c0.5,0.1,1,0.1,1.5,0.1c0.2,0,0.5,0,0.8,0
	h0.2c0,0,0.1,0,0.1-0.1l0,0c0.1-0.2,0.3-0.5,0.3-0.7l0,0c0,0,0-0.1,0-0.1c0,0,0,0-0.1,0l0,0c-0.8-0.1-1.5-0.1-2.1-0.3
	c-0.5-0.1-0.9-0.2-1.3-0.3l-0.7-0.2l-0.6-0.2l-0.1,0c0,0-0.1,0-0.1,0l-0.1,0c0,0,0,0,0,0c0,0-0.1,0-0.1,0c0,0,0,0.1,0,0.1l0,0.1
	C17.5,30.6,17.6,30.9,17.8,31.2C17.8,31.1,17.8,31.1,17.8,31.2L17.8,31.2z M35.8,30.2c-0.1,0-0.1,0-0.2,0h0c-0.1,0-0.2,0-0.3,0l0,0
	c-0.1,0-0.1,0.1-0.1,0.1v0c0,0.2-0.1,0.5-0.1,0.7l0,0.1c0,0,0,0.1,0,0.1C35.3,30.9,35.6,30.6,35.8,30.2L35.8,30.2z M10.7,17.7
	c0.3,0,0.5-0.1,0.6-0.2c0,0,0,0,0.1,0l0,0c0,0,0,0,0,0c0.1-0.1,0.1-0.1,0.2-0.2l0.3-0.3c0,0,0-0.1,0-0.1c0,0,0-0.1-0.1-0.1l-0.1,0
	c-0.4-0.1-0.9-0.2-1.3-0.4c-0.2,0.4-0.3,0.8-0.4,1.2C10.3,17.7,10.5,17.7,10.7,17.7L10.7,17.7z M9.5,21.9c1.3-1,4.1-3.1,7.7-4.6
	l0.4-0.1c0.6-0.2,1.1-0.4,1.5-0.6c0,0,0,0,0,0c0,0,0-0.1,0.1-0.1c0,0,0.1-0.2,0.1-0.2c0-0.1,0.1-0.1,0.1-0.2
	c0.1-0.2,0.2-0.3,0.2-0.4l0,0c0,0,0,0,0-0.1c0-0.1,0.1-0.1,0.1-0.1c0,0,0,0,0,0c0.1,0,0.1,0.1,0.1,0.1c0,0,0,0,0,0.1
	c0,0.1,0,0.2-0.1,0.3l0,0.1c0,0,0,0.1,0,0.1c0,0,0,0,0.1,0c0,0,0,0,0,0l0.1,0c0.3-0.1,0.6-0.2,0.9-0.3c0,0,0,0,0,0
	c0.1-0.1,0.3-0.3,0.5-0.5c0.1-0.2,0.3-0.4,0.4-0.6l0.1-0.3c0-0.1,0.1-0.1,0.2-0.1c0.1,0,0.1,0.1,0.1,0.1L22,14.9
	c0,0.1-0.1,0.3-0.2,0.5l0,0.1c0,0,0,0.1,0,0.1c0,0,0.1,0.1,0.1,0l0.1,0c0.2-0.1,0.4-0.1,0.7-0.2c0,0,0,0,0,0
	c0.1-0.1,0.2-0.1,0.3-0.2c0.2-0.2,0.4-0.4,0.6-0.6l0.1-0.1c0.1-0.1,0.1-0.2,0.2-0.3c0-0.1,0-0.1,0.1-0.1c0-0.1,0.1-0.1,0.1-0.2
	l0.1-0.4c0-0.1,0.1-0.1,0.2-0.1c0.1,0,0.1,0.1,0.1,0.1l-0.1,0.4c0,0.1-0.1,0.2-0.1,0.3l0,0.1c-0.1,0.1-0.1,0.2-0.2,0.4l0,0.1
	L23.6,15l0,0.1c0,0,0,0.1,0,0.1c0,0,0.1,0.1,0.1,0.1l0.1,0c0.2,0,0.4,0,0.5-0.1c0,0,0.1,0,0.1,0c0,0,0.2-0.2,0.2-0.2
	c0.1-0.1,0.2-0.2,0.3-0.4c0.1-0.2,0.2-0.4,0.3-0.4l0.1-0.2c0-0.1,0.1-0.1,0.2-0.1c0.1,0,0.1,0.1,0.1,0.1c0,0,0,0.1-0.1,0.3
	c-0.1,0.2-0.2,0.4-0.3,0.5c0,0.1-0.1,0.1-0.1,0.1l-0.1,0.1c0,0,0,0.1,0,0.1c0,0,0.1,0.1,0.1,0.1h0.1c0.1,0,0.3,0,0.5,0
	c0,0,0.1,0,0.1,0c0.2-0.2,0.3-0.3,0.4-0.4c0.1-0.1,0.2-0.3,0.3-0.4c0,0,0-0.1,0.1-0.1c0,0,0,0,0,0l0.1-0.1c0-0.1,0.1-0.1,0.2-0.1
	c0.1,0,0.1,0.1,0.1,0.1l0,0.1c0,0.1,0,0.1-0.1,0.2c-0.1,0.2-0.2,0.3-0.3,0.5l0,0.1l0,0.1c0,0,0,0.1,0,0.1c0,0,0,0.1,0.1,0.1l0.1,0
	l0.1,0l0,0l0.2,0l0,0c0,0,0,0,0.1,0l0,0c0,0,0,0,0,0c0.1-0.1,0.2-0.2,0.4-0.3c0.1-0.1,0.2-0.3,0.3-0.4l0.1-0.2c0-0.1,0.1-0.1,0.2,0
	s0.1,0.1,0,0.2L28,14.5c-0.1,0.2-0.2,0.3-0.3,0.4l-0.1,0.1c0,0,0,0.1,0,0.1c0,0,0,0.1,0.1,0.1l0.1,0l0.1,0l0.1,0c0,0,0.1,0,0.1,0
	l0,0c0.1,0,0.1-0.1,0.2-0.2l0.2-0.2l0.2-0.3c0,0,0.1-0.1,0.1-0.1c0.1-0.1,0.1-0.1,0.2-0.2l0.3-0.5c0,0,0-0.1,0-0.1
	c0,0,0-0.1-0.1-0.1l0,0c-0.5-0.2-0.9-0.4-1.3-0.5L27.3,13c-0.1,0-0.3-0.1-0.4-0.1c-0.1,0-0.1,0-0.2,0c-0.3-0.1-0.7-0.1-1-0.2l-0.2,0
	c-0.3,0-0.5-0.1-0.8-0.1c-0.1,0-0.3,0-0.4,0c-0.3,0-0.5,0-0.7,0c-0.1,0-0.3,0-0.4,0l-0.6,0c-0.1,0-0.2,0-0.3,0l0,0
	c-0.1,0-0.1,0-0.2,0l-1,0.2c-0.2,0.1-0.5,0.1-0.6,0.2c-0.4,0.1-0.8,0.2-1.2,0.3c-1.2,0.4-2.1,0.7-2.7,1c-0.2,0.1-0.4,0.2-0.5,0.2
	l-0.2,0.1l-0.3,0.1c-0.1,0-0.1,0-0.2-0.1c0-0.1,0-0.1,0.1-0.2l0.2-0.1c0,0,0.1,0,0.2-0.1l0,0c0.2-0.1,0.3-0.2,0.6-0.3
	c0.3-0.1,0.7-0.3,1.2-0.5c0.5-0.2,1-0.4,1.6-0.6c0.4-0.1,0.8-0.2,1.2-0.3l0.1,0c0.2,0,0.4-0.1,0.6-0.1l0.5-0.1
	c0.1,0,0.1-0.1,0.1-0.1c0-0.1,0-0.1-0.1-0.1l-0.3,0c-0.8,0-1.3-0.1-1.5-0.1c0,0-0.1,0-0.1-0.1c0,0,0-0.1,0-0.1
	c0-0.1,0.1-0.1,0.1-0.1h0c0,0,1,0.1,2.3,0.1c0.5,0,0.9,0,1.3,0c0,0,0.1,0,0.1,0c0.1,0,0.2-0.1,0.4-0.1l0,0c0.4-0.1,1.1-0.3,1.3-0.6
	c0,0,0,0,0.1-0.1c0,0,0.1,0,0.1,0c0,0,0.1,0.1,0.1,0.1c0,0,0,0.1,0,0.1c0,0.1-0.1,0.1-0.2,0.2l-0.1,0.1c0,0,0,0.1,0,0.1
	c0,0,0.1,0.1,0.1,0.1l0.1,0c0.5-0.1,1.1-0.2,1.6-0.4l0.1,0c0,0,0.1-0.1,0.1-0.1c0-0.1,0-0.1-0.1-0.1l-0.1,0c-0.1,0-0.4-0.1-0.5-0.2
	c0,0-0.1,0-0.1-0.1c0,0,0-0.1,0-0.1c0-0.1,0.1-0.1,0.2-0.1c0,0,0.5,0.1,1.2,0.4c0,0,0,0,0,0c0,0,0,0,0,0c0.4-0.2,0.8-0.4,1.1-0.7
	l0.1-0.1c0,0,0.1-0.1,0-0.1c0,0,0-0.1-0.1-0.1l-0.1,0c-0.4,0-0.7,0-0.7,0c-0.1,0-0.1-0.1-0.1-0.1c0-0.1,0.1-0.1,0.1-0.1
	c0,0,0.5,0,1.2,0.1c0,0,0.1,0,0.1,0l0,0l0,0c0,0,0,0,0.1,0c0,0,0.1,0,0.1,0c0.2-0.3,0.5-0.6,0.7-0.8c-0.5-0.2-1-0.5-1.5-0.7
	c-0.3,0.4-0.8,0.8-1.1,1c0-0.1,0-0.2,0-0.3c0.4-0.3,0.7-0.5,0.9-0.8c-0.8-0.3-1.5-0.5-2.4-0.6c-0.6-0.1-1.3-0.2-1.9-0.2h0l0,0
	c0,0,0,0,0,0c-4-0.1-7.6,1.5-10.3,4.1c0,0,0,0,0.1,0c0,0,0.1,0,0.1,0c0.1,0,0.1,0.1,0.1,0.1c0,0.1-0.1,0.1-0.1,0.1h-0.1
	c-0.1,0-0.2,0-0.3,0c-0.4,0.4-0.8,0.9-1.2,1.4c0.1,0,0.3,0.1,0.4,0.1c0,0,0,0,0.1,0l0.1,0c0,0,0.1,0,0.1,0c0,0,0,0,0-0.1l0,0
	c0,0,0-0.1,0.1-0.1c0.2-0.1,0.4-0.2,0.5-0.3l0,0c0.2-0.1,0.3-0.1,0.5-0.2c0.1,0,0.1,0,0.2,0c0,0,0,0.1,0,0.1c0,0,0,0.1-0.1,0.1
	c-0.2,0.1-0.4,0.2-0.5,0.3c0,0-0.1,0-0.1,0.1l-0.1,0l-0.1,0c0,0-0.1,0.1-0.1,0.1c0,0,0,0.1,0.1,0.1l0.2,0l0.1,0l0.2,0.1l0,0
	c0.1,0,0.3,0.1,0.4,0.1c0,0,0,0,0.1,0c0.1,0,0.1,0,0.1,0.1c0,0,0,0.1,0,0.1c0,0-0.1,0-0.1,0c-0.2,0-0.4,0-0.5-0.1
	c-0.1,0-0.1,0-0.2-0.1c-0.2,0-0.4-0.1-0.6-0.1l-0.1,0c-0.1,0-0.3,0-0.4-0.1c-0.2,0-0.3-0.1-0.5-0.1c-0.2,0.3-0.4,0.5-0.6,0.8
	c0.1-0.1,0.2-0.1,0.3-0.2l0.1,0c0.1-0.1,0.2-0.1,0.2-0.1c0,0,0,0,0.1,0c0,0,0.1,0,0.1,0.1c0,0,0,0.1,0,0.1c0,0,0,0.1-0.1,0.1
	c-0.1,0.1-0.2,0.1-0.3,0.2l0,0c-0.1,0.1-0.2,0.1-0.3,0.2c-0.1,0-0.1,0-0.2-0.1c0,0,0,0,0-0.1c-0.1,0.2-0.2,0.3-0.3,0.5
	c0.7,0.2,1.6,0.5,2.4,0.5c0.3,0,0.6-0.1,0.8-0.1c0,0,0,0,0.1,0c0,0,0,0,0,0c0,0,0,0,0.1,0l0.1,0c0.1,0,0.1,0,0.2,0c0,0,0,0.1,0,0.1
	c0,0,0,0.1-0.1,0.1c-0.1,0.1-0.3,0.2-0.4,0.3c-0.3,0.2-0.6,0.4-0.8,0.6c0,0-0.1,0-0.2,0c0,0,0-0.1,0-0.1c0,0,0-0.1,0-0.1l0.1-0.1
	l0,0l0.1,0l0.1-0.1c0,0,0.1-0.1,0-0.1c0,0-0.1-0.1-0.1-0.1l-0.1,0c-0.3,0-0.6,0-0.9-0.1l0,0l0,0c0,0-0.1,0-0.1,0.1l0,0
	c0,0,0,0.1-0.1,0.1c-0.1,0.1-0.3,0.1-0.4,0.2l-0.1,0c-0.1,0-0.1,0.1-0.2,0.1c-0.1,0-0.1,0-0.2,0c0,0,0-0.1,0-0.1c0,0,0-0.1,0.1-0.1
	c0.1,0,0.1-0.1,0.2-0.1l0.2-0.1c0,0,0.1-0.1,0.1-0.1c0,0,0-0.1-0.1-0.1l-0.1,0c-0.3-0.1-0.5-0.1-0.8-0.2c-0.2,0.4-0.4,0.8-0.6,1.2
	c0.6,0.2,1.1,0.4,1.5,0.4c0.1,0,0.2,0,0.3-0.1c0,0,0.1,0,0.1,0l0,0c0,0,0,0,0.1,0l0,0c0,0,0.1,0,0.2,0c0,0,0,0.1,0,0.1
	c0,0,0,0.1,0,0.1c-0.2,0.2-0.5,0.4-0.8,0.7l-0.1,0.1c-0.2,0.2-0.4,0.4-0.6,0.5c0,0-0.1,0-0.1,0c0,0,0,0-0.1,0c0,0,0,0-0.1,0
	c0,0,0,0,0,0c-0.3,0.1-0.7,0-1,0c-0.1,0.3-0.2,0.6-0.2,0.9h0c0.1,0,0.2,0,0.3-0.1c0,0,0.1,0,0.2,0c0,0,0,0.1,0,0.1c0,0,0,0.1,0,0.1
	C10.2,19,10,19,9.8,19c0,0,0,0-0.1,0c0,0.2-0.1,0.5-0.1,0.7c-0.1,0.4-0.1,0.7-0.1,1.1c0,0,0,0,0,0.1c0,0,0,0,0,0c0,0.2,0,0.5,0,0.7
	C9.5,21.8,9.5,21.8,9.5,21.9L9.5,21.9z M40.6,22.1c-0.1,4.4-1.9,8.5-5,11.6c-3.1,3.1-7.3,4.7-11.7,4.6c-0.7,0-1.5-0.1-2.2-0.2
	c-8.1-1.2-14-8.4-13.9-16.6C8,17.1,9.7,13,12.9,10c3.1-3.1,7.3-4.7,11.7-4.6c0.7,0,1.5,0.1,2.2,0.2C34.8,6.8,40.8,13.9,40.6,22.1
	L40.6,22.1z M42,22.1c0.2-8.9-6.3-16.6-15-18C26.2,4,25.4,4,24.6,4c-4.7-0.1-9.2,1.7-12.6,5c-3.4,3.3-5.3,7.8-5.4,12.5
	c-0.2,8.9,6.3,16.6,15,18c0.8,0.1,1.6,0.2,2.4,0.2C33.7,39.9,41.8,32,42,22.1L42,22.1z M5.5,37.9c-0.3-0.3-0.6-0.6-1-0.6
	c0.1-0.4,0-0.8-0.3-1.2c-0.5-0.7-1.5-0.8-2.1-0.3c-0.7,0.5-0.8,1.5-0.3,2.2c0,0.1,0.1,0.1,0.2,0.2c-0.4,0.3-0.4,0.9-0.1,1.2
	c0,0,0,0,0,0c0,0,0,0,0,0c0.2,0.3,0.7,0.5,1.2,0.2c0,0.1,0.1,0.1,0.1,0.2c0.5,0.7,1.5,0.8,2.1,0.3C5.8,39.5,6,38.6,5.5,37.9
	L5.5,37.9z M44,22.3c0,0.9-0.1,1.8-0.2,2.7c-1.5,9.7-9.9,17.1-20,16.9c-0.9,0-1.8-0.1-2.7-0.2c-3.6-0.6-6.9-2.1-9.6-4.3
	C11,37.2,10.3,37,9.7,37c-0.2,0-0.4,0-0.5,0.1c-1.4,0.5-1.7,2-2.3,3c-0.9,1.5-2.1,1.8-3.2,1.6c-0.9-0.2-1.4-0.8-1.4-0.8
	s-1.1,0.2-1.8-0.8c-0.7-0.9-0.1-1.9-0.1-1.9s-0.5-0.6-0.4-1.5c0.1-1,0.8-2.2,2.4-2.6c1.2-0.3,2.7-0.1,3.5-1.3
	c0.1-0.1,0.2-0.3,0.3-0.5c0.2-0.4,0.2-0.9,0.3-1.4c-1.4-2.8-2.2-6-2.2-9.4c0-0.9,0.1-1.8,0.2-2.7C6,9.2,14.5,1.8,24.5,2
	c0.9,0,1.8,0.1,2.7,0.2C36.9,3.7,44.2,12.2,44,22.3L44,22.3z M35.2,24.1C35.2,24.1,35.2,24.1,35.2,24.1c-0.1,0-0.1,0-0.2,0.1
	c0,0,0,0.1,0,0.1l0,0c0,0,0,0.1,0,0.1l0,0c0,0.1,0,0.1-0.1,0.2c0,0,0,0.1,0,0.1c0,0.1,0,0.1,0.1,0.2c0.1,0,0.1,0,0.2-0.1
	c0,0,0,0,0-0.1C35.4,24.4,35.4,24.2,35.2,24.1L35.2,24.1z M35.2,23.5c0.1,0,0.1-0.1,0.1-0.1v-0.5c0-0.1-0.1-0.1-0.1-0.1
	c-0.1,0-0.1,0.1-0.1,0.1v0.5C35.1,23.5,35.2,23.5,35.2,23.5L35.2,23.5z M15,11.3L15,11.3c0.2,0.1,0.4,0.2,0.6,0.1c0,0,0.1,0,0.1,0
	c0,0,0-0.1,0-0.1c0-0.1-0.1-0.1-0.1-0.1c0,0,0,0-0.1,0c-0.1,0-0.2,0-0.3-0.1l-0.1,0c0,0,0,0,0,0C15,11,15,11,15,11.1
	C14.9,11.1,14.9,11.2,15,11.3C15,11.2,15,11.2,15,11.3L15,11.3z M13.7,14.4C13.7,14.4,13.6,14.5,13.7,14.4c-0.1,0.1-0.1,0.1,0,0.2
	c0,0.1,0.1,0.1,0.2,0c0.1-0.1,0.3-0.2,0.4-0.3l-0.1-0.2C14,14.2,13.8,14.3,13.7,14.4L13.7,14.4z M15,13.7C15,13.8,15,13.8,15,13.7
	c0,0.2,0.1,0.2,0.2,0.2c0.3-0.1,1-0.4,1-0.4c0,0,0,0,0.1-0.1c0,0,0-0.1,0-0.1c0-0.1-0.1-0.1-0.1-0.1c0,0,0,0,0,0
	C15.9,13.4,15.4,13.5,15,13.7C15.1,13.7,15,13.7,15,13.7L15,13.7z M17.6,12.7C17.6,12.7,17.5,12.7,17.6,12.7
	c-0.1,0.1-0.1,0.1-0.1,0.2c0,0.1,0.1,0.1,0.2,0.1l0.1,0c0.1,0,0.3-0.1,0.4-0.1l-0.1-0.2C18,12.6,17.7,12.7,17.6,12.7L17.6,12.7z
	 M16.5,16.7C16.5,16.7,16.5,16.7,16.5,16.7c-0.3,0.2-0.6,0.3-0.7,0.4c0,0,0,0,0,0c0,0,0,0,0,0.1c0,0,0.1,0,0.1,0
	c0.1,0,0.3-0.2,0.6-0.3c0,0,0,0,0,0C16.6,16.8,16.6,16.7,16.5,16.7C16.6,16.7,16.6,16.7,16.5,16.7L16.5,16.7z M15,17.4L15,17.4
	c-0.7,0.4-1.1,0.6-1.3,0.7l0.1,0.2c0.2-0.1,0.9-0.5,1.3-0.7c0,0,0.1,0,0.1-0.1c0,0,0-0.1,0-0.1C15.1,17.4,15,17.4,15,17.4L15,17.4z
	 M15.9,15.7c0,0,0.4-0.3,0.6-0.3c0,0,0,0,0,0c0,0,0,0,0-0.1c0,0,0-0.1-0.1-0.1c0,0,0,0,0,0c-0.2,0.1-0.6,0.3-0.6,0.4c0,0,0,0,0,0.1
	c0,0,0,0,0,0.1C15.8,15.7,15.9,15.7,15.9,15.7L15.9,15.7z M15.2,15.9C15.1,15.9,15.1,15.9,15.2,15.9c-0.5,0.2-1.3,0.9-1.3,0.9
	c0,0,0,0.1,0,0.1c0,0,0,0.1,0,0.1c0,0,0.1,0.1,0.2,0c0.2-0.2,0.8-0.7,1.2-0.8c0.1,0,0.1-0.1,0.1-0.2C15.3,15.9,15.2,15.9,15.2,15.9
	L15.2,15.9z M13.4,17.2c-0.2,0.1-0.7,0.6-0.9,0.8l0.2,0.2c0.5-0.4,0.8-0.7,0.9-0.8c0,0,0-0.1,0-0.1c0,0,0-0.1,0-0.1
	C13.5,17.2,13.4,17.2,13.4,17.2L13.4,17.2z M11.8,18.6C11.8,18.6,11.8,18.6,11.8,18.6c-0.2,0.2-0.4,0.4-0.6,0.5c0,0-0.1,0-0.1,0.1
	c0,0,0,0.1,0,0.1c0,0.1,0.1,0.1,0.2,0c0.1-0.1,0.3-0.3,0.5-0.5c0,0,0-0.1,0-0.1C12,18.7,11.9,18.7,11.8,18.6
	C11.9,18.6,11.9,18.6,11.8,18.6L11.8,18.6z M10.6,19.8C10.6,19.8,10.6,19.8,10.6,19.8c-0.1,0.1-0.4,0.3-0.7,0.5c0,0,0,0.1,0,0.1
	c0,0,0,0.1,0,0.1c0,0,0.1,0,0.1,0c0,0,0.1,0,0.1,0c0.3-0.2,0.6-0.5,0.6-0.5c0,0,0.1-0.1,0-0.2C10.7,19.9,10.7,19.8,10.6,19.8
	L10.6,19.8z M19.1,11.9c-0.2-0.1-0.5-0.1-0.7-0.2c0,0.1-0.1,0.2-0.1,0.2c0.3,0,0.6,0.1,0.8,0.2c0.1,0,0.1,0,0.2-0.1
	C19.2,12,19.2,12,19.1,11.9C19.2,11.9,19.2,11.9,19.1,11.9L19.1,11.9z M17.3,11.8L17.3,11.8c0.1-0.1,0.1-0.2,0.2-0.2
	c-0.3-0.1-0.6-0.1-0.9-0.4c0,0,0,0-0.1,0c0,0-0.1,0-0.1,0.1c0,0,0,0.1,0,0.1c0,0,0,0.1,0,0.1C16.6,11.6,16.9,11.7,17.3,11.8
	L17.3,11.8z M26.4,7.9l-0.1-0.2l0-0.1c-0.1,0.1-0.2,0.1-0.3,0.2c0,0.1,0,0.2,0,0.3C26.1,8.1,26.3,8,26.4,7.9L26.4,7.9z M20.5,9.2
	c0.1-0.1,0.1-0.2,0.1-0.3c-0.4,0-0.8,0-1-0.1c0,0,0,0,0,0c0,0-0.1,0-0.1,0.1c0,0,0,0.1,0,0.1c0,0,0,0.1,0.1,0.1
	C19.8,9.2,20.1,9.2,20.5,9.2L20.5,9.2z M23.9,8.9c0-0.1,0-0.2,0.1-0.3c-0.3,0.1-0.5,0.1-0.7,0.1l-0.1,0l0,0c0,0.1,0,0.2,0,0.3
	c0.1,0,0.1,0,0.2,0C23.5,9,23.7,8.9,23.9,8.9L23.9,8.9z M25.2,8.2c-0.1,0.1-0.3,0.1-0.4,0.1c0,0.1,0,0.2,0,0.3
	c0.2-0.1,0.3-0.1,0.5-0.2C25.2,8.4,25.2,8.3,25.2,8.2L25.2,8.2z M22.2,9.1c0-0.1,0-0.2,0-0.3c-0.3,0-0.5,0.1-0.7,0.1h0
	c0,0.1-0.1,0.2-0.1,0.3l0.1,0C21.8,9.2,22,9.2,22.2,9.1L22.2,9.1z M26,10c0.2-0.1,0.4-0.2,0.5-0.3l0.1-0.1c0-0.1,0-0.2,0-0.3
	l-0.3,0.1c-0.1,0.1-0.3,0.1-0.4,0.2C26.1,9.8,26.1,9.9,26,10L26,10z M20.3,10.9c0.3,0,0.5,0,0.7,0h0c0.1,0,0.3,0,0.4,0l0.1,0
	c0-0.1,0.1-0.2,0.1-0.3c-0.4,0-0.8,0-1.2,0C20.4,10.7,20.4,10.8,20.3,10.9L20.3,10.9z M17.5,10.5L17.5,10.5c0.1,0,0.2,0,0.2,0
	c0.3,0.1,0.6,0.1,1,0.2c0.2,0,0.4,0.1,0.6,0.1c0.1-0.1,0.1-0.1,0.2-0.2c-0.2,0-0.5-0.1-0.7-0.1c-0.3,0-0.7-0.1-1-0.2
	c-0.1,0-0.2,0-0.3,0c-0.3,0-0.5-0.1-0.7-0.2c0,0,0,0-0.1,0c0,0-0.1,0-0.1,0c0,0.1,0,0.1,0,0.2C16.9,10.5,17.2,10.5,17.5,10.5
	L17.5,10.5z M25.2,10.1c-0.3,0.1-0.6,0.2-0.9,0.3c0,0.1-0.1,0.2-0.1,0.3c0.3-0.1,0.6-0.2,0.9-0.3C25.2,10.2,25.2,10.2,25.2,10.1
	L25.2,10.1z M23.4,10.5c-0.3,0-0.5,0.1-0.8,0.1c0,0.1-0.1,0.2-0.1,0.3c0.3,0,0.5-0.1,0.7-0.1C23.3,10.7,23.3,10.6,23.4,10.5
	L23.4,10.5z M17.7,21.1c0,0-0.1,0-0.1,0c0,0,0,0.1,0,0.1c0,0.5,0,1.1,0,1.1c0,0,0,0.1,0,0.1c0,0,0.1,0,0.1,0l0,0
	c0.1,0,0.1-0.1,0.1-0.1c0-0.1,0-0.7,0-1.1C17.8,21.1,17.8,21.1,17.7,21.1L17.7,21.1z M32.2,25.9C32.2,25.9,32.2,26,32.2,25.9
	c0,0.1,0,0.2,0.1,0.2c0,0,0,0,0.1,0c0,0,0.1,0,0.1-0.1c0.1-0.1,0.2-0.4,0.2-0.5l-0.2-0.1C32.3,25.6,32.3,25.8,32.2,25.9L32.2,25.9z
	 M30.1,27.8c0.1,0,0.3-0.1,0.4-0.1c0-0.1,0-0.2,0-0.3c-0.1,0.1-0.3,0.1-0.4,0.2C30.1,27.6,30.1,27.7,30.1,27.8L30.1,27.8z
	 M18.4,27.7c0,0-0.1,0-0.1,0.1c0,0,0,0.1,0,0.1c0,0,0,0.1,0.1,0.1c0,0,1.1,0.5,2.8,0.8c0-0.1,0.1-0.2,0.1-0.2l0,0v0
	C19.5,28.2,18.4,27.7,18.4,27.7C18.4,27.7,18.4,27.7,18.4,27.7L18.4,27.7z M29.1,28.1L29.1,28.1l0.2,0c0-0.1,0-0.2,0.1-0.3
	c-0.1,0-0.1,0-0.2,0.1L29.1,28.1L29.1,28.1z M26.7,28.7c0.1,0,0.1,0,0.2,0c0,0,0-0.1,0-0.1c0,0,0.1-0.1,0.1-0.2l-0.3,0
	C26.8,28.5,26.8,28.6,26.7,28.7L26.7,28.7z M24.1,28.9L24.1,28.9c0.2,0,0.3,0,0.5,0c0.1-0.1,0.1-0.2,0.2-0.3c-0.2,0-0.4,0-0.5,0
	C24.2,28.7,24.2,28.8,24.1,28.9L24.1,28.9z M27.9,28.5L27.9,28.5l0.2,0l0,0c0-0.1,0.1-0.2,0.1-0.3L28,28.2
	C28,28.3,28,28.4,27.9,28.5L27.9,28.5z M31.6,26.9c-0.1,0-0.1,0-0.1,0.1l-0.1,0c0,0.1,0,0.2,0,0.3c0.1,0,0.2-0.1,0.3-0.1
	c0,0,0.1,0,0.1-0.1c0,0,0-0.1,0-0.1C31.8,26.9,31.7,26.9,31.6,26.9L31.6,26.9z M25.6,28.8c0.1,0,0.2,0,0.2,0c0-0.1,0.1-0.2,0.1-0.3
	c-0.1,0-0.2,0-0.2,0C25.7,28.7,25.6,28.8,25.6,28.8L25.6,28.8z M22,28.8c0.4,0,0.8,0.1,1.2,0.1c0-0.1,0.1-0.2,0.1-0.2
	c-0.4,0-0.8,0-1.2-0.1C22.1,28.7,22.1,28.7,22,28.8L22,28.8z M16.5,27.4c-0.3-0.1-0.7-0.3-0.9-0.4c0,0,0,0-0.1,0c0,0-0.1,0-0.1,0.1
	c0,0,0,0.1,0,0.1c0,0,0,0.1,0.1,0.1c0.1,0.1,0.7,0.3,1,0.4c0.1,0,0.1,0,0.2-0.1C16.6,27.5,16.6,27.5,16.5,27.4
	C16.6,27.4,16.6,27.4,16.5,27.4L16.5,27.4z M17,25c0,0-0.1-0.1-0.1-0.1c0,0,0,0,0,0c0,0-0.1,0-0.1,0.1c0,0,0,0.1,0,0.1
	c0,0,0.4,1,0.7,1.3c0,0,0.1,0.1,0.2,0c0,0,0-0.1,0-0.1c0,0,0-0.1,0-0.1C17.4,25.9,17.1,25.2,17,25L17,25z M15.1,32.2l0.1-0.2
	c-0.4-0.2-0.6-0.3-0.7-0.4c0,0,0,0-0.1,0c0,0-0.1,0-0.1,0.1c0,0.1,0,0.1,0,0.2C14.5,31.9,14.9,32.1,15.1,32.2L15.1,32.2z M16.9,33.1
	c0.1,0,0.1,0,0.2-0.1c0,0,0-0.1,0-0.1c0,0,0-0.1-0.1-0.1l-0.9-0.4c0,0,0,0,0,0c0,0-0.1,0-0.1,0.1c0,0,0,0.1,0,0.1c0,0,0,0.1,0.1,0.1
	L16.9,33.1L16.9,33.1z M28.5,22.4c0.1,0,0.1,0,0.2-0.1c0-0.1,0.1-0.4,0.1-0.5c0-0.1-0.1-0.1-0.1-0.1c-0.1,0-0.1,0.1-0.1,0.1
	c0,0.1-0.1,0.4-0.1,0.4C28.4,22.3,28.4,22.3,28.5,22.4C28.5,22.4,28.5,22.4,28.5,22.4L28.5,22.4z M33.5,21.8c0,0,0,0.2,0,0.4l0,0.5
	c0,0.1,0,0.2-0.1,0.3c0,0.1,0,0.1,0,0.2c0,0,0,0.1,0,0.1l0,0.1c0,0.1,0,0.2-0.1,0.3l-0.1,0.4c-0.1,0.2-0.1,0.4-0.1,0.4
	c0,0.1-0.1,0.1-0.2,0.1c-0.1,0-0.1-0.1-0.1-0.1c0,0,0,0,0,0c0,0,0-0.1,0.1-0.4l0.1-0.4c0-0.1,0-0.2,0-0.3c0-0.1,0-0.1,0-0.2
	c0-0.1,0-0.1,0-0.2c0-0.1,0-0.2,0-0.3l0-0.4c0-0.2,0-0.4,0-0.4l0-0.1c0-0.1,0.1-0.2,0.2-0.2h0C33.4,21.6,33.5,21.7,33.5,21.8
	L33.5,21.8z"/>
</svg>
