<svg xmlns="http://www.w3.org/2000/svg" viewBox="0 0 720 720"><defs><clipPath id="a"><path fill="none" d="M70.9 230.4h563.3v284.32H70.9z"/></clipPath></defs><path fill="#fff" d="M0 0h720v720H0z"/><g clip-path="url(#a)"><path d="M71.5 507.2v-26.8h4.6l12.7 19.1h.1v-19.1H93v26.8h-4.1l-13.1-19.5h-.1v19.5zm31.8-9.6c0-7.3 5.1-10 9.1-10s8.5 2.6 8.5 10.4v1h-13.2c.2 3.5 2.3 5 5.2 5a6.7 6.7 0 0 0 5.3-2.2l2.4 2.3a10.4 10.4 0 0 1-8.1 3.5c-4.8 0-9.2-3-9.2-10zm13.5-1.9c-.3-2.9-1.7-4.5-4.4-4.5s-4.2 1.2-4.6 4.5zm17.1 11.5l-5.7-19.2h4.5l2.1 7.9c.6 2.2.9 3.7 1.5 6.1.6-2.6.9-4 1.5-6.2l2.1-7.8h3.6l2.1 8c.6 2.1 1 3.6 1.5 6h.1c.6-2.5.9-3.8 1.5-5.9l2.2-8.1h4l-5.7 19.2H145l-3.4-13.4h-.1l-3.5 13.4zm43.8-13.4c0-9 5.3-13.9 12.1-13.9s12.1 4.9 12.1 13.9-5.3 13.9-12.1 13.9-12.1-4.9-12.1-13.9zm19.6 0c0-6.3-3-9.7-7.5-9.7s-7.5 3.4-7.5 9.7 3 9.8 7.5 9.8 7.5-3.5 7.5-9.8zm14.2 13.4V488h4.5v3.1c1.2-1.9 3.3-3.5 7-3.5h.2v4.1H222a6.4 6.4 0 0 0-6 3.3v12.2zm20.9 0v-26.8h4.5v26.8zm14.3-9.6c0-7.3 5.2-10 9.2-10s8.4 2.6 8.4 10.4v1h-13.1c.2 3.5 2.3 5 5.1 5a6.9 6.9 0 0 0 5.4-2.2l2.4 2.3a10.6 10.6 0 0 1-8.1 3.5c-4.8 0-9.3-3-9.3-10zm13.5-1.9c-.2-2.9-1.7-4.5-4.3-4.5s-4.2 1.2-4.6 4.5zm12.3 6.8c0-4.1 3.5-6.9 12.5-7.9v-.6c0-1.9-1-2.7-3.1-2.7a10.4 10.4 0 0 0-6.5 2.6l-2.2-2.8a13.8 13.8 0 0 1 9.3-3.5c5.1 0 6.9 2.5 6.9 6.9v8a13.5 13.5 0 0 0 .5 4.7h-4.5a8.7 8.7 0 0 1-.4-2.5 9.3 9.3 0 0 1-7.1 2.8c-3.1 0-5.4-1.8-5.4-5zm12.5-.7v-4.2c-5.3.7-8.1 2-8.1 4.1s1 2.3 2.6 2.3a7.9 7.9 0 0 0 5.5-2.2zm15 5.4V488h4.4v3a9.4 9.4 0 0 1 6.9-3.4c3.5 0 5.7 1.8 5.7 5.6v14h-4.5v-12.7c0-2.1-.9-3.2-2.9-3.2a7.7 7.7 0 0 0-5.2 2.5v13.4zm26.1-2.7l2.4-2.7a9.6 9.6 0 0 0 6 2.3c2.4 0 3.9-.6 3.9-2.2s-2-2-4.3-2.6-7.2-1.6-7.2-6.1 2.9-5.6 7.1-5.6a11.3 11.3 0 0 1 7.9 2.7l-2.2 2.9a9.1 9.1 0 0 0-5.4-2.1c-2.4 0-3.2.9-3.2 2s1.9 2 4.2 2.5 7.3 1.5 7.3 6-3.7 6-8.1 6a11.9 11.9 0 0 1-8.4-3.1zm42.2-10a4.7 4.7 0 1 1 9.3 0 4.7 4.7 0 0 1-9.3 0zm36.7 12.7v-26.8h6l7.1 21.2h.1l6.9-21.2h6.1v26.8h-4.4v-20c-.4 1.8-1 3.6-1.6 5.5l-5.2 14.5h-4l-5.2-14.5a32.9 32.9 0 0 1-1.6-5.7h-.1v20.2zm36.3-4.7c0-4.1 3.5-6.9 12.5-7.9v-.6c0-1.9-1-2.7-3.1-2.7a10.4 10.4 0 0 0-6.5 2.6l-2.2-2.8a13.8 13.8 0 0 1 9.3-3.5c5.1 0 6.9 2.5 6.9 6.9v8a13.5 13.5 0 0 0 .5 4.7h-4.5a8.7 8.7 0 0 1-.4-2.5 9.1 9.1 0 0 1-7.1 2.8c-3.1 0-5.4-1.8-5.4-5zm12.5-.7v-4.2c-5.3.7-8.1 2-8.1 4.1s1 2.3 2.7 2.3a7.8 7.8 0 0 0 5.4-2.2zm12.1 12.2l1-3.5a16.9 16.9 0 0 0 3.2.3 3 3 0 0 0 3.1-2.1l.5-1.4-7.4-19.3h4.7l4.9 14h.1l4.9-14h4.4l-8.2 21.3c-1.2 3.3-2.9 5.3-6.7 5.3a13.6 13.6 0 0 1-4.5-.6zm42-6.8v-4h4.9V485a11.4 11.4 0 0 1-4.9 1.2v-4.1a7.2 7.2 0 0 0 5-1.7h4.3v22.8h4.4v4zm23.1-1.7l2.1-3.3a9.3 9.3 0 0 0 5 1.6c4 0 6.7-3.6 6.9-9.3a10 10 0 0 1-7 2.9c-5.1 0-8.6-2.9-8.6-8.4s4.4-9.1 9.7-9.1 10.4 4.5 10.4 13.4-5.3 14.4-11.6 14.4a11.5 11.5 0 0 1-6.9-2.2zm14-14.5c-.4-5.1-2.7-7.2-6.1-7.2s-5.2 1.9-5.2 5.1 1.3 4.8 5.1 4.8a8.8 8.8 0 0 0 6.2-2.7zm14.1 6.8V494h19.1v3.8zm28.3 9.4v-.6c0-3.9 1.4-7.6 8.4-12.1 4.1-2.7 5.8-3.9 5.8-6.7s-1.7-3.9-4.2-3.9-4.7 1.5-6.3 4l-3.4-2.3c2.2-3.4 5.3-5.7 9.9-5.7s8.4 3 8.4 7.6-1.2 5.7-6.4 9-6.4 4.8-6.9 6.7h13.4v4zm26.8-4.2l3.2-2.6a7.6 7.6 0 0 0 6.7 3.3c3.3 0 5.4-1.3 5.4-4.1s-2.4-4.7-7.4-4.7h-1.2v-3.6h1.3c5.2 0 6.6-1.6 6.6-4s-1.3-3.3-4.6-3.3a8.9 8.9 0 0 0-6.2 2.5l-2.6-2.8a13 13 0 0 1 9.3-3.8c5.7 0 8.6 2.8 8.6 6.8a6 6 0 0 1-5 6.2c4 .8 5.7 3.3 5.7 6.8s-3.8 8-9.8 8a12.2 12.2 0 0 1-10-4.7z" fill="#6d4890"/><path d="M490.8 437.8v-.8c0-5.1 2.3-9.9 11.6-15.9 5.3-3.4 7.5-5.6 7.5-9.4s-2.5-6.3-6.7-6.3-6.6 2-8.7 5.8l-3.2-2c2.6-4.7 6.6-7.6 12.1-7.6s10.6 4.1 10.6 9.9-2.1 7.8-8.9 12.1-9.2 7.4-9.6 10.4h18.7v3.8zm40.7-17.8c0-11 4.9-18.4 13.4-18.4s13.2 7.4 13.2 18.4-4.7 18.4-13.2 18.4-13.4-7.3-13.4-18.4zm22.5 0c0-9.6-3.6-14.6-9.1-14.6s-9.2 5-9.2 14.6 3.6 14.8 9.2 14.8 9.1-5.1 9.1-14.8zm21.7 17.8V434h6.7v-27.3a16 16 0 0 1-6.6 1.6v-3.7c2.8-.1 5.2-.8 6.8-2.3h3.9V434h6v3.8zm32.6-8.7c0-4.9 3.5-7.7 9.1-10.1-4.7-2.1-7.5-4.4-7.5-8.7s4.1-8.8 11.4-8.8 11.2 4.4 11.2 8.8-2.7 6.4-7.5 8.6c5.8 2.5 9.2 5 9.2 10.2s-4.8 9.4-12.9 9.4-13-4.1-13-9.4zm21.7-.2c0-3.8-3.2-5.8-9-8.3-5.8 2.6-8.5 4.7-8.5 8.3s3.6 6.1 8.8 6.1 8.7-2.4 8.7-6.1zm-1.5-18.4c0-2.7-2.2-5.4-7.2-5.4s-7.3 2.6-7.3 5.3 2.4 4.7 7.5 7c4.9-2.3 7-3.8 7-6.9z" fill="#634883"/><path fill="#7773b5" d="M562.5 230.4l-71.8 157.8h71.8V230.4z"/><path fill="#6d4890" d="M562.5 230.4v157.8h71.7l-71.7-157.8z"/><path fill="#68cbda" d="M82.6 362.3h120l-60-131.9-60 131.9z"/><path fill="#616db3" d="M70.9 388.2h143.4l-11.7-25.9h-120l-11.7 25.9zm168.5-25.9h120l-60-131.9-60 131.9z"/><path fill="#68cbda" d="M227.7 388.2h143.4l-11.7-25.9h-120l-11.7 25.9z"/><path fill="#7773b5" d="M383.7 230.4H444v131.94h-60.3z"/><path fill="#68cbda" d="M383.7 362.3H444v25.85h-60.3z"/><path d="M444 230.4v131.9a66 66 0 1 0 0-131.9z" fill="#6d4890"/></g><path fill="#c9da2c" d="M270.9 0L720 205.4V0H270.9z"/><path fill="#ee3f7a" d="M449.1 0L0 205.4V0h449.1zM270.9 720L720 514.6V720H270.9z"/><path fill="#c9da2c" d="M449.1 720L0 514.6V720h449.1z"/></svg>