<svg id="Layer_1" xmlns="http://www.w3.org/2000/svg" viewBox="0 0 32 32"><style>.st0{fill:#040305}</style><path class="st0" d="M25.5 12.3l-11-10.8C13.6.5 12.3 0 11 0 9.6 0 8.4.5 7.4 1.5l-.9.9C5.5 3.3 5 4.6 5 5.9s.5 2.6 1.5 3.5l6.6 6.5-6.6 6.5c-1 .9-1.5 2.2-1.5 3.5 0 1.3.5 2.6 1.5 3.5l.9.9c1 .9 2.2 1.5 3.6 1.5s2.6-.5 3.6-1.5l11-10.8c1-1 1.5-2.3 1.5-3.7-.1-1.2-.6-2.5-1.6-3.5zm-1.7 5.6l-11 10.8c-.5.5-1.2.7-1.8.7-.7 0-1.3-.2-1.8-.7l-.9-.9c-1-1-1-2.6 0-3.6l8.4-8.3-8.5-8.2c-1-1-1-2.6 0-3.6l.9-.9c.5-.5 1.2-.7 1.8-.7.7 0 1.3.2 1.8.7l11 10.8c.5.5.8 1.2.7 2 .2.7-.1 1.4-.6 1.9z"/></svg>