<svg id="Layer_1" xmlns="http://www.w3.org/2000/svg" viewBox="0 0 32 32"><style>.st0{fill:#040305}</style><path class="st0" d="M24.4 16l6-6c2-2 2-5.4 0-7.4l-1-1c-1-1-2.3-1.5-3.7-1.5C24.3 0 23 .5 22 1.5l-6 6-6-6C9 .5 7.7 0 6.3 0 4.9 0 3.5.5 2.6 1.5l-1 1c-2 2-2 5.4 0 7.4l6 6-6 6c-2 2-2 5.4 0 7.4l1 1c1 1 2.3 1.5 3.7 1.5 1.4 0 2.7-.5 3.7-1.5l6-6 6 6c1 1 2.3 1.5 3.7 1.5 1.4 0 2.7-.5 3.7-1.5l1-1c2-2 2-5.4 0-7.4l-6-5.9zm4.4 11.8l-1 1c-.6.6-1.3.8-2.1.8-.7 0-1.5-.3-2-.8L16 21.1l-7.7 7.7c-.6.6-1.3.8-2 .8s-1.5-.3-2-.8l-1-1c-1.1-1.1-1.1-3 0-4.1L11 16 3.2 8.3c-1.1-1.1-1.1-3 0-4.1l1-1c.6-.6 1.3-.8 2-.8s1.5.3 2 .8l7.7 7.7 7.7-7.7c.6-.6 1.3-.8 2-.8s1.5.3 2.1.8l1 1c1.1 1.1 1.1 3 0 4.1L21.1 16l7.7 7.7c1.1 1.1 1.1 3 0 4.1z"/></svg>