<svg id="Layer_1" xmlns="http://www.w3.org/2000/svg" viewBox="0 0 44 44"><style>.st0{fill:#1c1f21}</style><path class="st0" d="M13.3 31.1c0 .1-.1.1-.2 0-.1 0-.4-.2-.8-.4 2.2 2.9 5.5 5 9.3 5.6.6.1 1.3.2 1.9.2 3.6.1 7-1.2 9.6-3.4-.1.1-.2.2-.4.2-.1.1-.2.1-.3.2-.2.1-3.7 2.1-9.6 2.1h-.3c-.2 0-.3 0-.4-.1h-.3s-.1 0-.1-.1v-.1c0-.1.1-.1.1-.1h1c.3 0 .8 0 1.2-.1.4 0 .8-.1 1.3-.1 0 0 .1 0 .1-.1.1-.2.2-.4.2-.7v-.1h-.2c-.7.1-1.3.2-2 .2-1.1 0-2.1 0-3.2-.1-1-.1-1.7-.3-2.2-.4-.3-.1-.5-.1-.6-.2l-.2-.1s-.1 0-.1-.1v-.1c0-.1.1-.1.2-.1 0 0 2 .5 4.4.5.7 0 1.3 0 1.9-.1h.2c.1-.1.1-.2.2-.3.1-.2.2-.4.3-.5v-.2h-.4c-.2 0-.5 0-.7.1h-2c-.6 0-1.1-.1-1.6-.2-.1 0-.3 0-.4-.1l-.3-.1c-.5-.1-1-.2-1.4-.4-.5-.1-.9-.3-1.3-.5l-.2-.1c-.4-.2-.8-.4-1.1-.5-.3-.2-.6-.3-.7-.4l-.2-.1-.1-.1v-.1c0-.1.1-.1.2 0 0 0 .1.1.2.1l.6.3h.3v-.2c-.1-.3-.2-.7-.3-1.1V29s0-.1-.1-.1c-.3-.2-.7-.3-1-.5h-.3s-.1.1 0 .1v.1c0 .2.1.3.2.4v.2h-.2c-.1-.2-.2-.5-.2-.7 0-.1 0-.2-.1-.3 0 0 0-.1-.1-.1-.3-.2-.5-.3-.7-.4l-.1-.1h-.2s-.1.1 0 .1v.1c0 .1 0 .1-.1.2-.1 0-.1 0-.2-.1-.1-.2-.2-.4-.2-.6 0 0 0-.1-.1-.1l-.1-.1-.1-.1c-.3-.2-.6-.3-.8-.3-.2 0-.3.1-.3.2-.1.3.3.8 1.1 1.3.1.1.1.1.2.1.2.2.4.3.5.4l.1.1v.1s-.1.1-.2 0c0 0-.7-.5-1.4-1.1.4.8.8 1.6 1.3 2.3.5.3 1 .6 1.3.8.2.1.3.2.2.2zm-1.7-4.7c-.1-.3-.1-.7-.1-1.1 0 0 0-.1-.1-.1s-.2-.1-.3-.2c-.3-.1-.5 0-.6.2-.1.3.2.9.9 1.4h.2v-.2zM29.2 13v-.5H28s-.1 0-.1.1 0 .1.1.1l.1.1.9.3h.2V13zm-8.5 9.7c0-.1-.1-.1-.1-.1h-.1l-.1.1c.1.4.3.8.5 1.2h.2l.1-.1.1-.1v-.2c-.1-.1-.1-.2-.2-.2s-.2-.3-.4-.6zm3.5-3c0-.6-.7-1.1-1.6-1.1-.9 0-1.6.5-1.6 1.1 0 .6.7 1.1 1.6 1.1s1.6-.4 1.6-1.1zm-1.1 6.1c0 .1 0 .1 0 0 .5.2.9.4 1.3.4 0 0 .1 0 .1-.1.1-.3.2-.5.3-.8v-.1H24c-.2 0-.4 0-.5-.1 0 0-.1 0-.1.1l-.1.2-.1.1-.1.2v.1zm-.3-2.7c.2.1.4.2.5.3l.1-.1v-.2c0-.1 0-.1.1-.2v-.1l-.1-.1c-.1 0-.2-.1-.4-.2 0 0-.1 0-.1.1s-.1.2-.2.3c0 .1 0 .1.1.2-.1 0-.1 0 0 0zm.2 1.2c.1.1.1.1 0 0h.1s.1 0 .1-.1l.1-.3c0-.1 0-.1-.1-.1-.2-.1-.5-.2-.7-.3h-.2l-.1.2v.2c.1.1.3.2.4.3.2 0 .3.1.4.1zm-1.3-2.2s0 .1 0 0l.1.2.3.3h.2c0-.1.1-.1.1-.2v-.1c-.1-.1-.3-.2-.4-.3h-.1l-.2.1c-.1-.1-.1 0 0 0zm-.2 2.4c-.1.1-.1.1 0 .2.3.4.7.7 1.1.9h.1s.1 0 .1-.1.1-.1.1-.2v-.1l.1-.2c0-.1 0-.1-.1-.1-.1-.1-.3-.1-.4-.2-.2-.1-.3-.2-.5-.3h-.1c-.3-.1-.4 0-.4.1zm4.7.6s-.1 0 0 0c-.1-.1-.2-.1-.2-.1-.1 0-.2.1-.3.1l-.5.1s-.1 0-.1.1c0 .2-.1.5-.2.8v.1h.1c.3 0 .7 0 1-.1 0 0 .1 0 .1-.1.1-.3.1-.6.1-.9zm3-10.5c0 .1-.1.1-.1.2l-.1.1-.2.3-.1.1v.1s0 .1.1.1h.1l.3.1h.1c.1-.1 1-.6 1.2-1.1v-.1l-.2-.1c-.1 0-.1-.1-.2-.1s-.1-.1-.2-.1l-.2-.1h-.1l-.1.1-.3.5zm.5-4.4h-.1c0 .1-.1.2-.2.3v.1c.1.1.2.2.4.2s.5-.1.7-.2h.2l.1-.1c0-.1 0-.1-.1-.1h-.1c-.4-.1-.7-.2-.9-.2zm8.6 11c0-.4-.1-.7-.1-1.1-.1.1-.3.2-.4.3v.2l.2.3v.1s0 .1.1.1h.1c.1 0 .1 0 .1.1zm-7.7-5s0 .1 0 0l.2.2c.1 0 .1.1.2.1h.2c.1 0 .2 0 .3-.1l.1-.1c.2-.1.5-.4.7-.5l.1-.1v-.1l-.2-.1c-.1 0-.1-.1-.2-.1 0 0-.1 0-.1-.1h-.3c-.2.3-.7.6-1 .8v.1c0-.1 0-.1 0 0zm.6-2.2l-.1.1v.2c.2.1.4.2.5.4h.3l.1-.1s.1-.1 0-.1v-.1c0-.2-.1-.5-.5-.5-.1 0-.2 0-.3.1 0-.1 0-.1 0 0zm.3-3.4h-.2v.1s0 .1-.1.1v.2s0 .1.1.1h.1c.2 0 .4 0 .6-.1h.1l.1-.1s0-.1-.1-.1H32c-.1-.1-.3-.2-.5-.2zm2 .4l-.4-.4v.1s0 .1.1.1c0 .1.1.2.3.2zm3.5 8.5l.1.2c.1.1.1.2.2.2l.2.2h.2c.1-.1.3-.2.5-.4v-.2H38c-.3-.1-.4-.2-.8-.2H37v.2c0-.1 0-.1 0 0zm-.7-.8l.1.1.1.1.1.1.1.1h.2l.1-.1v-.1c0-.2 0-.4-.3-.6-.1 0-.1 0-.2-.1h-.1l-.1.1c-.1.3-.1.4 0 .4zm-.1-2.9s.1 0 0 0c.1-.1 0-.2 0-.2-.1-.1-.3-.2-.5-.4h-.1l-.1.1-.1.1s0 .1-.1.1v.1l.1-.1v.1l.1.1.1.1.1.1.1.1h.1s.1 0 .1-.1v-.1c.2.1.2.1.2 0 0 .1 0 .1 0 0zm-.8 2l.6.6h.2l.1-.1v-.1c0-.2 0-.5-.2-.7-.1-.1-.2-.1-.3-.1h-.2l-.1.1c-.2.2-.2.2-.1.3zm.8-3.6l-.1-.1c0 .1 0 .1.1.1zm.9 1.7c-.1-.2-.2-.4-.3-.5l-.1.1v.2l.4.2zm.3 1v.1s0 .1.1.1c0-.1 0-.2-.1-.2 0-.1 0-.1 0 0zm-1-.5c.2.2.4.3.6.4h.1s.1 0 .1-.1.1-.1.1-.2v-.2c-.2-.2-.4-.3-.6-.5h-.1s-.1 0-.1.1-.1.1-.1.2v.1c-.1.1-.1.2 0 .2zm-.5-1.8s-.1 0-.1.1v.4l.2.2h.2s.1-.1 0-.1v-.1c0-.1 0-.2-.1-.2v-.1c-.1-.2-.1-.2-.2-.2zm-.4-.9c.1.1.2.1.3.2h.1s.1 0 .1-.1c-.2-.3-.5-.7-.7-1-.1.1-.2.2-.3.4v.1c.1.2.3.3.5.4zm-.2 1.4V15l-.4-.3h-.2v.1l.1.1c0 .1.1.1.1.2l.1.1h.1s.1 0 .1-.1h.1zm-.9 1.7l.1.1.5.5h.2l.1-.1v-.1c0-.2 0-.4-.1-.5-.1-.1-.3-.2-.5-.2h-.3v.3c0-.1 0 0 0 0zm-.3-.3c0 .1 0 .1 0 0h.2l.2-.2v-.1c0-.1 0-.3-.1-.4-.1-.2-.3-.2-.5-.2h-.5s-.1 0-.1.1v.1l.1.1c.3.3.5.4.7.6zm-1.3 1.2c0 .1.2.2.3.2h.1l.6-.3c.1-.1.1-.3 0-.5-.1-.1-.4-.1-.5 0 0 0-.1.1-.3.1-.2.1-.3.3-.2.5zm-.2-1.3c-.1.1-.3.2-.3.2-.1 0-.1.1-.2.2v.3c.1.1.2.2.3.2h.2c.2-.1.4-.2.5-.3.1-.1.1-.1.1-.2s0-.2-.1-.3c-.1-.2-.3-.2-.5-.1zm-.3-1.6h-.1s-.1 0-.1.1v.1l.1.1c.2.2.5.4.7.5h.2v-.1c0-.1 0-.2-.1-.3-.2-.4-.4-.4-.6-.4h-.1zm1.4-3.4c-.3-.1-.5-.2-.8-.3 0 0-.1 0-.1.1v.1c0 .1-.1.1-.1.2l-.2.4v.1s0 .1.1.1h.2c.2 0 .6-.1.9-.3h.1l.1-.1c-.1-.2-.1-.3-.2-.3zm.5.3c-.2.2-.3.3-.4.5v.1s0 .1.1.1h.4c.2 0 .4 0 .5-.1-.2-.1-.4-.4-.6-.6zm-2.3-1.9c-.1.1-.2.2-.2.3v.1s0 .1.1.1c.3.1.5.2.8.3h.1l.1-.1c-.3-.2-.6-.5-.9-.7zM30.6 14s0-.1 0 0l.1-.1v-.1c-.1-.2-.2-.5-.5-.5H30l-.1.1v.1s0 .1.1.1h.1c.1.1.3.1.4.2l.1.1.1.1h-.1c-.1-.1 0 0 0 0zm-.8 1.6l-.1.1s0 .1.1.1h.1c.1 0 .2.1.3.1h.2c.4-.2 1-.6 1.2-.9v-.2c-.2-.1-.3-.2-.5-.3H31s-.1 0-.1.1c-.4.4-.8.8-1.1 1zm8.5 5.9l-.3-.3v-.1s0-.1-.1-.1h-.1l-.7-.9-.3-.3c-.1-.1-.2-.2-.3-.4-.1-.1-.2-.1-.3-.2-.1 0-.3-.1-.5-.1-.3 0-.4.1-.5.2 0 .1-.1.5 1.7 1.8 0 0 .1 0 .1.1v.1c0 .1-.1.1-.2 0-1.1-.6-2.2-1.6-3.3-2.5-.3-.3-.6-.5-.8-.7-.3-.1-.5-.1-.7.1v.5l1 .7 1 .9.3.2c.2.2.4.4.7.6.3.2.6.5 1 .7.3.2.7.4 1 .5.1.1.3.1.4.2l.6.3c.1.1.3.1.4.2v-.8c0-.2 0-.5-.1-.7zM29.9 9.7c-.1.1-.1.1 0 .2 0 0 0 .1.1.1h.1c.4.1.8.2 1.3.3 0 0 .1 0 .1-.1.1-.2.2-.3.3-.5-.2-.1-.3-.2-.5-.3-.1 0-.2 0-.3-.1 0 0-.1 0-.1-.1v-.1c-.1-.1-.2-.1-.3-.2-.3.3-.5.5-.7.8zm-1.6 9.6c0 2-1.6 3.7-3.7 3.7h-.5v.7h.1c.4.1.7.1.8.1.1 0 .1.1.1.1v.1h-.4c-.2 0-.4 0-.6-.1-.1 0-.1 0-.1.1 0 .2-.1.3-.2.5v.1l.1.1c.1 0 .2.1.4.1.1 0 .3.1.4.1h.2l.9-.1c.1 0 .2 0 .3-.1h.2c.2-.1.3-.1.5-.2 0 0 .1-.1.2-.1.2-.2.4-.3.6-.4.1-.1.3-.3.3-.4.1-.1.1-.2.2-.3v-.1c0-.1.1-.1.2-.1s.1.1.1.2l-.1.1c0 .1-.1.2-.2.3-.1.1-.2.3-.4.4-.2.2-.4.3-.6.5-.1 0-.1.1-.2.1-.1.1-.2.1-.3.2l-.1.1v1h.1c1.8-.7 3.1-2.5 3.1-4.4 0-1.2-.3-2.2-.8-3-.1-.1-.2-.1-.2-.1-.1 0-.3.1-.3.2-.1.1-.1.1-.1.2v.4zm-15.1 6.8v-.2c-.5-.3-.9-.5-1.2-.7h-.1v.1c0 .7.1 1.2.3 1.6.4.2.7.5 1.1.7h.3v-.2c-.3-.4-.5-.9-.4-1.3zm24.2 1.1l.3-.9c-.1 0-.1-.1 0-.2l.2-.4v-.1l-.1-.1h-.1c-.2 0-.2-.1-.3-.4 0-.1-.1-.3-.2-.4-.1-.1-.3-.2-.4-.2-.1 0-.1 0-.1.1 0 .4-.2.7-.2.8 0 .1-.1.1-.2.1s-.1-.1-.1-.2.7-1.5-.7-2.9c-.1-.1-.3-.2-.5-.3h-.5v1.4c0 .2-.1.3-.1.5 0 .1-.1.2-.1.3l-.1.2c0 .1-.1.3-.2.4-.1.2-.2.3-.2.4 0 .1-.1.1-.1.1s-.1.1-.2 0c-.1 0-.1-.1 0-.2 0 0 0-.1.1-.2 0-.1.1-.2.2-.4 0-.1.1-.2.1-.4 0-.1 0-.2.1-.3v-.2c0-.2.1-.3.1-.5v-2.3c-.2-.2-.4-.3-.6-.5l-1-.9-.1-.1h-.2l-.1.1V22l-.1.5c0 .1-.1.3-.1.4v.2c0 .1 0 .1-.1.2v.1c.2.6.2.8.1.9 0 .1-.1.1-.1.2s-.1.1-.2.1-.1-.1 0-.2c0 0 0-.1.1-.2 0-.1.1-.2.1-.4v-.3c0-.2.1-.4.1-.6v-1.3l-.1-.8c0-.1 0-.2-.1-.2v-.1c-.1-.3-.2-.7-.4-.9-.1-.1-.3-.3-.5-.3-.1 0-.2 0-.2.1-.1.1 0 .3.1.4.1.2.1.4.2.7.1.4.1.8.1 1.3 0 3.3-2.7 6.1-6 6.1s-6-2.7-6-6.1c-.1-.9.3-2.2.6-3v-.2s-.1-.1-.2-.1c-.2 0-.5.1-.8.3-.2.1-.4.2-.5.2-.1 0-.1 0-.1.1-.1.7-.1 1.3-.1 1.3 0 .1-.1.1-.1.1-.1 0-.1-.1-.1-.1s0-.5.1-1.1v-.2h-.3c-.4.2-.9.7-1.2 1.2v.2l-.1.9v1.5c0 .2 0 .4.1.6v.4c0 .2.1.3.1.4 0 .1.1.2.1.2s0 .1.1.1l-.1.1h-.2c0-.1-.1-.2-.1-.2-.1-.1-.1-.2-.2-.4l-.1-.2c0-.1 0-.1-.1-.2-.1-.2-.1-.4-.1-.7l-.1-.5v-1l.1-.9.1-.4v-.1h-.2c-.1 0-.2.1-.3.1-.1.1-.3.3-.4.5v1.2c.1.5.1.9.2 1.3l.1.6v.1s-.1 0-.1.1c-.1 0-.1 0-.1-.1 0 0-.1-.2-.2-.6-.1-.3-.2-.8-.3-1.3v-.3c0-.2 0-.3-.1-.5v-.5h-.1c-.1 0-.2 0-.2.1-.2.1-.4.4-.5.7v.2l.1.3c0 .2.1.3.1.5l.5 2.1v.1l-.1.1c-.1 0-.1 0-.1-.1s-.1-.3-.2-.6c-.1-.4-.3-.9-.4-1.4 0-.2-.1-.3-.1-.5l-.1-.3v-.3h-.1c-.1 0-.2.1-.2.1-.1 0-.1.1-.1.1v.4c0 .1.1.3.1.5l.3 1.3c0 .1 0 .1-.1.2-.1 0-.1 0-.1-.1-.1-.1-.1-.2-.2-.4s-.2-.6-.3-.9v-.2s0-.1-.1-.1h-.1l-.4-.1v.1c-.2.3-.2.7-.2 1 0 .5.1.9.2 1.2.3.2.6.5.9.7h.3s.1-.1 0-.1v-.2c0-.1 0-.2-.1-.3v-.1s0-.1.1-.1.1 0 .2.1c0 .1.1.3.1.4 0 .1 0 .3.1.5v.2c.6.4 1.1.7 1.3.8 0 0 .1 0 .1.1v.1c0 .1-.1.1-.2.1 0 0-.4-.2-1.1-.6h-.3l-.1.1v.1c0 .4.1.7.3 1.1 0 .1.1.3.1.4 0 0 0 .1.1.1.3.2.7.4 1.1.5h.3v-.2c0-.2-.1-.3-.1-.4 0-.1.1-.1.1-.1h.1v.1c0 .2.1.5.2.7v.1s0 .1.1.1h.1c.6.2 1.4.6 2.3.9l.6.2h.5l.3-.3v-.1s0-.1-.1-.1c-.3-.1-.4-.1-.5-.2 0 0-.1 0-.1-.1v-.1c0-.1.1-.1.2-.1 0 0 1.7.7 4.6.7 1.8 0 3.7-.3 5.7-.9l.1-.1c1.4-.4 2.7-1 4.1-1.7h.3c.1 0 .1 0 .2.1v.1s0 .1-.1.1v.1l-.1-.1-.1.1c0 .3-.1.6-.3 1v.2h.2c1.1-.3 2-.4 2.6-.4 0 0 .1 0 .1-.1v-.2c0-.1.1-.1.1-.2v-.1h-.1c-.8 0-1-.2-1-.2-.2-.3 0-.6.2-.8.1-.2.2-.3.2-.4-.1-.2-.6-.3-.8-.3-.1 0-.1-.1-.1-.1 0-.1.1-.1.1-.1.1 0 .8.1 1 .5.1.2-.1.4-.2.6-.1.2-.3.4-.2.6.1 0 .2.1.7.1.5-.3.9-.3 1.3-.3zm-.1.2h-.4s-.1 0-.1.1-.1.2-.1.3v.1l.1.1h.3c0-.1.1-.3.2-.6zm-.4 1h-.5l-.1.1h-.8c-.1 0-.1.1-.1.1 0 .1 0 .1.1.1h.4c.1 0 .3 0 .4.1h.2c.1 0 .1 0 .2.1 0-.2.1-.3.2-.5zm-.4.8s-.1 0 0 0l-.3-.1h-1c-.1 0-.3.1-.4.1l-.1.1c0 .1 0 .3-.1.4v.2h.2c.3-.1.7-.1 1-.1.1 0 .2 0 .4.1 0-.2.1-.5.3-.7zm-4.3 3.7v.1h.1l.2-.1h.1l.6-.3v-.1c0-.1.1-.3.2-.5l.4-.8V31h-.2.1c-.3.2-.7.4-1.2.7h-.1s-.1 0-.1.1v.1l.1.1s.1.1 0 .1c0 .3-.1.5-.2.8zm-.2-3.4c-.1 0-.1.1-.1.1v.2h.1l.7-.3v-.2h-.2c-.1.1-.3.1-.5.2zm1.4-1.8v-.2h-.2c-.2.1-.5.2-.7.4l-.1.1v.1c0 .1 0 .3-.1.5v.1c.1.1.1.1.2.1h.1l.2-.1.1-.1c.1-.1.4-.5.5-.9zm.9 1.8v-.1h-.1l-.2.1c-.1 0-.2.1-.2.1-.1 0-.1.1-.2.1l-.2.1s-.1 0-.1.1c0 .2-.1.5-.2.7v.2h.2l.1-.1.1-.1h.2c.2-.1.3-.2.5-.4l.1-.1c-.1-.2-.1-.4 0-.6zm.3 2.1c0-.1 0-.1 0 0 .1-.3.2-.7.2-1v-.2h-.1c-.1.1-.3.1-.4.2 0 0-.1.1 0 .1 0 .3-.1.7-.3 1.1l-.2.2v.1h.2l.1-.1c.1-.1.2-.1.3-.2l.2-.2c0 .1.1 0 0 0zm-2.2-.4l.1-.1.1-.1c0-.2.1-.4.2-.6 0-.1.1-.2.1-.2V30h-.1l-.2.1c-.2.1-.3.2-.5.3H32c-.2.1-.3.2-.4.3 0 .1 0 .2-.1.3v.1c0 .1 0 .2.1.2l.2.2h.1l.2-.1c.1 0 .1-.1.2-.1 0 0 0-.1.1-.1zm-1.9 2.4v.1h.2c.2-.1.4-.2.6-.2l.3-.1h.2v-.1c0-.1.1-.2.1-.4.1-.2.2-.4.3-.7V32H32c-.4.2-.7.3-1 .5-.2.3-.3.6-.5 1.1zm-2.3.7v.1h.2c.3-.1.5-.1.8-.2l.9-.3s.1 0 .1-.1c.1-.2.2-.6.4-.9v-.2h-.2c-.4.2-.7.3-1 .4-.2.1-.3.1-.5.2h-.1s-.1 0-.1.1c-.2.3-.4.6-.5.9zm-2.1.4v.1h.9c.2 0 .5-.1.7-.1 0 0 .1 0 .1-.1.1-.1.1-.2.2-.4.1-.1.1-.2.2-.4v-.2h-.1l-.4.1-.2.1c-.3.1-.7.1-1.1.2 0 0-.1 0-.1.1s-.1.3-.2.6zm-1.6-1.3c0 .1 0 .1.1.1.7-.1 1.2-.2 1.7-.3h.1v-.1s0-.1.1-.1l.3-.6v-.1h-.1l-.8.2c-.3.1-.5.1-.8.1 0 0-.1 0-.1.1-.1.2-.3.4-.5.7zm2.6-3.4v-.1s-.1-.1-.1 0l-.3.1-1.5.3s-.1 0-.1.1-.1.2-.1.2v.2l.1.1h.1c.5 0 1.1-.1 1.6-.2 0 0 .1 0 .1-.1 0-.3.1-.5.2-.6zm.8 1.9c0-.1-.1-.1-.1-.1-.2.1-.5.1-.7.2l-.1.1c0 .3-.1.6-.3.8v.1h.1c.9-.2 1.1-.4 1.2-.6.1-.1.1-.3-.1-.5zM27 31c-.1 0-.1 0 0 0-.2.2-.2.3-.3.4v.2h.2c.4-.1.7-.2 1-.3h.1c.1-.1.1-.2.1-.4v-.1H28c-.4.1-.7.2-1 .2zm2-1.4v-.1s-.1-.1-.1 0h-.1c-.2 0-.4.1-.6.1-.2 0-.3.1-.4.1h-.1s-.1 0-.1.1-.1.2-.2.4v.2h.2l1.2-.3s.1 0 .1-.1v-.1c-.1-.1 0-.2.1-.3zm-.5 2.7v.3c0 .1.1.1.2.2h.1c.1 0 .3-.1.3-.2.1-.4.1-.7.1-.9-.1-.2-.2-.3-.4-.2-.2.1-.3.2-.2.4 0 0 0 .2-.1.4zm.1-1.7c-.1 0-.3.1-.2.3 0 .1.1.2.3.2.2 0 .7-.2.8-.3.1-.1.2-.2.1-.4-.1-.1-.2-.2-.4-.1 0 .1-.4.3-.6.3zm1.5-1s0-.1-.1-.1h-.1c-.1-.1-.3-.1-.6-.1h-.1s-.1 0-.1.1-.1.2-.1.3v.2h.1l.2-.1c.2 0 .3-.1.5-.1l.3-.2c0 .1 0 .1 0 0zm-.6 2.6v.2c0 .1.1.1.2.1h.1c.1 0 .2-.1.3-.2 0 0 .2-.7.1-1.1-.1-.1-.2-.2-.4-.1-.1.1-.2.2-.1.4-.1.1-.2.4-.2.7zm-5-.3v.1h.3c.3 0 .6-.1 1-.1l.5-.1s.1 0 .1-.1l.2-.5v-.1s-.1-.1-.1 0h-.1c-.5.1-1 .1-1.5.1 0 0-.1 0-.1.1l-.3.6zm-.1-1.2c.1 0 .1 0 .1-.1s.1-.1.2-.2v-.2l-.1-.1h-.9c-.1 0-.2-.1-.3-.1h-.1s-.1 0-.1.1-.1.2-.2.3v.1l.1.1h.7c.2.1.4.1.6.1zM22.8 32v.1H24s.1 0 .1-.1.1-.2.1-.3l.1-.3v-.1l-.1-.1H23c-.1 0-.1 0-.1.1.1.2 0 .4-.1.7zm0-1.7v-.2c0-.1-.1-.1-.1-.1h-.1c-.4 0-.8-.1-1.2-.1 0 0-.1 0-.1.1s-.1.2-.2.3v.1s0 .1.1.1h.1c.4.1.8.1 1.2.1h.1c0-.1.1-.2.2-.3zm-3.3-.1c.4.1.7.2 1.1.2 0 0 .1 0 .1-.1 0 0 0-.1.1-.1s.1-.1.2-.2v-.1s0-.1-.1-.1h-.1c-.4-.1-.8-.1-1.1-.2 0 0-.1 0-.1.1s-.1.2-.1.3c-.1 0-.1.1 0 .2-.1-.1-.1 0 0 0zm-1.7 1s-.1 0 0 0c-.1 0-.1 0 0 0l-.2.1-.1-.1c-.2-.3-.3-.7-.4-1.1 0 0 0-.1-.1-.1-.6-.2-1.1-.4-1.6-.6h-.2v.2c.1.6.3 1.2.7 1.4l.1.1s0 .1.1.1l.2.1c.3.1.7.3 1.2.4l.2.1c.4.1.9.2 1.4.3l.4.1.4.1c.5.1 1 .1 1.5.1h1s.1 0 .1-.1c.1-.2.3-.5.3-.7v-.1h-.1c-.8-.1-1.5-.1-2.1-.3-.5-.1-.9-.2-1.3-.3l-.7-.2-.6-.2h-.4v.2c-.1-.1 0 .2.2.5 0-.1 0-.1 0 0zm18-1h-.5c-.1 0-.1.1-.1.1 0 .2-.1.5-.1.7v.2c.2-.3.5-.6.7-1zM10.7 17.7c.3 0 .5-.1.6-.2h.1l.2-.2.3-.3v-.1s0-.1-.1-.1h-.1c-.4-.1-.9-.2-1.3-.4-.2.4-.3.8-.4 1.2.3.1.5.1.7.1zm-1.2 4.2c1.3-1 4.1-3.1 7.7-4.6l.4-.1c.6-.2 1.1-.4 1.5-.6 0 0 0-.1.1-.1l.1-.2c0-.1.1-.1.1-.2.1-.2.2-.3.2-.4v-.1c0-.1.1-.1.1-.1.1 0 .1.1.1.1v.1c0 .1 0 .2-.1.3v.2h.2l.9-.3.5-.5c.1-.2.3-.4.4-.6l.1-.3c0-.1.1-.1.2-.1s.1.1.1.1l-.1.4c0 .1-.1.3-.2.5v.2s.1.1.1 0h.1c.2-.1.4-.1.7-.2.1-.1.2-.1.3-.2l.6-.6.1-.1c.1-.1.1-.2.2-.3 0-.1 0-.1.1-.1 0-.1.1-.1.1-.2l.1-.4c0-.1.1-.1.2-.1s.1.1.1.1l-.1.4c0 .1-.1.2-.1.3v.1c-.1.1-.1.2-.2.4v.1l-.5.2v.2l.1.1h.1c.2 0 .4 0 .5-.1h.1l.2-.2c.1-.1.2-.2.3-.4.1-.2.2-.4.3-.4l.1-.2c0-.1.1-.1.2-.1s.1.1.1.1 0 .1-.1.3c-.1.2-.2.4-.3.5 0 .1-.1.1-.1.1l-.1.1v.1l.1.1h.7l.4-.4c.1-.1.2-.3.3-.4 0 0 0-.1.1-.1l.1-.1c0-.1.1-.1.2-.1s.1.1.1.1v.1c0 .1 0 .1-.1.2-.1.2-.2.3-.3.5v.3s0 .1.1.1h.5c.1-.1.2-.2.4-.3.1-.1.2-.3.3-.4l.1-.2c0-.1.1-.1.2 0s.1.1 0 .2l-.2-.2c-.1.2-.2.3-.3.4l-.1.1v.1s0 .1.1.1h.4c.1 0 .1-.1.2-.2l.2-.2.2-.3.1-.1.2-.2.3-.5v-.1s0-.1-.1-.1c-.5-.2-.9-.4-1.3-.5h-.6c-.1 0-.3-.1-.4-.1h-.2c-.3-.1-.7-.1-1-.2h-.2c-.3 0-.5-.1-.8-.1h-2.6l-1 .2c-.2.1-.5.1-.6.2l-1.2.3c-1.2.4-2.1.7-2.7 1-.2.1-.4.2-.5.2l-.2.1-.3.1c-.1 0-.1 0-.2-.1 0-.1 0-.1.1-.2l.2-.1s.1 0 .2-.1c.2-.1.3-.2.6-.3.3-.1.7-.3 1.2-.5s1-.4 1.6-.6l1.2-.3h.1c.2 0 .4-.1.6-.1l.5-.1c.1 0 .1-.1.1-.1 0-.1 0-.1-.1-.1h-.3c-.8 0-1.3-.1-1.5-.1 0 0-.1 0-.1-.1v-.1c0-.1.1-.1.1-.1s1 .1 2.3.1h1.4c.1 0 .2-.1.4-.1.4-.1 1.1-.3 1.3-.6l.1-.1h.1l.1.1v.1c0 .1-.1.1-.2.2l-.1.1v.1l.1.1h.1c.5-.1 1.1-.2 1.6-.4h.1l.1-.1c0-.1 0-.1-.1-.1h-.1c-.1 0-.4-.1-.5-.2 0 0-.1 0-.1-.1v-.1c0-.1.1-.1.2-.1 0 0 .5.1 1.2.4.4-.2.8-.4 1.1-.7l.1-.1s.1-.1 0-.1c0 0 0-.1-.1-.1h-.8c-.1 0-.1-.1-.1-.1 0-.1.1-.1.1-.1s.5 0 1.2.1h.3c.2-.3.5-.6.7-.8-.5-.2-1-.5-1.5-.7-.3.4-.8.8-1.1 1v-.3c.4-.3.7-.5.9-.8-.8-.3-1.5-.5-2.4-.6-.6-.1-1.3-.2-1.9-.2-4-.1-7.6 1.5-10.3 4.1h.2c.1 0 .1.1.1.1 0 .1-.1.1-.1.1h-.4c-.4.4-.8.9-1.2 1.4.1 0 .3.1.4.1h.3v-.1s0-.1.1-.1c.2-.1.4-.2.5-.3.2-.1.3-.1.5-.2h.2v.1s0 .1-.1.1c-.2.1-.4.2-.5.3 0 0-.1 0-.1.1h-.2l-.1.1s0 .1.1.1h.3l.2.1c.1 0 .3.1.4.1h.1c.1 0 .1 0 .1.1v.1h-.1c-.2 0-.4 0-.5-.1-.1 0-.1 0-.2-.1-.2 0-.4-.1-.6-.1h-.1c-.1 0-.3 0-.4-.1-.2 0-.3-.1-.5-.1-.2.3-.4.5-.6.8.1-.1.2-.1.3-.2h.1c.1-.1.2-.1.2-.1h.1s.1 0 .1.1v.1s0 .1-.1.1c-.1.1-.2.1-.3.2-.1.1-.2.1-.3.2-.1 0-.1 0-.2-.1v-.1c-.1.2-.2.3-.3.5.7.2 1.6.5 2.4.5.3 0 .6-.1.8-.1h.5v.1s0 .1-.1.1c-.1.1-.3.2-.4.3-.3.2-.6.4-.8.6h-.2v-.2l.1-.1h.1l.1-.1s.1-.1 0-.1l-.1-.1h-.1c-.3 0-.6 0-.9-.1 0 0-.1 0-.1.1 0 0 0 .1-.1.1-.1.1-.3.1-.4.2h-.1c-.1 0-.1.1-.2.1h-.2V16s0-.1.1-.1.1-.1.2-.1l.2-.1.1-.1s0-.1-.1-.1h-.1c-.3-.1-.5-.1-.8-.2l-.6 1.2c.6.2 1.1.4 1.5.4.1 0 .2 0 .3-.1h.4v.2c-.2.2-.5.4-.8.7l-.1.1c-.2.2-.4.4-.6.5h-.3c-.3.1-.7 0-1 0-.1.3-.2.6-.2.9.1 0 .2 0 .3-.1h.2v.2c-.3-.3-.5-.3-.7-.3h-.1c0 .2-.1.5-.1.7-.1.4-.1.7-.1 1.1v1.1zm31.1.2c-.1 4.4-1.9 8.5-5 11.6-3.1 3.1-7.3 4.7-11.7 4.6-.7 0-1.5-.1-2.2-.2-8.1-1.2-14-8.4-13.9-16.6C8 17.1 9.7 13 12.9 10c3.1-3.1 7.3-4.7 11.7-4.6.7 0 1.5.1 2.2.2 8 1.2 14 8.3 13.8 16.5zm1.4 0c.2-8.9-6.3-16.6-15-18-.8-.1-1.6-.1-2.4-.1-4.7-.1-9.2 1.7-12.6 5-3.4 3.3-5.3 7.8-5.4 12.5-.2 8.9 6.3 16.6 15 18 .8.1 1.6.2 2.4.2 9.7.2 17.8-7.7 18-17.6zM5.5 37.9c-.3-.3-.6-.6-1-.6.1-.4 0-.8-.3-1.2-.5-.7-1.5-.8-2.1-.3-.7.5-.8 1.5-.3 2.2 0 .1.1.1.2.2-.4.3-.4.9-.1 1.2.2.3.7.5 1.2.2 0 .1.1.1.1.2.5.7 1.5.8 2.1.3.5-.6.7-1.5.2-2.2zM44 22.3c0 .9-.1 1.8-.2 2.7-1.5 9.7-9.9 17.1-20 16.9-.9 0-1.8-.1-2.7-.2-3.6-.6-6.9-2.1-9.6-4.3-.5-.2-1.2-.4-1.8-.4-.2 0-.4 0-.5.1-1.4.5-1.7 2-2.3 3-.9 1.5-2.1 1.8-3.2 1.6-.9-.2-1.4-.8-1.4-.8s-1.1.2-1.8-.8c-.7-.9-.1-1.9-.1-1.9s-.5-.6-.4-1.5c.1-1 .8-2.2 2.4-2.6 1.2-.3 2.7-.1 3.5-1.3.1-.1.2-.3.3-.5.2-.4.2-.9.3-1.4-1.4-2.8-2.2-6-2.2-9.4 0-.9.1-1.8.2-2.7 1.5-9.6 10-17 20-16.8.9 0 1.8.1 2.7.2 9.7 1.5 17 10 16.8 20.1zm-8.8 1.8c-.1 0-.1 0-.2.1v.2c0 .1 0 .1-.1.2v.1c0 .1 0 .1.1.2.1 0 .1 0 .2-.1v-.1c.2-.3.2-.5 0-.6zm0-.6c.1 0 .1-.1.1-.1v-.5c0-.1-.1-.1-.1-.1-.1 0-.1.1-.1.1v.5c0 .1.1.1.1.1zM15 11.3c.2.1.4.2.6.1h.1v-.1c0-.1-.1-.1-.1-.1h-.1c-.1 0-.2 0-.3-.1h-.1c-.1-.1-.1-.1-.1 0-.1 0-.1.1 0 .2 0-.1 0-.1 0 0zm-1.3 3.1s-.1.1 0 0c-.1.1-.1.1 0 .2 0 .1.1.1.2 0s.3-.2.4-.3l-.1-.2c-.2.1-.4.2-.5.3zm1.3-.7c0 .1 0 .1 0 0 0 .2.1.2.2.2.3-.1 1-.4 1-.4l.1-.1v-.1c0-.1-.1-.1-.1-.1-.3.2-.8.3-1.2.5.1 0 0 0 0 0zm2.6-1s-.1 0 0 0c-.1.1-.1.1-.1.2s.1.1.2.1h.1c.1 0 .3-.1.4-.1l-.1-.2c-.1-.1-.4 0-.5 0zm-1.1 4c-.3.2-.6.3-.7.4v.1h.1c.1 0 .3-.2.6-.3.1-.1.1-.2 0-.2.1 0 .1 0 0 0zm-1.5.7c-.7.4-1.1.6-1.3.7l.1.2c.2-.1.9-.5 1.3-.7 0 0 .1 0 .1-.1v-.1H15zm.9-1.7s.4-.3.6-.3v-.1s0-.1-.1-.1c-.2.1-.6.3-.6.4v.2c0-.1.1-.1.1-.1zm-.7.2c-.1 0-.1 0 0 0-.5.2-1.3.9-1.3.9v.2s.1.1.2 0c.2-.2.8-.7 1.2-.8.1 0 .1-.1.1-.2-.1-.1-.2-.1-.2-.1zm-1.8 1.3c-.2.1-.7.6-.9.8l.2.2c.5-.4.8-.7.9-.8v-.2h-.2zm-1.6 1.4c-.2.2-.4.4-.6.5 0 0-.1 0-.1.1v.1c0 .1.1.1.2 0l.5-.5v-.1c.2 0 .1 0 0-.1.1 0 .1 0 0 0zm-1.2 1.2c-.1.1-.4.3-.7.5v.2h.2c.3-.2.6-.5.6-.5s.1-.1 0-.2c0 .1 0 0-.1 0zm8.5-7.9c-.2-.1-.5-.1-.7-.2 0 .1-.1.2-.1.2.3 0 .6.1.8.2.1 0 .1 0 .2-.1-.1 0-.1 0-.2-.1.1 0 .1 0 0 0zm-1.8-.1c.1-.1.1-.2.2-.2-.3-.1-.6-.1-.9-.4h-.1s-.1 0-.1.1v.2c.2.1.5.2.9.3zm9.1-3.9l-.1-.2v-.1c-.1.1-.2.1-.3.2v.3c.1 0 .3-.1.4-.2zm-5.9 1.3c.1-.1.1-.2.1-.3-.4 0-.8 0-1-.1 0 0-.1 0-.1.1V9s0 .1.1.1c.2.1.5.1.9.1zm3.4-.3c0-.1 0-.2.1-.3-.3.1-.5.1-.7.1h-.1V9h.2c.1 0 .3-.1.5-.1zm1.3-.7c-.1.1-.3.1-.4.1v.3c.2-.1.3-.1.5-.2-.1 0-.1-.1-.1-.2zm-3 .9v-.3c-.3 0-.5.1-.7.1 0 .1-.1.2-.1.3h.1c.3 0 .5 0 .7-.1zm3.8.9c.2-.1.4-.2.5-.3l.1-.1v-.3l-.3.1c-.1.1-.3.1-.4.2.2.2.2.3.1.4zm-5.7.9h1.2c0-.1.1-.2.1-.3h-1.2c0 .1 0 .2-.1.3zm-2.8-.4h.2c.3.1.6.1 1 .2.2 0 .4.1.6.1l.2-.2c-.2 0-.5-.1-.7-.1-.3 0-.7-.1-1-.2h-.3c-.3 0-.5-.1-.7-.2h-.2v.2c.3.2.6.2.9.2zm7.7-.4l-.9.3c0 .1-.1.2-.1.3l.9-.3c.1-.2.1-.2.1-.3zm-1.8.4c-.3 0-.5.1-.8.1 0 .1-.1.2-.1.3.3 0 .5-.1.7-.1.1-.1.1-.2.2-.3zm-5.7 10.6h-.1v1.3h.1c.1 0 .1-.1.1-.1v-1.1c0-.1 0-.1-.1-.1zm14.5 4.8s0 .1 0 0c0 .1 0 .2.1.2h.1s.1 0 .1-.1c.1-.1.2-.4.2-.5l-.2-.1c-.2.2-.2.4-.3.5zm-2.1 1.9c.1 0 .3-.1.4-.1v-.3c-.1.1-.3.1-.4.2v.2zm-11.7-.1s-.1 0-.1.1v.1s0 .1.1.1c0 0 1.1.5 2.8.8 0-.1.1-.2.1-.2-1.8-.4-2.9-.9-2.9-.9zm10.7.4h.2c0-.1 0-.2.1-.3-.1 0-.1 0-.2.1l-.1.2zm-2.4.6h.2v-.1s.1-.1.1-.2h-.3c.1.1.1.2 0 .3zm-2.6.2h.5c.1-.1.1-.2.2-.3h-.5c-.1.1-.1.2-.2.3zm3.8-.4h.2c0-.1.1-.2.1-.3H28c0 .1 0 .2-.1.3zm3.7-1.6c-.1 0-.1 0-.1.1h-.1v.3c.1 0 .2-.1.3-.1 0 0 .1 0 .1-.1V27c0-.1-.1-.1-.2-.1zm-6 1.9h.2c0-.1.1-.2.1-.3h-.2c0 .2-.1.3-.1.3zm-3.6 0c.4 0 .8.1 1.2.1 0-.1.1-.2.1-.2-.4 0-.8 0-1.2-.1 0 .1 0 .1-.1.2zm-5.5-1.4c-.3-.1-.7-.3-.9-.4h-.1s-.1 0-.1.1v.1s0 .1.1.1c.1.1.7.3 1 .4.1 0 .1 0 .2-.1l-.2-.2c.1 0 .1 0 0 0zM17 25l-.1-.1s-.1 0-.1.1v.1s.4 1 .7 1.3c0 0 .1.1.2 0v-.2c-.3-.3-.6-1-.7-1.2zm-1.9 7.2l.1-.2c-.4-.2-.6-.3-.7-.4h-.1s-.1 0-.1.1v.2c.2 0 .6.2.8.3zm1.8.9c.1 0 .1 0 .2-.1v-.1s0-.1-.1-.1l-.9-.4s-.1 0-.1.1v.1s0 .1.1.1l.8.4zm11.6-10.7c.1 0 .1 0 .2-.1 0-.1.1-.4.1-.5 0-.1-.1-.1-.1-.1-.1 0-.1.1-.1.1 0 .1-.1.4-.1.4-.1.1-.1.1 0 .2zm5-.6v.9c0 .1 0 .2-.1.3v.4c0 .1 0 .2-.1.3l-.1.4c-.1.2-.1.4-.1.4 0 .1-.1.1-.2.1s-.1-.1-.1-.1 0-.1.1-.4l.1-.4v-1.9c0-.1.1-.2.2-.2.2 0 .3.1.3.2z"/></svg>